<svg width="211" height="41" viewBox="0 0 211 41" fill="none" xmlns="http://www.w3.org/2000/svg">
<path d="M14.0754 15.8342C14.0878 16.1894 13.981 16.5261 13.7549 16.844C13.538 17.1617 13.257 17.4725 12.912 17.7764C12.576 18.0799 12.2078 18.3755 11.8075 18.6631C11.4071 18.9507 11.0342 19.2419 10.6888 19.5367C10.3525 19.8311 10.0711 20.1283 9.84442 20.428C9.62688 20.7275 9.52383 21.0411 9.53528 21.3691C9.54482 21.6423 9.74534 21.8998 10.1368 22.1415C10.5283 22.3832 11.0883 22.619 11.8168 22.8489C12.5454 23.0789 13.4245 23.3126 14.4542 23.5503C15.4837 23.7788 16.6413 24.0211 17.927 24.2772C18.5707 24.428 18.9008 24.7402 18.9174 25.2139C18.9237 25.3961 18.8844 25.5753 18.7993 25.7515C18.7234 25.9275 18.6149 26.0863 18.474 26.228C18.3327 26.3607 18.1678 26.4713 17.9794 26.56C17.8001 26.6483 17.6148 26.6958 17.4235 26.7025C16.968 26.7184 16.4464 26.6682 15.8587 26.5519C15.28 26.4353 14.6775 26.2876 14.0511 26.1089C13.4247 25.9301 12.7976 25.7331 12.17 25.5179C11.542 25.2936 10.9512 25.0908 10.3976 24.9095C9.85322 24.7279 9.36911 24.576 8.94532 24.454C8.53064 24.3317 8.21855 24.2742 8.00904 24.2815C7.84508 24.2872 7.68838 24.3702 7.53893 24.5305C7.39827 24.6813 7.2688 24.8911 7.15049 25.1597C7.0413 25.428 6.95208 25.7457 6.88282 26.113C6.81324 26.4711 6.76771 26.8648 6.74623 27.2942C6.71754 27.7786 6.55703 28.1444 6.26471 28.3918C5.98117 28.6297 5.57979 28.7577 5.06058 28.7758C4.52315 28.7946 4.20469 28.5549 4.10522 28.0568C3.94186 27.2964 3.74615 26.5235 3.51807 25.738C3.29911 24.9522 3.05737 24.1672 2.79286 23.3829C2.53746 22.5984 2.25961 21.8238 1.9593 21.0591C1.6681 20.294 1.36435 19.5613 1.04805 18.861C0.96977 18.7087 0.910185 18.5694 0.869296 18.4432C0.837197 18.3075 0.818762 18.1713 0.813991 18.0347C0.809856 17.9163 0.842475 17.8057 0.911848 17.7029C0.980903 17.5911 1.07776 17.4919 1.20243 17.4055C1.32709 17.3191 1.47061 17.2502 1.63298 17.1989C1.80446 17.1474 1.98129 17.1184 2.16347 17.112C2.53694 17.099 2.83569 17.1661 3.05971 17.3133C3.28374 17.4605 3.51502 17.685 3.75356 17.9867C3.86796 18.1287 3.97955 18.3209 4.08834 18.5633C4.19681 18.7966 4.30136 19.0484 4.402 19.3184C4.50263 19.5885 4.60342 19.8632 4.70437 20.1424C4.805 20.4125 4.90029 20.6599 4.99022 20.8848C5.08895 21.1002 5.18184 21.2794 5.26892 21.4223C5.36478 21.5557 5.4537 21.621 5.53568 21.6182C5.60855 21.6156 5.66665 21.5817 5.70997 21.5163C5.76239 21.4507 5.82282 21.3528 5.89124 21.2227C6.33055 20.2224 6.81843 19.307 7.35488 18.4766C7.89101 17.6371 8.4451 16.92 9.01715 16.3255C9.58888 15.7218 10.1652 15.2503 10.7462 14.9108C11.3362 14.5709 11.9045 14.3915 12.4511 14.3724C12.6697 14.3648 12.8761 14.3986 13.0702 14.4739C13.2641 14.5401 13.4317 14.6391 13.5731 14.771C13.7236 14.9025 13.8432 15.0625 13.9319 15.251C14.0202 15.4303 14.068 15.6247 14.0754 15.8342ZM17.6612 24.1086C17.6558 23.9538 17.668 23.7801 17.6978 23.5875C17.7275 23.3949 17.7384 23.1848 17.7305 22.9571C17.7251 22.8022 17.6526 22.6862 17.5131 22.609C17.3827 22.5314 17.2338 22.4454 17.0663 22.351C16.8989 22.2565 16.7441 22.1342 16.6021 21.9841C16.4691 21.8337 16.3976 21.6128 16.3874 21.3213C16.3801 21.1118 16.4274 20.9004 16.5294 20.6871C16.6405 20.4734 16.8024 20.2762 17.0149 20.0955C17.5384 19.676 18.0814 19.2968 18.6442 18.9579C19.216 18.6187 19.7851 18.3298 20.3513 18.0912C20.9266 17.8522 21.4946 17.6636 22.0553 17.5255C22.6159 17.3873 23.1558 17.3092 23.675 17.2911C24.5495 17.2605 25.375 17.3959 26.1516 17.6971C26.937 17.9889 27.622 18.4073 28.2065 18.9523C28.7997 19.4879 29.2735 20.128 29.6279 20.8726C29.991 21.6078 30.1875 22.4035 30.2174 23.2597C30.2466 24.0978 30.0969 24.901 29.768 25.6695C29.4479 26.4285 29.0017 27.1007 28.4294 27.6862C27.857 28.2716 27.1757 28.7423 26.3856 29.0982C25.6049 29.4629 24.7727 29.6607 23.8892 29.6915C23.0238 29.7218 22.2171 29.604 21.4691 29.3383C20.7211 29.0726 20.0695 28.694 19.5142 28.2027C18.9587 27.7023 18.5183 27.1066 18.1932 26.4157C17.8678 25.7157 17.6905 24.9467 17.6612 24.1086ZM24.1039 27.2216C24.4865 27.2083 24.88 27.117 25.2845 26.9478C25.689 26.7787 26.0547 26.5424 26.3815 26.2392C26.7172 25.9265 26.9868 25.5523 27.1905 25.1165C27.4033 24.6804 27.5003 24.1937 27.4815 23.6563C27.4624 23.1097 27.3444 22.6031 27.1275 22.1364C26.9105 21.6698 26.6184 21.2696 26.251 20.9358C25.8925 20.5927 25.4683 20.3293 24.9786 20.1458C24.4979 19.9619 23.9797 19.8797 23.4241 19.8991C22.413 19.9344 21.6479 20.2256 21.129 20.7727C20.6097 21.3107 20.3689 22.1216 20.4068 23.2056C20.4275 23.7977 20.5332 24.3458 20.7241 24.8498C20.9238 25.3445 21.1896 25.773 21.5214 26.1353C21.853 26.4885 22.2365 26.7624 22.6719 26.957C23.1164 27.1512 23.5938 27.2394 24.1039 27.2216ZM33.4166 28.6885C33.3105 27.4792 33.1668 26.367 32.9854 25.3519C32.8129 24.3274 32.6358 23.4352 32.4542 22.6755C32.2817 21.9154 32.128 21.3006 31.9931 20.8311C31.8672 20.3612 31.8022 20.0671 31.7981 19.9487C31.7921 19.7756 31.8499 19.6048 31.9717 19.4364C32.1026 19.2677 32.2662 19.1206 32.4625 18.9952C32.6584 18.8607 32.869 18.753 33.0942 18.6722C33.3285 18.591 33.5413 18.5471 33.7326 18.5404C33.8874 18.535 34.0204 18.5578 34.1317 18.6086C34.252 18.6591 34.3371 18.7473 34.3871 18.8733C34.4381 19.0265 34.4848 19.1891 34.5273 19.3609C34.5786 19.5232 34.6311 19.722 34.6849 19.9573C34.7513 20.2924 34.8301 20.4584 34.9212 20.4552C35.0214 20.4517 35.13 20.2974 35.247 19.9924C35.4146 19.567 35.5983 19.214 35.7983 18.9334C35.9983 18.6528 36.214 18.431 36.4454 18.2679C36.6856 18.0953 36.9321 17.9727 37.185 17.9C37.4469 17.827 37.7191 17.7856 38.0014 17.7758C38.8577 17.7459 39.5936 18.0576 40.2092 18.711C40.834 19.3641 41.3371 20.3224 41.7187 21.5859C41.7693 21.73 41.8137 21.8242 41.8517 21.8685C41.8894 21.9037 41.931 21.9204 41.9766 21.9189C42.0221 21.9173 42.067 21.8975 42.1113 21.8594C42.1644 21.812 42.2114 21.7237 42.2525 21.5946C42.4505 20.9948 42.688 20.4849 42.9652 20.0649C43.2421 19.6357 43.5309 19.2881 43.8317 19.0223C44.1413 18.747 44.458 18.5444 44.7818 18.4145C45.1056 18.2847 45.4178 18.2145 45.7183 18.204C46.274 18.1846 46.7822 18.372 47.2428 18.7663C47.7123 19.1512 48.1348 19.7612 48.5106 20.5963C48.8951 21.4219 49.2375 22.477 49.5377 23.7616C49.8467 25.0367 50.1186 26.5548 50.3534 28.316C50.3705 28.8078 50.2322 29.1547 49.9383 29.3565C49.6447 29.5674 49.2383 29.6819 48.719 29.7C48.382 29.7118 48.1153 29.6481 47.9189 29.5091C47.7225 29.37 47.6066 29.1825 47.571 28.9466C47.4083 27.6846 47.237 26.5643 47.0569 25.5856C46.8855 24.5975 46.7061 23.7692 46.5186 23.1009C46.3308 22.4234 46.1305 21.9106 45.9177 21.5623C45.714 21.2138 45.4937 21.0436 45.2569 21.0519C45.1385 21.056 44.9912 21.1478 44.8151 21.3272C44.6481 21.5064 44.4725 21.8317 44.2883 22.3033C44.1038 22.7657 43.9162 23.4015 43.7256 24.2108C43.5347 25.0109 43.3606 26.0339 43.2035 27.2797C43.1609 27.6277 43.0016 27.8978 42.7256 28.0898C42.4587 28.2816 42.1248 28.3844 41.724 28.3984C41.2595 28.4146 40.9336 28.3531 40.7463 28.2137C40.5681 28.074 40.4639 27.8314 40.4336 27.4859C40.3762 26.8859 40.2916 26.2915 40.1798 25.7026C40.0768 25.1043 39.9522 24.5386 39.8059 24.0056C39.6593 23.4636 39.5006 22.9675 39.3298 22.5174C39.1588 22.0583 38.9808 21.6632 38.796 21.3322C38.6108 20.9921 38.4238 20.7296 38.2349 20.5447C38.0461 20.3598 37.8651 20.2703 37.692 20.2764C37.4643 20.2843 37.2467 20.4515 37.0392 20.778C36.8408 21.1041 36.6653 21.5617 36.5126 22.1507C36.369 22.7394 36.2614 23.4454 36.1898 24.2687C36.1183 25.092 36.1001 26.0092 36.1354 27.0203C36.1415 27.1934 36.1521 27.3663 36.1672 27.5391C36.1821 27.7027 36.1927 27.8756 36.199 28.0578C36.2086 28.3311 36.1708 28.5559 36.0858 28.7321C36.0098 28.908 35.8916 29.049 35.7312 29.1549C35.5798 29.2605 35.4 29.3352 35.1918 29.3789C34.9835 29.4227 34.7565 29.4489 34.5105 29.4574C34.2828 29.4654 34.1 29.4535 33.9621 29.4219C33.8245 29.3993 33.7181 29.3574 33.643 29.2962C33.5679 29.235 33.5148 29.1502 33.4837 29.0419C33.4528 28.9426 33.4305 28.8248 33.4166 28.6885ZM60.2502 13.2094C59.986 13.2186 59.7342 13.1909 59.4948 13.1263C59.2643 13.0523 59.06 12.95 58.8822 12.8194C58.7131 12.6794 58.5752 12.5155 58.4683 12.3277C58.3614 12.1399 58.304 11.9321 58.2961 11.7044C58.2827 11.3218 58.4222 11.0069 58.7145 10.7595C59.0159 10.5119 59.4217 10.3792 59.9318 10.3614C60.1687 10.3531 60.398 10.3907 60.6198 10.4741C60.8412 10.5485 61.0365 10.6557 61.2056 10.7957C61.3837 10.9354 61.5264 11.1037 61.6336 11.3006C61.7405 11.4884 61.7976 11.687 61.8049 11.8965C61.8186 12.2882 61.6836 12.603 61.4001 12.8409C61.1254 13.0694 60.742 13.1922 60.2502 13.2094ZM58.5238 17.4422C58.5126 17.1233 58.6402 16.859 58.9065 16.649C59.1816 16.4296 59.5468 16.312 60.0023 16.2961C60.8221 16.2675 61.2692 16.5346 61.3435 17.0974C61.3937 17.4879 61.4455 17.9284 61.4991 18.419C61.5619 18.9093 61.6211 19.4316 61.677 19.986C61.7416 20.531 61.7979 21.099 61.8459 21.6901C61.9027 22.2718 61.9548 22.8491 62.0022 23.4221C62.0492 23.9859 62.0911 24.5316 62.1277 25.0593C62.1644 25.587 62.1904 26.0694 62.2057 26.5067C62.2216 26.9621 62.0695 27.3094 61.7496 27.5486C61.4387 27.7875 60.9735 27.9177 60.3541 27.9394C60.0718 27.9492 59.8462 27.8887 59.6775 27.7578C59.5182 27.6357 59.434 27.4471 59.4251 27.192C59.3812 25.935 59.3083 24.761 59.2064 23.6702C59.1133 22.5699 59.0153 21.5929 58.9125 20.7392C58.8189 19.8852 58.7303 19.1769 58.6468 18.6144C58.5721 18.0424 58.5311 17.6517 58.5238 17.4422ZM71.6098 16.096C72.047 16.0807 72.4627 16.1027 72.857 16.1619C73.2509 16.2119 73.6087 16.2724 73.9304 16.3433C74.2517 16.405 74.5275 16.4683 74.7578 16.5332C74.9878 16.5891 75.1528 16.6152 75.253 16.6117C75.335 16.6088 75.411 16.5652 75.481 16.4806C75.5507 16.387 75.6385 16.2882 75.7443 16.1841C75.8501 16.0801 75.9926 15.984 76.172 15.8956C76.351 15.7982 76.5908 15.7442 76.8914 15.7337C77.2375 15.7216 77.514 15.8031 77.7207 15.9783C77.9272 16.1444 78.035 16.3595 78.0442 16.6237C78.1606 19.9576 78.1457 22.7945 77.9994 25.1343C77.8528 27.4651 77.5499 29.3681 77.0907 30.8434C76.6315 32.3186 76.008 33.3983 75.2202 34.0825C74.4324 34.7666 73.46 35.1289 72.3032 35.1693C71.7749 35.1878 71.2196 35.0886 70.6375 34.8718C70.0645 34.6547 69.5346 34.3677 69.0479 34.0107C68.5615 33.6629 68.1556 33.2712 67.8303 32.8357C67.5142 32.3999 67.3489 31.977 67.3346 31.5671C67.3298 31.4305 67.3971 31.2685 67.5365 31.0812C67.6759 30.894 67.8473 30.7101 68.0508 30.5297C68.2543 30.3494 68.4678 30.196 68.6914 30.0696C68.915 29.9432 69.1087 29.8772 69.2727 29.8715C69.4458 29.8654 69.5939 29.9287 69.7171 30.0612C69.8406 30.2028 69.9561 30.3766 70.0636 30.5826C70.1802 30.7883 70.2975 31.0122 70.4154 31.2543C70.5336 31.5055 70.6784 31.733 70.8496 31.9368C71.0209 32.1406 71.2274 32.3067 71.469 32.4351C71.7109 32.5725 72.0095 32.6351 72.3647 32.6227C74.3505 32.5533 75.4105 29.4793 75.5448 23.4006C75.5353 23.1273 75.4531 22.9934 75.2982 22.9988C75.1707 23.0032 75.0727 23.0705 75.0043 23.2006C74.1885 24.3873 73.2169 25.2922 72.0895 25.9153C70.9709 26.5289 69.7147 26.8601 68.3211 26.9087C67.6743 26.9313 67.0743 26.8565 66.5211 26.6843C65.9676 26.503 65.4844 26.2463 65.0715 25.9141C64.6674 25.5725 64.3476 25.1642 64.1121 24.689C63.8763 24.2048 63.7483 23.6712 63.7279 23.0882C63.7079 22.5143 63.7883 21.9461 63.9693 21.3834C64.1591 20.8113 64.4276 20.273 64.7748 19.7684C65.1308 19.2543 65.5565 18.7789 66.052 18.3421C66.5474 17.9053 67.0905 17.526 67.6812 17.2044C68.2716 16.8737 68.8964 16.6148 69.5556 16.4276C70.2237 16.231 70.9084 16.1205 71.6098 16.096ZM68.6568 24.3798C69.9048 24.3363 71.0343 23.9047 72.0454 23.085C73.0561 22.2563 73.9042 21.0775 74.5895 19.5488C74.6058 19.4935 74.6181 19.452 74.6262 19.4244C74.634 19.3876 74.6373 19.351 74.6361 19.3146C74.6329 19.2235 74.5339 19.1312 74.3391 19.0377C74.1443 18.9441 73.8908 18.8664 73.5785 18.8043C73.2663 18.7422 72.909 18.6954 72.5066 18.6639C72.113 18.6229 71.7158 18.6094 71.315 18.6234C70.6682 18.646 70.0481 18.7771 69.4545 19.0167C68.861 19.2563 68.3383 19.5664 67.8864 19.947C67.4346 20.3276 67.0756 20.7551 66.8094 21.2295C66.5433 21.7039 66.419 22.1916 66.4364 22.6926C66.4552 23.2301 66.666 23.6514 67.0688 23.9565C67.4808 24.2613 68.0101 24.4024 68.6568 24.3798ZM88.8493 14.208C89.3503 14.1905 89.8358 14.2511 90.3058 14.3897C90.7757 14.5283 91.1931 14.7281 91.5579 14.989C91.9227 15.2498 92.2165 15.5679 92.4394 15.9431C92.6714 16.3181 92.7955 16.7378 92.8117 17.2024C92.8184 17.3937 92.7793 17.582 92.6946 17.7674C92.6187 17.9433 92.5102 18.1021 92.3693 18.2439C92.228 18.3765 92.0631 18.4871 91.8747 18.5758C91.695 18.655 91.505 18.6981 91.3046 18.7051C91.2864 18.7058 91.2683 18.711 91.2504 18.7207C91.2413 18.721 91.2277 18.7215 91.2095 18.7221C91.1916 18.7319 91.1735 18.7371 91.1553 18.7377L91.2481 19.8289C91.33 21.1302 91.5455 22.0757 91.8944 22.6655C92.2524 23.2549 92.7001 23.5402 93.2376 23.5215C93.4289 23.5148 93.5967 23.4907 93.7412 23.4492C93.8948 23.4073 94.0345 23.3614 94.1605 23.3114C94.2952 23.252 94.4211 23.202 94.5383 23.1614C94.6554 23.1208 94.7732 23.0985 94.8916 23.0943C95.1011 23.087 95.2865 23.1718 95.4477 23.3485C95.618 23.525 95.7077 23.7407 95.7166 23.9958C95.7255 24.2508 95.6342 24.5094 95.4427 24.7714C95.2603 25.0332 95.0134 25.2744 94.7019 25.495C94.39 25.7065 94.036 25.8831 93.6396 26.0246C93.2433 26.1661 92.8401 26.244 92.4302 26.2583C91.7197 26.2832 91.0856 26.0135 90.5278 25.4492C89.9697 24.8759 89.5569 24.0239 89.2894 22.8933C89.2284 22.713 89.1523 22.6244 89.0612 22.6276C88.9519 22.6314 88.8582 22.6894 88.78 22.8016C87.918 23.9717 86.9869 24.8615 85.9867 25.471C84.9862 26.0714 83.9896 26.3889 82.9967 26.4236C82.5321 26.4398 82.1107 26.3861 81.7325 26.2626C81.3542 26.139 81.0287 25.9588 80.756 25.7221C80.492 25.4759 80.281 25.1778 80.1228 24.8276C79.9735 24.468 79.891 24.0651 79.8754 23.6187C79.8534 22.9902 79.967 22.325 80.2161 21.6232C80.4743 20.921 80.8285 20.2247 81.2786 19.5341C81.7287 18.8435 82.2529 18.1822 82.851 17.5502C83.4582 16.918 84.0953 16.3577 84.7622 15.8692C85.4383 15.3805 86.1268 14.9871 86.8278 14.689C87.5287 14.3909 88.2026 14.2306 88.8493 14.208ZM88.5635 18.9513C88.7166 18.6359 88.8592 18.4075 88.991 18.2661C89.1226 18.1156 89.3151 18.0131 89.5685 17.9586C89.768 17.9243 89.8659 17.857 89.8624 17.7568C89.8599 17.684 89.8299 17.6075 89.7724 17.5274C89.591 17.2966 89.4017 17.098 89.2043 16.9317C89.0067 16.7562 88.7485 16.674 88.4296 16.6851C88.0835 16.6972 87.6999 16.8109 87.2787 17.0263C86.8576 17.2416 86.4298 17.5256 85.9952 17.8782C85.5694 18.2214 85.1499 18.6145 84.7368 19.0576C84.3324 19.4913 83.974 19.937 83.6617 20.3948C83.3493 20.8526 83.1006 21.3036 82.9155 21.7478C82.7303 22.192 82.6438 22.5872 82.6559 22.9334C82.6667 23.2431 82.7571 23.4816 82.9271 23.649C83.1063 23.816 83.3416 23.8944 83.633 23.8842C84.38 23.8581 85.1814 23.4334 86.0373 22.6101C86.8932 21.7868 87.7353 20.5672 88.5635 18.9513ZM83.9425 9.63233C83.8787 9.63455 83.8052 9.61888 83.722 9.58531C83.6475 9.54231 83.5726 9.48564 83.4971 9.41531C83.4305 9.33556 83.3727 9.24638 83.3236 9.14777C83.2743 9.04005 83.2474 8.92243 83.2429 8.7949C83.2356 8.58539 83.3107 8.38669 83.4683 8.19878C83.6256 8.00177 83.8291 7.82138 84.0787 7.65762C84.3372 7.48443 84.6237 7.33306 84.9384 7.20351C85.2619 7.06453 85.5814 6.94393 85.8971 6.84171C86.2127 6.73948 86.5064 6.66083 86.778 6.60574C87.0588 6.55033 87.2858 6.51961 87.4588 6.51357C87.978 6.49543 88.4684 6.56495 88.9299 6.72212C89.3914 6.87929 89.7914 7.10244 90.1298 7.39159C90.4773 7.68042 90.7539 8.02645 90.9595 8.42967C91.1648 8.82379 91.2755 9.25313 91.2917 9.71769C91.3076 10.1731 91.218 10.6095 91.0228 11.0267C90.8364 11.4345 90.5755 11.7993 90.2402 12.1211C89.9049 12.4429 89.5081 12.703 89.0499 12.9014C88.5914 13.0907 88.098 13.1945 87.5697 13.213C87.0596 13.2308 86.5876 13.1652 86.1537 13.0162C85.7199 12.8672 85.3386 12.6571 85.0099 12.3858C84.6904 12.1142 84.4328 11.7904 84.2373 11.4141C84.0508 11.0376 83.95 10.6307 83.9347 10.1935L83.9425 9.63233ZM87.6857 11.4442C87.877 11.4375 88.0763 11.3986 88.2836 11.3276C88.4997 11.2471 88.6922 11.1446 88.8611 11.0201C89.0297 10.8865 89.1657 10.7313 89.2689 10.5544C89.381 10.3681 89.4332 10.1656 89.4256 9.94702C89.4173 9.71019 89.355 9.49348 89.2387 9.2969C89.1312 9.09089 88.9838 8.91819 88.7965 8.77881C88.618 8.63 88.3998 8.51906 88.1419 8.44598C87.8928 8.36348 87.627 8.32716 87.3447 8.33702C86.8437 8.35452 86.4604 8.47734 86.1947 8.7055C85.9379 8.92424 85.8174 9.26133 85.8333 9.71678C85.8419 9.96272 85.8956 10.1934 85.9943 10.4088C86.093 10.6243 86.2227 10.8113 86.3832 10.9698C86.5438 11.1284 86.735 11.2494 86.9568 11.3329C87.1786 11.4163 87.4216 11.4534 87.6857 11.4442ZM96.082 14.872C96.0772 14.7354 96.1318 14.6012 96.2458 14.4696C96.3594 14.3288 96.5101 14.205 96.6979 14.0981C96.8854 13.9821 97.0964 13.8881 97.331 13.8161C97.5744 13.7346 97.8191 13.6896 98.065 13.681C98.2017 13.6762 98.3168 13.7087 98.4104 13.7784C98.5132 13.8477 98.6047 13.9859 98.6848 14.1929C98.7647 14.3907 98.8385 14.6754 98.9062 15.047C98.9827 15.4091 99.0586 15.8853 99.1339 16.4755C99.1767 16.6564 99.2135 16.7964 99.2444 16.8957C99.284 16.9855 99.3311 17.0295 99.3858 17.0276C99.4677 17.0247 99.5448 16.8806 99.6169 16.5954C100.215 14.6502 101.142 13.6556 102.399 13.6117C102.982 13.5914 103.517 13.7551 104.003 14.1029C104.499 14.4504 104.966 15.0315 105.405 15.8461C105.852 16.6513 106.287 17.7214 106.707 19.0565C107.127 20.3825 107.559 22.0227 108.001 23.9772C108.022 24.0768 108.039 24.1674 108.051 24.2491C108.063 24.3307 108.071 24.408 108.073 24.4809C108.08 24.6904 108.037 24.8743 107.942 25.0327C107.856 25.1816 107.737 25.3088 107.586 25.4145C107.434 25.511 107.263 25.5853 107.074 25.6375C106.884 25.6989 106.694 25.7329 106.503 25.7396C106.12 25.7529 105.841 25.7216 105.665 25.6457C105.498 25.5694 105.388 25.4182 105.334 25.1921C105.022 23.8168 104.719 22.5961 104.427 21.5301C104.143 20.4639 103.866 19.5707 103.595 18.8505C103.332 18.121 103.076 17.569 102.825 17.1947C102.575 16.8204 102.332 16.6374 102.095 16.6457C101.858 16.6539 101.64 16.812 101.441 17.1199C101.251 17.4184 101.071 17.8853 100.902 18.5205C100.732 19.1557 100.573 19.9592 100.425 20.9312C100.286 21.9028 100.157 23.0609 100.04 24.4057C100.007 24.7716 99.8353 25.0695 99.5241 25.2992C99.213 25.529 98.8114 25.6525 98.3195 25.6696C97.9916 25.6811 97.7387 25.6215 97.5609 25.4909C97.383 25.3603 97.2809 25.1769 97.2544 24.9407C97.1062 23.0489 96.9608 21.4945 96.8179 20.2774C96.6839 19.0508 96.563 18.0701 96.4553 17.3351C96.3472 16.591 96.2595 16.0378 96.1921 15.6753C96.1247 15.3128 96.088 15.0451 96.082 14.872ZM116.399 14.5319C116.836 14.5166 117.252 14.5386 117.646 14.5978C118.04 14.6479 118.398 14.7083 118.719 14.7792C119.041 14.8409 119.317 14.9043 119.547 14.9692C119.777 15.025 119.942 15.0511 120.042 15.0476C120.124 15.0448 120.2 15.0011 120.27 14.9166C120.34 14.8229 120.428 14.7241 120.533 14.6201C120.639 14.5161 120.782 14.4199 120.961 14.3315C121.14 14.2341 121.38 14.1801 121.68 14.1696C122.027 14.1575 122.303 14.2391 122.51 14.4143C122.716 14.5803 122.824 14.7954 122.833 15.0596C122.95 18.3935 122.935 21.2304 122.789 23.5703C122.642 25.901 122.339 27.804 121.88 29.2793C121.421 30.7545 120.797 31.8343 120.009 32.5184C119.221 33.2026 118.249 33.5649 117.092 33.6053C116.564 33.6237 116.009 33.5245 115.427 33.3077C114.854 33.0906 114.324 32.8036 113.837 32.4467C113.351 32.0989 112.945 31.7072 112.619 31.2716C112.303 30.8358 112.138 30.4129 112.124 30.003C112.119 29.8664 112.186 29.7044 112.326 29.5172C112.465 29.3299 112.636 29.1461 112.84 28.9657C113.043 28.7853 113.257 28.6319 113.48 28.5055C113.704 28.3792 113.898 28.3131 114.062 28.3074C114.235 28.3014 114.383 28.3646 114.506 28.4971C114.63 28.6387 114.745 28.8125 114.853 29.0185C114.969 29.2242 115.087 29.4481 115.205 29.6902C115.323 29.9415 115.467 30.169 115.639 30.3728C115.81 30.5765 116.016 30.7426 116.258 30.871C116.5 31.0085 116.799 31.071 117.154 31.0586C119.14 30.9892 120.2 27.9152 120.334 21.8365C120.324 21.5632 120.242 21.4293 120.087 21.4347C119.96 21.4392 119.862 21.5064 119.793 21.6365C118.978 22.8233 118.006 23.7282 116.879 24.3512C115.76 24.9648 114.504 25.296 113.11 25.3447C112.463 25.3672 111.863 25.2924 111.31 25.1202C110.757 24.9389 110.273 24.6822 109.861 24.35C109.456 24.0085 109.137 23.6001 108.901 23.125C108.665 22.6407 108.537 22.1071 108.517 21.5241C108.497 20.9502 108.577 20.382 108.758 19.8193C108.948 19.2473 109.217 18.7089 109.564 18.2043C109.92 17.6903 110.346 17.2148 110.841 16.778C111.337 16.3412 111.88 15.962 112.47 15.6404C113.061 15.3097 113.686 15.0507 114.345 14.8636C115.013 14.6669 115.697 14.5564 116.399 14.5319ZM113.446 22.8158C114.694 22.7722 115.823 22.3406 116.834 21.521C117.845 20.6922 118.693 19.5135 119.379 17.9847C119.395 17.9294 119.407 17.8879 119.415 17.8603C119.423 17.8235 119.426 17.7869 119.425 17.7505C119.422 17.6594 119.323 17.5671 119.128 17.4736C118.933 17.3801 118.68 17.3023 118.368 17.2402C118.055 17.1782 117.698 17.1314 117.296 17.0998C116.902 17.0588 116.505 17.0454 116.104 17.0593C115.457 17.0819 114.837 17.213 114.244 17.4526C113.65 17.6923 113.127 18.0023 112.676 18.3829C112.224 18.7635 111.865 19.191 111.599 19.6654C111.332 20.1399 111.208 20.6276 111.226 21.1286C111.244 21.666 111.455 22.0873 111.858 22.3924C112.27 22.6972 112.799 22.8384 113.446 22.8158ZM143.638 21.2553C143.895 21.0183 144.15 20.8954 144.405 20.8865C144.551 20.8814 144.684 20.9132 144.805 20.982C144.926 21.0507 145.062 21.1599 145.214 21.3097C145.357 21.5144 145.459 21.6842 145.519 21.8189C145.587 21.9442 145.623 22.0706 145.628 22.1981C145.637 22.4714 145.51 22.7358 145.245 22.9913C144.82 23.3709 144.358 23.7154 143.858 24.0247C143.358 24.3249 142.834 24.5849 142.285 24.8047C141.736 25.0245 141.168 25.1948 140.579 25.3157C139.991 25.4457 139.405 25.5208 138.822 25.5412C138.084 25.567 137.389 25.4955 136.735 25.3268C136.082 25.1672 135.495 24.9232 134.972 24.5949C134.459 24.2663 134.021 23.8666 133.658 23.3959C133.295 22.9161 133.03 22.3736 132.863 21.7684C132.772 21.5162 132.689 21.3549 132.613 21.2846C132.547 21.2048 132.436 21.1677 132.281 21.1731C131.944 21.1848 131.681 21.1119 131.494 20.9543C131.306 20.7967 131.206 20.5631 131.195 20.2534C131.191 20.1258 131.197 20.0435 131.214 20.0065L131.232 19.7322C131.266 19.4027 131.344 19.1629 131.467 19.0127C131.598 18.8622 131.805 18.782 132.088 18.7721L132.293 18.7649C132.675 18.7516 132.938 18.5646 133.08 18.2039C133.341 17.5655 133.68 16.9791 134.099 16.4446C134.519 15.9101 134.995 15.4512 135.529 15.0677C136.062 14.6752 136.635 14.3679 137.248 14.1458C137.869 13.9144 138.503 13.7874 139.15 13.7648C139.824 13.7412 140.456 13.8195 141.046 13.9995C141.644 14.1701 142.169 14.4209 142.618 14.7518C143.067 15.0826 143.423 15.4761 143.685 15.932C143.956 16.3877 144.101 16.8842 144.12 17.4217C144.133 17.7951 144.072 18.1393 143.937 18.4541C143.802 18.7689 143.602 19.0495 143.337 19.2958C143.072 19.5331 142.746 19.7314 142.36 19.8909C141.982 20.05 141.548 20.1609 141.058 20.2236L136.333 20.8674C136.151 20.8738 136.002 20.9246 135.887 21.0198C135.781 21.1147 135.731 21.2396 135.736 21.3944C135.744 21.6313 135.839 21.856 136.02 22.0685C136.209 22.2808 136.453 22.4684 136.751 22.6313C137.057 22.7847 137.403 22.9049 137.789 22.9917C138.184 23.0782 138.587 23.1143 138.997 23.1C139.389 23.0863 139.788 23.0359 140.195 22.9487C140.612 22.8521 141.017 22.7239 141.413 22.5642C141.818 22.4041 142.208 22.2172 142.584 22.0035C142.959 21.7806 143.311 21.5312 143.638 21.2553ZM140.468 17.8365C140.604 17.8044 140.72 17.7365 140.817 17.6328C140.913 17.52 140.959 17.3861 140.953 17.2313C140.949 17.0947 140.894 16.9689 140.79 16.854C140.685 16.739 140.545 16.6391 140.369 16.554C140.192 16.4599 139.989 16.3894 139.76 16.3427C139.53 16.296 139.288 16.2771 139.032 16.286C138.659 16.2991 138.278 16.3671 137.89 16.4901C137.503 16.6131 137.152 16.7712 136.84 16.9645C136.527 17.1487 136.274 17.3536 136.082 17.5793C135.889 17.7958 135.796 18.0088 135.803 18.2183C135.81 18.4278 135.942 18.5281 136.197 18.5192C136.351 18.5138 136.601 18.4868 136.946 18.4383C137.291 18.3898 137.672 18.3354 138.09 18.2752C138.507 18.2059 138.928 18.1319 139.354 18.0532C139.78 17.9745 140.151 17.9023 140.468 17.8365ZM146.418 13.1142C146.414 12.9776 146.468 12.8434 146.582 12.7118C146.696 12.571 146.847 12.4472 147.034 12.3403C147.222 12.2243 147.433 12.1303 147.668 12.0583C147.911 11.9768 148.156 11.9318 148.402 11.9232C148.538 11.9184 148.653 11.9509 148.747 12.0206C148.85 12.0899 148.941 12.2281 149.021 12.4351C149.101 12.6329 149.175 12.9176 149.243 13.2892C149.319 13.6513 149.395 14.1275 149.47 14.7177C149.513 14.8986 149.55 15.0387 149.581 15.1379C149.62 15.2277 149.668 15.2717 149.722 15.2698C149.804 15.2669 149.881 15.1228 149.953 14.8376C150.551 12.8924 151.479 11.8978 152.736 11.8539C153.319 11.8336 153.853 11.9973 154.34 12.3451C154.835 12.6926 155.302 13.2737 155.741 14.0883C156.189 14.8935 156.623 15.9636 157.044 17.2987C157.464 18.6247 157.895 20.2649 158.337 22.2194C158.359 22.319 158.376 22.4096 158.388 22.4913C158.4 22.5729 158.407 22.6502 158.41 22.7231C158.417 22.9326 158.373 23.1165 158.278 23.2749C158.192 23.4238 158.074 23.5511 157.922 23.6567C157.771 23.7532 157.6 23.8275 157.41 23.8798C157.221 23.9411 157.031 23.9751 156.839 23.9818C156.457 23.9951 156.177 23.9638 156.001 23.8879C155.835 23.8117 155.724 23.6605 155.671 23.4343C155.358 22.059 155.056 20.8383 154.763 19.7724C154.48 18.7061 154.202 17.8129 153.931 17.0927C153.668 16.3632 153.412 15.8112 153.162 15.4369C152.912 15.0626 152.668 14.8796 152.431 14.8879C152.194 14.8962 151.977 15.0542 151.778 15.3622C151.587 15.6606 151.408 16.1275 151.238 16.7627C151.069 17.3979 150.91 18.2015 150.761 19.1734C150.622 20.145 150.494 21.3032 150.377 22.6479C150.344 23.0139 150.172 23.3117 149.861 23.5415C149.549 23.7712 149.148 23.8947 148.656 23.9119C148.328 23.9233 148.075 23.8637 147.897 23.7331C147.72 23.6025 147.617 23.4192 147.591 23.183C147.443 21.2911 147.297 19.7367 147.154 18.5196C147.02 17.293 146.9 16.3123 146.792 15.5773C146.684 14.8332 146.596 14.28 146.529 13.9175C146.461 13.5551 146.425 13.2873 146.418 13.1142ZM160.69 23.3822C160.662 22.5897 160.609 21.7297 160.531 20.8022C160.453 19.8746 160.361 18.9385 160.255 17.9937C160.158 17.0394 160.053 16.1083 159.939 15.2003C159.834 14.2919 159.732 13.461 159.633 12.7075C159.543 11.9537 159.465 11.3043 159.401 10.7593C159.336 10.2144 159.3 9.83258 159.292 9.61397C159.28 9.24961 159.407 8.96701 159.673 8.76618C159.94 8.56534 160.333 8.45586 160.852 8.43773C161.08 8.42978 161.272 8.44587 161.428 8.48601C161.594 8.52583 161.729 8.59864 161.833 8.70445C161.937 8.81026 162.019 8.9533 162.08 9.13357C162.15 9.30442 162.203 9.52144 162.24 9.78465C162.289 10.1477 162.334 10.5383 162.376 10.9564C162.418 11.3653 162.462 11.8335 162.507 12.3609C162.562 12.8879 162.62 13.4833 162.679 14.147C162.739 14.8107 162.811 15.5742 162.896 16.4377C162.901 16.5652 162.926 16.6555 162.974 16.7086C163.021 16.7616 163.072 16.7872 163.127 16.7853C163.227 16.7818 163.316 16.6966 163.392 16.5298C164.111 14.9269 164.88 13.6962 165.698 12.8377C166.516 11.9701 167.326 11.5223 168.127 11.4943C168.601 11.4777 168.979 11.6059 169.262 11.8787C169.545 12.1516 169.695 12.5248 169.712 12.9985C169.73 13.5086 169.632 13.9862 169.42 14.4314C169.216 14.8672 168.953 15.2822 168.629 15.6766C168.314 16.0706 167.967 16.443 167.587 16.7937C167.216 17.1441 166.868 17.4846 166.542 17.8152C166.225 18.1454 165.958 18.4694 165.742 18.7871C165.533 19.0953 165.435 19.4043 165.446 19.714C165.455 19.9964 165.63 20.2821 165.968 20.5713C166.315 20.851 166.808 21.1256 167.447 21.3952C168.085 21.6556 168.865 21.9065 169.785 22.148C170.705 22.3803 171.748 22.5993 172.913 22.8048C173.097 22.844 173.227 22.9124 173.304 23.0101C173.389 23.1074 173.435 23.2381 173.44 23.402C173.447 23.6024 173.409 23.809 173.325 24.0217C173.242 24.2435 173.135 24.4433 173.004 24.6211C172.874 24.8081 172.724 24.9592 172.555 25.0746C172.395 25.1987 172.238 25.2635 172.083 25.2689C171.773 25.2797 171.403 25.2516 170.972 25.1846C170.541 25.1176 170.072 25.0199 169.566 24.8917C169.07 24.7722 168.554 24.6261 168.019 24.4532C167.484 24.2895 166.962 24.1071 166.454 23.9059C165.955 23.7136 165.478 23.5114 165.024 23.2992C164.578 23.0777 164.192 22.8586 163.865 22.642C163.763 22.5909 163.679 22.5482 163.614 22.514C163.558 22.4794 163.508 22.463 163.462 22.4646C163.408 22.4665 163.376 22.4903 163.369 22.5362C163.361 22.573 163.359 22.6551 163.364 22.7826C163.375 23.1014 163.357 23.362 163.309 23.5643C163.271 23.7663 163.194 23.924 163.079 24.0375C162.965 24.16 162.804 24.2477 162.596 24.3006C162.388 24.3534 162.129 24.3853 161.82 24.3961C161.41 24.4104 161.12 24.343 160.951 24.1939C160.79 24.0444 160.703 23.7739 160.69 23.3822ZM183.891 19.8496C184.147 19.6127 184.403 19.4897 184.658 19.4808C184.804 19.4757 184.937 19.5076 185.058 19.5763C185.179 19.645 185.315 19.7543 185.466 19.904C185.61 20.1088 185.712 20.2785 185.771 20.4132C185.84 20.5385 185.876 20.665 185.88 20.7925C185.89 21.0658 185.762 21.3301 185.498 21.5856C185.073 21.9652 184.611 22.3097 184.111 22.619C183.611 22.9192 183.086 23.1792 182.538 23.399C181.989 23.6188 181.42 23.7891 180.832 23.91C180.244 24.04 179.658 24.1152 179.075 24.1355C178.337 24.1613 177.641 24.0898 176.988 23.9211C176.335 23.7615 175.747 23.5176 175.225 23.1892C174.712 22.8606 174.274 22.4609 173.911 21.9902C173.548 21.5104 173.282 20.9679 173.115 20.3627C173.025 20.1105 172.941 19.9493 172.866 19.8789C172.799 19.7992 172.689 19.762 172.534 19.7674C172.197 19.7792 171.934 19.7063 171.746 19.5487C171.558 19.3911 171.459 19.1574 171.448 18.8477C171.444 18.7202 171.45 18.6379 171.467 18.6008L171.485 18.3266C171.519 17.9971 171.597 17.7572 171.72 17.607C171.851 17.4565 172.058 17.3763 172.34 17.3664L172.545 17.3593C172.928 17.3459 173.191 17.1589 173.333 16.7983C173.593 16.1599 173.933 15.5734 174.352 15.039C174.771 14.5045 175.248 14.0455 175.782 13.6621C176.315 13.2695 176.888 12.9622 177.501 12.7402C178.122 12.5087 178.756 12.3817 179.402 12.3591C180.077 12.3356 180.709 12.4138 181.299 12.5939C181.897 12.7645 182.421 13.0152 182.871 13.3461C183.32 13.677 183.676 14.0704 183.938 14.5264C184.209 14.982 184.354 15.4786 184.373 16.016C184.386 16.3895 184.325 16.7336 184.19 17.0484C184.055 17.3632 183.855 17.6438 183.59 17.8902C183.325 18.1274 182.999 18.3258 182.612 18.4852C182.235 18.6443 181.801 18.7552 181.311 18.8179L176.586 19.4617C176.404 19.4681 176.255 19.5189 176.14 19.6141C176.034 19.709 175.983 19.8339 175.989 19.9888C175.997 20.2256 176.092 20.4503 176.272 20.6629C176.462 20.8751 176.706 21.0627 177.003 21.2256C177.31 21.3791 177.656 21.4992 178.042 21.5861C178.437 21.6726 178.84 21.7087 179.25 21.6944C179.641 21.6807 180.041 21.6303 180.448 21.5431C180.864 21.4465 181.27 21.3183 181.666 21.1585C182.071 20.9985 182.461 20.8116 182.837 20.5978C183.212 20.3749 183.563 20.1255 183.891 19.8496ZM180.721 16.4308C180.857 16.3987 180.973 16.3308 181.07 16.2271C181.166 16.1143 181.212 15.9805 181.206 15.8256C181.201 15.689 181.147 15.5632 181.043 15.4483C180.938 15.3334 180.798 15.2334 180.622 15.1484C180.445 15.0542 180.242 14.9838 180.012 14.9371C179.783 14.8904 179.54 14.8715 179.285 14.8804C178.912 14.8934 178.531 14.9614 178.143 15.0844C177.755 15.2074 177.405 15.3656 177.093 15.5589C176.78 15.7431 176.527 15.948 176.334 16.1736C176.141 16.3901 176.049 16.6031 176.056 16.8126C176.063 17.0221 176.194 17.1224 176.449 17.1135C176.604 17.1081 176.854 17.0811 177.199 17.0326C177.544 16.9841 177.925 16.9297 178.342 16.8696C178.76 16.8003 179.181 16.7263 179.607 16.6476C180.033 16.5689 180.404 16.4966 180.721 16.4308ZM185.543 7.20614C185.526 6.73247 185.651 6.39067 185.917 6.18073C186.184 5.97078 186.631 5.85484 187.26 5.83289C187.478 5.82526 187.67 5.84135 187.836 5.88117C188.001 5.92099 188.141 5.99364 188.254 6.09913C188.367 6.19552 188.458 6.33369 188.528 6.51364C188.607 6.68417 188.674 6.90527 188.729 7.17695C188.876 7.98352 189.024 8.83108 189.174 9.71963C189.332 10.5988 189.481 11.4782 189.622 12.3579C189.77 13.2283 189.91 14.0807 190.039 14.9152C190.168 15.7407 190.282 16.5119 190.38 17.229C190.487 17.9366 190.568 18.5676 190.624 19.122C190.688 19.667 190.726 20.0988 190.737 20.4177C190.749 20.7456 190.727 21.0245 190.671 21.2545C190.624 21.4841 190.53 21.6698 190.389 21.8115C190.258 21.9529 190.079 22.0595 189.853 22.1312C189.637 22.1935 189.364 22.2304 189.036 22.2418C188.718 22.2529 188.46 22.1799 188.263 22.0226C188.075 21.865 187.975 21.6177 187.963 21.2806C187.951 20.9345 187.908 20.4754 187.833 19.9035C187.758 19.3224 187.663 18.6782 187.547 17.9709C187.431 17.2636 187.3 16.5112 187.153 15.7137C187.016 14.9159 186.87 14.1276 186.715 13.3487C186.569 12.5694 186.424 11.8221 186.281 11.1066C186.146 10.3817 186.024 9.74299 185.913 9.19052C185.802 8.62894 185.713 8.17148 185.646 7.81814C185.579 7.45569 185.544 7.25169 185.543 7.20614ZM193.72 6.70172C193.703 6.21894 193.828 5.87713 194.094 5.6763C194.36 5.46636 194.808 5.35041 195.436 5.32847C195.664 5.32051 195.856 5.33661 196.013 5.37674C196.178 5.40745 196.317 5.47556 196.43 5.58105C196.552 5.68622 196.649 5.82878 196.719 6.00874C196.798 6.17926 196.865 6.40037 196.92 6.67205C197.059 7.51537 197.208 8.3857 197.367 9.28304C197.535 10.1801 197.708 11.0815 197.885 11.9873C197.954 12.3953 198.175 12.5928 198.549 12.5797C198.649 12.5762 198.813 12.5614 199.04 12.5352C199.276 12.4996 199.552 12.4626 199.87 12.4241C200.188 12.3766 200.528 12.3282 200.891 12.279C201.263 12.2296 201.631 12.1848 201.995 12.1448C202.367 12.0953 202.717 12.0557 203.044 12.026C203.38 11.9869 203.676 11.9629 203.931 11.954C204.131 11.947 204.292 11.9825 204.413 12.0603C204.534 12.129 204.629 12.2261 204.697 12.3514C204.774 12.4672 204.824 12.6023 204.848 12.7565C204.88 12.9013 204.899 13.0511 204.905 13.206C204.909 13.3426 204.887 13.4847 204.837 13.6324C204.797 13.7797 204.733 13.9142 204.646 14.0358C204.568 14.148 204.467 14.2427 204.342 14.32C204.217 14.3974 204.072 14.4389 203.908 14.4446C203.116 14.4723 202.315 14.5276 201.506 14.6106C200.706 14.6841 199.907 14.7759 199.108 14.8858C198.7 14.9548 198.502 15.1669 198.515 15.5222C198.516 15.5495 198.521 15.5858 198.532 15.631C198.543 15.6671 198.548 15.6988 198.549 15.7262C198.686 16.5148 198.812 17.2537 198.928 17.9428C199.052 18.6316 199.156 19.2482 199.238 19.7925C199.33 20.3274 199.4 20.7764 199.45 21.1394C199.508 21.4931 199.539 21.7291 199.543 21.8476C199.554 22.1755 199.532 22.4499 199.476 22.6707C199.42 22.9007 199.322 23.0865 199.181 23.2282C199.04 23.3791 198.848 23.4861 198.604 23.5493C198.369 23.6214 198.069 23.6638 197.705 23.6765C197.359 23.6886 197.101 23.6155 196.931 23.4573C196.762 23.299 196.662 23.0517 196.632 22.7153C196.54 21.6424 196.415 20.566 196.259 19.4861C196.103 18.3972 195.928 17.3134 195.735 16.2348C195.639 15.846 195.428 15.6573 195.1 15.6688C195.072 15.6697 195.041 15.6754 195.005 15.6858C194.968 15.6962 194.937 15.7018 194.909 15.7028C194.349 15.85 193.821 15.9962 193.324 16.1412C192.828 16.2862 192.363 16.4392 191.931 16.6002C191.688 16.6908 191.472 16.7577 191.281 16.8008C191.091 16.8348 190.919 16.8545 190.764 16.8599C190.554 16.8672 190.396 16.7815 190.29 16.6028C190.183 16.4151 190.124 16.18 190.114 15.8976C190.111 15.7974 190.116 15.6832 190.13 15.555C190.143 15.4178 190.175 15.2844 190.225 15.155C190.266 15.0168 190.335 14.8912 190.431 14.7784C190.518 14.6568 190.642 14.5567 190.804 14.4781C191.181 14.3099 191.685 14.1327 192.317 13.9465C192.949 13.7511 193.663 13.5666 194.459 13.3929C194.64 13.341 194.779 13.2632 194.875 13.1595C194.981 13.0463 195.03 12.885 195.023 12.6755C195.021 12.63 195.019 12.5844 195.018 12.5389C195.016 12.4842 195.005 12.4299 194.985 12.3759C194.81 11.5429 194.642 10.7872 194.482 10.1088C194.33 9.42101 194.195 8.8329 194.078 8.34451C193.97 7.8558 193.883 7.47121 193.819 7.19074C193.754 6.91027 193.721 6.74726 193.72 6.70172Z" fill="black" fill-opacity="0.5"/>
<path d="M133 31.2995C158.183 31.2488 184.449 30.5485 209.723 28.4294" stroke="black" stroke-opacity="0.5" stroke-width="2.5" stroke-linecap="round"/>
</svg>
