<svg width="304" height="41" viewBox="0 0 304 41" fill="none" xmlns="http://www.w3.org/2000/svg">
<path d="M4.71294 24.1605C4.18852 23.4701 3.69159 22.8203 3.22213 22.2114C2.76272 21.5916 2.357 21.0169 2.00497 20.4872C1.65257 19.947 1.37468 19.4512 1.1713 18.9997C0.957507 18.5486 0.844068 18.1356 0.830981 17.7608C0.824437 17.5735 0.900631 17.3675 1.05956 17.1431C1.20772 16.9086 1.38783 16.6939 1.59991 16.4989C1.81162 16.2934 2.0298 16.1243 2.25447 15.9913C2.48918 15.8476 2.68461 15.7731 2.84077 15.7676C3.21554 15.7545 3.54644 15.9775 3.83347 16.4365C3.95561 16.6511 4.13865 16.9678 4.38259 17.3867C4.63656 17.7947 4.92916 18.264 5.26037 18.7944C5.59122 19.3144 5.95476 19.875 6.35098 20.4761C6.75725 21.0665 7.16872 21.6566 7.5854 22.2466C8.01248 22.8362 8.43364 23.4052 8.84886 23.9535C9.27413 24.4911 9.6764 24.9669 10.0557 25.381C10.4453 25.7948 10.8009 26.1263 11.1223 26.3757C11.4537 26.6143 11.734 26.7295 11.963 26.7216C12.2649 26.711 12.5335 26.4932 12.7688 26.068C13.0041 25.6429 13.214 25.0884 13.3986 24.4044C13.5936 23.7201 13.7595 22.9482 13.8962 22.0888C14.0326 21.2189 14.1478 20.3393 14.2419 19.4501C14.3463 18.5605 14.431 17.7028 14.496 16.8772C14.5606 16.0411 14.6132 15.3096 14.6539 14.6828C14.6735 14.3486 14.7584 14.0955 14.9088 13.9234C15.0587 13.741 15.2586 13.6454 15.5085 13.6367C15.7271 13.6291 15.9682 13.6676 16.2317 13.7522C16.4952 13.8368 16.7444 13.9584 16.9793 14.1169C17.2138 14.2651 17.4077 14.4459 17.5611 14.6595C17.7245 14.8622 17.8106 15.0885 17.8193 15.3384C17.8327 15.7235 17.8121 16.1777 17.7574 16.7007C17.7131 17.2234 17.6491 17.7781 17.5654 18.3647C17.4917 18.9405 17.4029 19.5325 17.2991 20.1407C17.1949 20.7384 17.0896 21.305 16.9832 21.8402C16.913 22.2179 16.8148 22.6904 16.6887 23.2576C16.5727 23.8141 16.4214 24.4083 16.235 25.0402C16.0483 25.6617 15.8253 26.2896 15.566 26.9241C15.3064 27.5481 15.0031 28.1163 14.6562 28.6287C14.3089 29.1307 13.9115 29.5407 13.464 29.8586C13.0273 30.1865 12.5278 30.3603 11.9657 30.3799C11.5597 30.3941 11.134 30.2943 10.6888 30.0806C10.2439 29.8772 9.79653 29.601 9.34658 29.2519C8.89662 28.9028 8.45023 28.5067 8.00741 28.0635C7.56423 27.61 7.14169 27.1505 6.73978 26.6851C6.33788 26.2196 5.96254 25.7689 5.61378 25.3329C5.26465 24.8865 4.96437 24.4957 4.71294 24.1605ZM30.3044 15.5903C30.877 15.5703 31.4318 15.6395 31.9689 15.7979C32.5061 15.9564 32.9831 16.1847 33.4 16.4828C33.8169 16.7809 34.1527 17.1444 34.4074 17.5733C34.6725 18.0018 34.8143 18.4815 34.8329 19.0125C34.8405 19.2311 34.7959 19.4463 34.6991 19.6581C34.6123 19.8592 34.4883 20.0407 34.3272 20.2027C34.1658 20.3543 33.9773 20.4807 33.762 20.582C33.5567 20.6726 33.3395 20.7219 33.1105 20.7299C33.0897 20.7306 33.0691 20.7365 33.0486 20.7477C33.0382 20.748 33.0226 20.7486 33.0017 20.7493C32.9813 20.7604 32.9607 20.7664 32.9398 20.7671L33.0459 22.0141C33.1395 23.5014 33.3857 24.582 33.7845 25.256C34.1937 25.9296 34.7054 26.2557 35.3196 26.2342C35.5382 26.2266 35.7301 26.1991 35.8952 26.1516C36.0707 26.1038 36.2304 26.0513 36.3743 25.9942C36.5283 25.9262 36.6722 25.8691 36.8061 25.8227C36.94 25.7764 37.0746 25.7508 37.2099 25.7461C37.4494 25.7377 37.6612 25.8346 37.8455 26.0366C38.0401 26.2383 38.1425 26.4848 38.1527 26.7763C38.1629 27.0678 38.0586 27.3633 37.8397 27.6628C37.6313 27.9619 37.3491 28.2376 36.9931 28.4897C36.6367 28.7315 36.232 28.9332 35.7791 29.095C35.3261 29.2567 34.8654 29.3457 34.3969 29.3621C33.5849 29.3905 32.8602 29.0822 32.2227 28.4374C31.5849 27.7822 31.1131 26.8085 30.8074 25.5163C30.7377 25.3103 30.6508 25.2091 30.5466 25.2127C30.4217 25.2171 30.3146 25.2833 30.2253 25.4115C29.2401 26.7488 28.176 27.7657 27.0329 28.4623C25.8895 29.1485 24.7504 29.5114 23.6157 29.551C23.0848 29.5695 22.6032 29.5082 22.1709 29.3669C21.7386 29.2257 21.3666 29.0198 21.0549 28.7492C20.7532 28.4679 20.512 28.1272 20.3313 27.727C20.1606 27.316 20.0663 26.8555 20.0485 26.3454C20.0234 25.6271 20.1532 24.8669 20.4379 24.0648C20.733 23.2623 21.1378 22.4665 21.6522 21.6772C22.1667 20.8879 22.7656 20.1322 23.4492 19.41C24.1431 18.6874 24.8712 18.047 25.6335 17.4888C26.4061 16.9303 27.193 16.4807 27.9941 16.14C28.7952 15.7993 29.5653 15.6161 30.3044 15.5903ZM29.9778 21.0112C30.1528 20.6507 30.3157 20.3897 30.4664 20.2281C30.6167 20.0561 30.8367 19.9389 31.1264 19.8767C31.3543 19.8375 31.4663 19.7606 31.4623 19.6461C31.4594 19.5628 31.4251 19.4754 31.3593 19.3839C31.1521 19.1201 30.9357 18.8932 30.7102 18.703C30.4843 18.5025 30.1892 18.4085 29.8248 18.4213C29.4292 18.4351 28.9908 18.565 28.5095 18.8111C28.0282 19.0573 27.5392 19.3818 27.0426 19.7848C26.556 20.177 26.0766 20.6263 25.6044 21.1327C25.1422 21.6283 24.7327 22.1377 24.3757 22.6609C24.0187 23.1841 23.7345 23.6995 23.5229 24.2072C23.3113 24.7149 23.2124 25.1665 23.2263 25.5621C23.2386 25.9161 23.3419 26.1887 23.5362 26.3799C23.7409 26.5708 24.0099 26.6605 24.343 26.6488C25.1966 26.619 26.1125 26.1336 27.0907 25.1927C28.0689 24.2517 29.0313 22.8579 29.9778 21.0112ZM26.5072 13.409C26.2053 13.4195 25.9176 13.3879 25.644 13.314C25.3805 13.2294 25.1471 13.1125 24.9439 12.9633C24.7507 12.8032 24.593 12.6159 24.4708 12.4013C24.3487 12.1867 24.2831 11.9493 24.274 11.689C24.2587 11.2518 24.4181 10.8918 24.7522 10.6091C25.0967 10.3261 25.5604 10.1744 26.1434 10.1541C26.4141 10.1446 26.6762 10.1876 26.9297 10.283C27.1828 10.3679 27.4059 10.4904 27.5991 10.6504C27.8028 10.8101 27.9658 11.0024 28.0883 11.2275C28.2105 11.4421 28.2757 11.6691 28.2841 11.9086C28.2997 12.3562 28.1455 12.716 27.8215 12.9879C27.5075 13.249 27.0694 13.3893 26.5072 13.409ZM31.9414 13.2192C31.6395 13.2298 31.3518 13.1981 31.0782 13.1243C30.8147 13.0397 30.5813 12.9228 30.378 12.7735C30.1848 12.6135 30.0272 12.4262 29.905 12.2115C29.7829 11.9969 29.7173 11.7595 29.7082 11.4992C29.6929 11.062 29.8523 10.702 30.1864 10.4194C30.5309 10.1364 30.9946 9.98466 31.5776 9.9643C31.8483 9.95485 32.1104 9.99781 32.3638 10.0932C32.617 10.1782 32.8401 10.3007 33.0333 10.4607C33.2369 10.6203 33.4 10.8127 33.5225 11.0377C33.6447 11.2523 33.7099 11.4794 33.7183 11.7188C33.7339 12.1664 33.5797 12.5262 33.2557 12.7981C32.9417 13.0592 32.5036 13.1996 31.9414 13.2192ZM37.2806 11.2035C37.2617 10.6622 37.4044 10.2716 37.7087 10.0316C38.013 9.79169 38.5243 9.65918 39.2426 9.6341C39.4925 9.62537 39.712 9.64376 39.9012 9.68927C40.0904 9.73478 40.2497 9.81781 40.3789 9.93837C40.5079 10.0485 40.6124 10.2064 40.6925 10.4121C40.7827 10.607 40.8593 10.8597 40.9223 11.1702C41.09 12.092 41.2593 13.0606 41.4302 14.0761C41.6112 15.0808 41.7818 16.0859 41.942 17.0913C42.1123 18.086 42.2714 19.0602 42.4193 20.0139C42.5669 20.9573 42.6967 21.8387 42.8087 22.6582C42.9308 23.4669 43.0237 24.1881 43.0875 24.8217C43.1614 25.4445 43.2047 25.938 43.2174 26.3024C43.2305 26.6772 43.2051 26.996 43.1414 27.2588C43.088 27.5212 42.9807 27.7334 42.8196 27.8954C42.6689 28.057 42.4647 28.1788 42.207 28.2607C41.9593 28.3319 41.6481 28.3741 41.2733 28.3871C40.909 28.3999 40.6142 28.3164 40.3891 28.1366C40.1743 27.9565 40.0602 27.6738 40.0468 27.2887C40.0329 26.8931 39.9834 26.3684 39.898 25.7148C39.8123 25.0507 39.7032 24.3145 39.5707 23.5061C39.4383 22.6977 39.2884 21.8379 39.121 20.9265C38.9641 20.0147 38.7972 19.1138 38.6201 18.2236C38.4536 17.333 38.2882 16.4789 38.1242 15.6612C37.9702 14.8327 37.83 14.1028 37.7037 13.4714C37.5771 12.8296 37.4755 12.3068 37.3988 11.903C37.3218 11.4887 37.2824 11.2556 37.2806 11.2035ZM46.7291 28.3686C46.6975 27.4629 46.6371 26.48 46.548 25.42C46.4589 24.36 46.3538 23.2901 46.2327 22.2103C46.1216 21.1198 46.0011 20.0556 45.871 19.0179C45.7514 17.9797 45.6349 17.0301 45.5214 16.169C45.4184 15.3074 45.3299 14.5653 45.256 13.9425C45.1822 13.3197 45.1409 12.8834 45.1322 12.6335C45.1176 12.2171 45.2627 11.8941 45.5674 11.6646C45.872 11.4351 46.3211 11.31 46.9144 11.2892C47.1747 11.2801 47.3942 11.2985 47.573 11.3444C47.7622 11.3899 47.9163 11.4731 48.0351 11.5941C48.154 11.715 48.2483 11.8785 48.3181 12.0845C48.3978 12.2797 48.4586 12.5278 48.5004 12.8286C48.5566 13.2435 48.6086 13.6899 48.6566 14.1677C48.7042 14.6351 48.7541 15.1701 48.8065 15.7728C48.8692 16.3752 48.9346 17.0556 49.0028 17.8141C49.071 18.5726 49.1536 19.4452 49.2506 20.432C49.2557 20.5778 49.2853 20.681 49.3396 20.7416C49.3938 20.8023 49.4521 20.8315 49.5146 20.8293C49.6291 20.8253 49.7299 20.728 49.8171 20.5373C50.6391 18.7054 51.5176 17.2989 52.4527 16.3178C53.3874 15.3262 54.3128 14.8144 55.2289 14.7824C55.7703 14.7635 56.2027 14.91 56.5263 15.2218C56.8499 15.5336 57.0211 15.9602 57.04 16.5015C57.0604 17.0845 56.9492 17.6304 56.7063 18.1392C56.4736 18.6372 56.1722 19.1115 55.8023 19.5622C55.4428 20.0125 55.046 20.4381 54.6118 20.8389C54.188 21.2394 53.7899 21.6285 53.4174 22.0063C53.0554 22.3838 52.7504 22.754 52.5025 23.117C52.2647 23.4693 52.1519 23.8224 52.1643 24.1764C52.1755 24.4991 52.3746 24.8257 52.7613 25.1561C53.1581 25.4758 53.7215 25.7897 54.4515 26.0977C55.1811 26.3954 56.0718 26.6822 57.1238 26.9581C58.1753 27.2237 59.3671 27.4739 60.699 27.7088C60.909 27.7536 61.0577 27.8318 61.145 27.9434C61.2427 28.0546 61.2948 28.2039 61.3013 28.3913C61.3093 28.6203 61.2654 28.8564 61.1697 29.0995C61.0743 29.3529 60.952 29.5813 60.8028 29.7846C60.6539 29.9982 60.4827 30.171 60.2893 30.3028C60.1066 30.4447 59.9268 30.5187 59.7498 30.5249C59.3959 30.5372 58.9726 30.5051 58.4801 30.4285C57.9875 30.3519 57.452 30.2403 56.8737 30.0937C56.306 29.9572 55.7165 29.7902 55.1051 29.5927C54.494 29.4055 53.8978 29.1971 53.3166 28.9672C52.746 28.7474 52.2012 28.5163 51.682 28.2738C51.1728 28.0206 50.7315 27.7702 50.3581 27.5227C50.2414 27.4642 50.1459 27.4155 50.0716 27.3764C50.0076 27.3369 49.9497 27.3181 49.8976 27.3199C49.8351 27.3221 49.7996 27.3494 49.791 27.4018C49.7821 27.4438 49.7801 27.5377 49.7852 27.6834C49.7979 28.0478 49.7771 28.3456 49.7226 28.5768C49.6786 28.8076 49.591 28.9879 49.4601 29.1175C49.3295 29.2576 49.1453 29.3578 48.9077 29.4182C48.6701 29.4786 48.3743 29.515 48.0204 29.5274C47.5519 29.5437 47.2209 29.4667 47.0273 29.2963C46.8442 29.1255 46.7448 28.8163 46.7291 28.3686ZM60.0976 23.0238C60.0915 22.8468 60.1054 22.6483 60.1394 22.4282C60.1734 22.2082 60.1858 21.968 60.1768 21.7077C60.1706 21.5308 60.0878 21.3982 59.9283 21.3099C59.7793 21.2213 59.6091 21.123 59.4177 21.0151C59.2264 20.9071 59.0495 20.7673 58.8872 20.5958C58.7352 20.4239 58.6535 20.1714 58.6418 19.8383C58.6335 19.5989 58.6876 19.3572 58.8041 19.1134C58.9311 18.8693 59.1161 18.6439 59.359 18.4374C59.9572 17.9579 60.5779 17.5245 61.221 17.1373C61.8745 16.7496 62.5249 16.4194 63.172 16.1467C63.8295 15.8736 64.4787 15.6581 65.1194 15.5002C65.7601 15.3423 66.3771 15.253 66.9705 15.2323C67.9699 15.1974 68.9134 15.3521 69.8009 15.6963C70.6985 16.0298 71.4813 16.508 72.1493 17.1309C72.8273 17.743 73.3688 18.4745 73.7738 19.3255C74.1888 20.1657 74.4133 21.0751 74.4475 22.0537C74.481 23.0114 74.3098 23.9294 73.9339 24.8076C73.5682 25.6751 73.0582 26.4434 72.4041 27.1124C71.7499 27.7815 70.9714 28.3194 70.0683 28.7262C69.1761 29.143 68.2251 29.369 67.2153 29.4043C66.2263 29.4388 65.3044 29.3042 64.4495 29.0006C63.5946 28.6969 62.8499 28.2643 62.2153 27.7027C61.5804 27.1308 61.0772 26.45 60.7056 25.6604C60.3338 24.8604 60.1311 23.9815 60.0976 23.0238ZM67.4607 26.5815C67.8979 26.5662 68.3476 26.4619 68.8099 26.2686C69.2722 26.0753 69.6901 25.8053 70.0637 25.4587C70.4473 25.1014 70.7555 24.6737 70.9882 24.1757C71.2314 23.6773 71.3423 23.121 71.3208 22.5068C71.299 21.8822 71.1641 21.3032 70.9162 20.7699C70.6683 20.2365 70.3344 19.7791 69.9146 19.3977C69.5048 19.0055 69.02 18.7046 68.4603 18.4948C67.911 18.2847 67.3188 18.1907 66.6837 18.2129C65.5282 18.2532 64.6539 18.586 64.0607 19.2113C63.4673 19.8261 63.1921 20.753 63.2354 21.9918C63.259 22.6685 63.3799 23.2948 63.5981 23.8709C63.8263 24.4362 64.13 24.9259 64.5093 25.34C64.8882 25.7437 65.3265 26.0567 65.8241 26.2791C66.3322 26.501 66.8777 26.6019 67.4607 26.5815ZM78.1038 28.258C77.9826 26.8759 77.8183 25.6048 77.611 24.4447C77.4138 23.2738 77.2114 22.2542 77.0039 21.3859C76.8068 20.5173 76.6311 19.8146 76.4769 19.278C76.3331 18.741 76.2588 18.4049 76.2541 18.2696C76.2471 18.0718 76.3133 17.8766 76.4525 17.6841C76.6021 17.4913 76.7891 17.3232 77.0134 17.1799C77.2373 17.0261 77.4779 16.9031 77.7353 16.8107C78.0031 16.718 78.2462 16.6678 78.4649 16.6602C78.6418 16.654 78.7939 16.6799 78.921 16.738C79.0585 16.7958 79.1558 16.8966 79.213 17.0405C79.2712 17.2157 79.3246 17.4014 79.3731 17.5978C79.4317 17.7834 79.4918 18.0106 79.5533 18.2794C79.6292 18.6624 79.7192 18.8521 79.8233 18.8485C79.9378 18.8445 80.062 18.6682 80.1957 18.3195C80.3872 17.8334 80.5972 17.43 80.8257 17.1093C81.0543 16.7886 81.3008 16.5351 81.5653 16.3486C81.8398 16.1514 82.1215 16.0113 82.4105 15.9283C82.7098 15.8449 83.0209 15.7975 83.3436 15.7862C84.3222 15.7521 85.1632 16.1084 85.8668 16.8551C86.5808 17.6015 87.1558 18.6966 87.5919 20.1406C87.6498 20.3054 87.7004 20.4131 87.7439 20.4636C87.787 20.5038 87.8345 20.523 87.8866 20.5212C87.9387 20.5194 87.99 20.4967 88.0406 20.4533C88.1012 20.3991 88.155 20.2982 88.202 20.1506C88.4282 19.4652 88.6997 18.8825 89.0165 18.4024C89.3329 17.9118 89.663 17.5147 90.0067 17.2108C90.3606 16.8962 90.7225 16.6647 91.0925 16.5163C91.4626 16.3678 91.8194 16.2876 92.1629 16.2756C92.7979 16.2534 93.3787 16.4677 93.9052 16.9183C94.4417 17.3582 94.9246 18.0553 95.354 19.0097C95.7935 19.9532 96.1847 21.1591 96.5279 22.6272C96.881 24.0845 97.1918 25.8195 97.4601 27.8322C97.4797 28.3943 97.3216 28.7907 96.9857 29.0213C96.6501 29.2624 96.1857 29.3932 95.5923 29.4139C95.2071 29.4274 94.9023 29.3547 94.6778 29.1957C94.4534 29.0368 94.3209 28.8225 94.2802 28.553C94.0943 27.1107 93.8985 25.8303 93.6926 24.7118C93.4969 23.5825 93.2918 22.6359 93.0775 21.8721C92.8629 21.0979 92.634 20.5118 92.3907 20.1138C92.158 19.7154 91.9062 19.5209 91.6356 19.5304C91.5002 19.5351 91.3319 19.64 91.1306 19.8451C90.9397 20.0498 90.739 20.4216 90.5285 20.9605C90.3177 21.489 90.1033 22.2157 89.8855 23.1405C89.6673 24.055 89.4684 25.2241 89.2888 26.6479C89.2401 27.0456 89.0581 27.3543 88.7426 27.5737C88.4376 27.7929 88.056 27.9104 87.598 27.9264C87.0671 27.945 86.6946 27.8746 86.4806 27.7153C86.2769 27.5556 86.1578 27.2784 86.1232 26.8835C86.0576 26.1979 85.9609 25.5185 85.8331 24.8455C85.7155 24.1617 85.573 23.5152 85.4058 22.9061C85.2383 22.2866 85.0569 21.7196 84.8618 21.2053C84.6662 20.6806 84.4629 20.2291 84.2516 19.8508C84.04 19.4621 83.8263 19.1621 83.6104 18.9507C83.3946 18.7394 83.1878 18.6372 82.99 18.6441C82.7297 18.6532 82.481 18.8442 82.2439 19.2173C82.0172 19.5901 81.8166 20.113 81.642 20.7862C81.4779 21.459 81.355 22.2658 81.2732 23.2068C81.1914 24.1477 81.1707 25.1959 81.211 26.3515C81.2179 26.5493 81.23 26.7469 81.2473 26.9443C81.2643 27.1313 81.2764 27.329 81.2837 27.5372C81.2946 27.8495 81.2514 28.1063 81.1542 28.3078C81.0675 28.5088 80.9324 28.6699 80.749 28.791C80.576 28.9117 80.3705 28.997 80.1325 29.047C79.8946 29.097 79.635 29.1269 79.354 29.1367C79.0937 29.1458 78.8848 29.1323 78.7272 29.0961C78.5699 29.0703 78.4484 29.0224 78.3625 28.9525C78.2767 28.8825 78.216 28.7856 78.1804 28.6618C78.1452 28.5484 78.1196 28.4137 78.1038 28.258ZM100.809 27.4651C100.687 26.0831 100.523 24.812 100.316 23.6518C100.119 22.4809 99.9163 21.4613 99.7088 20.593C99.5117 19.7244 99.336 19.0218 99.1818 18.4851C99.038 17.9482 98.9637 17.612 98.959 17.4767C98.9521 17.2789 99.0182 17.0837 99.1574 16.8913C99.307 16.6984 99.494 16.5303 99.7183 16.387C99.9422 16.2333 100.183 16.1102 100.44 16.0178C100.708 15.9251 100.951 15.8749 101.17 15.8673C101.347 15.8611 101.499 15.8871 101.626 15.9452C101.763 16.0029 101.861 16.1037 101.918 16.2477C101.976 16.4228 102.029 16.6086 102.078 16.8049C102.137 16.9905 102.197 17.2177 102.258 17.4865C102.334 17.8695 102.424 18.0592 102.528 18.0556C102.643 18.0516 102.767 17.8753 102.901 17.5266C103.092 17.0405 103.302 16.6371 103.531 16.3164C103.759 15.9958 104.006 15.7422 104.27 15.5558C104.545 15.3586 104.826 15.2184 105.115 15.1354C105.415 15.052 105.726 15.0046 106.048 14.9934C107.027 14.9592 107.868 15.3155 108.572 16.0622C109.286 16.8086 109.861 17.9038 110.297 19.3478C110.355 19.5125 110.405 19.6202 110.449 19.6708C110.492 19.711 110.539 19.7301 110.592 19.7283C110.644 19.7265 110.695 19.7039 110.745 19.6604C110.806 19.6062 110.86 19.5053 110.907 19.3577C111.133 18.6723 111.405 18.0896 111.721 17.6095C112.038 17.119 112.368 16.7218 112.712 16.4179C113.065 16.1033 113.427 15.8718 113.797 15.7234C114.167 15.575 114.524 15.4947 114.868 15.4828C115.503 15.4606 116.084 15.6748 116.61 16.1255C117.147 16.5653 117.63 17.2625 118.059 18.2168C118.498 19.1604 118.89 20.3662 119.233 21.8343C119.586 23.2916 119.897 25.0266 120.165 27.0393C120.185 27.6015 120.026 27.9978 119.691 28.2285C119.355 28.4695 118.891 28.6004 118.297 28.6211C117.912 28.6345 117.607 28.5618 117.383 28.4029C117.158 28.2439 117.026 28.0297 116.985 27.7601C116.799 26.3178 116.603 25.0374 116.398 23.9189C116.202 22.7896 115.997 21.8431 115.782 21.0792C115.568 20.305 115.339 19.7189 115.096 19.3209C114.863 18.9225 114.611 18.7281 114.34 18.7375C114.205 18.7422 114.037 18.8471 113.836 19.0522C113.645 19.2569 113.444 19.6287 113.233 20.1676C113.023 20.6962 112.808 21.4228 112.59 22.3477C112.372 23.2621 112.173 24.4312 111.994 25.855C111.945 26.2528 111.763 26.5614 111.448 26.7809C111.142 27 110.761 27.1175 110.303 27.1335C109.772 27.1521 109.399 27.0817 109.185 26.9224C108.982 26.7627 108.863 26.4855 108.828 26.0906C108.762 25.405 108.666 24.7257 108.538 24.0526C108.42 23.3688 108.278 22.7224 108.111 22.1132C107.943 21.4937 107.762 20.9268 107.567 20.4124C107.371 19.8877 107.168 19.4362 106.957 19.0579C106.745 18.6692 106.531 18.3692 106.315 18.1579C106.1 17.9465 105.893 17.8443 105.695 17.8512C105.435 17.8603 105.186 18.0514 104.949 18.4245C104.722 18.7972 104.521 19.3201 104.347 19.9933C104.183 20.6661 104.06 21.473 103.978 22.4139C103.896 23.3548 103.876 24.4031 103.916 25.5586C103.923 25.7564 103.935 25.954 103.952 26.1514C103.969 26.3385 103.981 26.5361 103.989 26.7443C103.999 27.0566 103.956 27.3135 103.859 27.5149C103.772 27.716 103.637 27.877 103.454 27.9981C103.281 28.1188 103.075 28.2041 102.837 28.2541C102.599 28.3041 102.34 28.334 102.059 28.3439C101.799 28.353 101.59 28.3394 101.432 28.3032C101.275 28.2774 101.153 28.2296 101.067 28.1596C100.982 28.0896 100.921 27.9927 100.885 27.8689C100.85 27.7555 100.825 27.6209 100.809 27.4651ZM135.27 22.1654C135.563 21.8946 135.855 21.7541 136.146 21.744C136.313 21.7381 136.465 21.7745 136.603 21.8531C136.742 21.9316 136.897 22.0565 137.07 22.2276C137.234 22.4616 137.351 22.6556 137.419 22.8096C137.496 22.9528 137.538 23.0973 137.543 23.243C137.554 23.5553 137.408 23.8575 137.106 24.1494C136.621 24.5833 136.092 24.977 135.521 25.3305C134.949 25.6735 134.35 25.9707 133.723 26.2219C133.096 26.4731 132.446 26.6678 131.773 26.8059C131.101 26.9545 130.432 27.0404 129.765 27.0636C128.922 27.0931 128.127 27.0114 127.38 26.8186C126.634 26.6362 125.962 26.3574 125.366 25.9822C124.779 25.6066 124.279 25.1498 123.864 24.6119C123.449 24.0635 123.145 23.4435 122.955 22.7518C122.851 22.4636 122.756 22.2793 122.669 22.1989C122.593 22.1078 122.467 22.0653 122.29 22.0715C121.905 22.0849 121.605 22.0016 121.39 21.8215C121.175 21.6414 121.062 21.3743 121.049 21.0204C121.044 20.8747 121.051 20.7806 121.071 20.7382L121.091 20.4248C121.13 20.0482 121.219 19.7741 121.359 19.6025C121.51 19.4304 121.746 19.3388 122.069 19.3275L122.303 19.3194C122.74 19.3041 123.04 19.0904 123.203 18.6782C123.501 17.9486 123.889 17.2784 124.368 16.6675C124.847 16.0567 125.392 15.5322 126.002 15.094C126.611 14.6453 127.266 14.2941 127.966 14.0404C128.676 13.7759 129.401 13.6307 130.14 13.6049C130.91 13.578 131.632 13.6674 132.307 13.8732C132.991 14.0682 133.59 14.3547 134.103 14.7329C134.617 15.111 135.023 15.5606 135.323 16.0817C135.633 16.6025 135.799 17.17 135.82 17.7842C135.835 18.211 135.766 18.6043 135.611 18.9641C135.457 19.3238 135.229 19.6445 134.926 19.9261C134.623 20.1972 134.25 20.4239 133.808 20.6061C133.377 20.7879 132.881 20.9147 132.321 20.9864L126.921 21.7222C126.713 21.7294 126.543 21.7875 126.411 21.8963C126.29 22.0048 126.232 22.1475 126.239 22.3245C126.248 22.5951 126.356 22.8519 126.562 23.0949C126.779 23.3375 127.058 23.5518 127.398 23.738C127.748 23.9134 128.144 24.0507 128.585 24.1499C129.037 24.2488 129.497 24.2901 129.965 24.2737C130.413 24.2581 130.869 24.2005 131.335 24.1008C131.81 23.9904 132.274 23.8439 132.727 23.6613C133.189 23.4784 133.635 23.2648 134.064 23.0205C134.493 22.7658 134.895 22.4808 135.27 22.1654ZM131.647 18.2582C131.802 18.2216 131.935 18.144 132.045 18.0254C132.155 17.8965 132.207 17.7436 132.201 17.5666C132.196 17.4104 132.133 17.2667 132.014 17.1354C131.895 17.004 131.734 16.8898 131.533 16.7926C131.331 16.685 131.099 16.6045 130.837 16.5511C130.574 16.4977 130.297 16.4761 130.006 16.4863C129.579 16.5012 129.144 16.5789 128.701 16.7195C128.257 16.8601 127.857 17.0408 127.5 17.2617C127.143 17.4722 126.854 17.7064 126.633 17.9643C126.413 18.2117 126.307 18.4551 126.315 18.6946C126.323 18.934 126.473 19.0486 126.765 19.0385C126.942 19.0323 127.227 19.0015 127.621 18.946C128.016 18.8906 128.451 18.8284 128.928 18.7597C129.405 18.6805 129.887 18.5959 130.373 18.506C130.86 18.416 131.285 18.3334 131.647 18.2582ZM138.447 12.8614C138.441 12.7052 138.504 12.5519 138.634 12.4014C138.764 12.2406 138.936 12.099 139.151 11.9769C139.365 11.8443 139.606 11.7369 139.874 11.6546C140.153 11.5615 140.432 11.51 140.713 11.5002C140.869 11.4948 141.001 11.5319 141.108 11.6115C141.225 11.6908 141.33 11.8487 141.422 12.0852C141.513 12.3113 141.597 12.6367 141.675 13.0614C141.762 13.4752 141.849 14.0194 141.935 14.6939C141.984 14.9006 142.026 15.0607 142.061 15.1742C142.106 15.2768 142.16 15.327 142.223 15.3249C142.316 15.3216 142.404 15.157 142.487 14.831C143.17 12.6078 144.23 11.4712 145.667 11.421C146.333 11.3978 146.944 11.5849 147.5 11.9824C148.066 12.3795 148.6 13.0436 149.102 13.9746C149.613 14.8948 150.109 16.1178 150.59 17.6436C151.07 19.159 151.563 21.0336 152.068 23.2673C152.093 23.3811 152.112 23.4847 152.126 23.578C152.14 23.6713 152.148 23.7596 152.151 23.8429C152.159 24.0824 152.109 24.2926 152.001 24.4735C151.903 24.6437 151.767 24.7892 151.594 24.9099C151.421 25.0202 151.226 25.1052 151.009 25.1648C150.793 25.2349 150.575 25.2738 150.356 25.2814C149.919 25.2967 149.6 25.2609 149.399 25.1742C149.208 25.087 149.082 24.9142 149.021 24.6558C148.664 23.084 148.318 21.6889 147.984 20.4707C147.66 19.2521 147.343 18.2313 147.033 17.4083C146.733 16.5745 146.44 15.9437 146.154 15.5159C145.868 15.0881 145.589 14.879 145.319 14.8884C145.048 14.8979 144.799 15.0785 144.572 15.4304C144.354 15.7716 144.149 16.3051 143.955 17.0311C143.762 17.757 143.58 18.6754 143.41 19.7861C143.251 20.8965 143.105 22.2202 142.971 23.757C142.933 24.1753 142.737 24.5157 142.381 24.7782C142.025 25.0408 141.566 25.1819 141.004 25.2015C140.629 25.2146 140.34 25.1465 140.137 24.9973C139.934 24.848 139.817 24.6384 139.787 24.3685C139.618 22.2064 139.451 20.4299 139.288 19.0389C139.135 17.6372 138.997 16.5163 138.874 15.6763C138.75 14.826 138.65 14.1937 138.573 13.7794C138.496 13.3652 138.454 13.0592 138.447 12.8614ZM162.243 6.58961C162.223 6.03786 162.366 5.64722 162.671 5.4177C162.975 5.17777 163.486 5.04526 164.205 5.02017C164.465 5.01109 164.684 5.02948 164.863 5.07535C165.052 5.11045 165.211 5.18828 165.34 5.30884C165.48 5.42904 165.59 5.59197 165.67 5.79763C165.76 5.99251 165.837 6.2452 165.9 6.5557C166.059 7.51949 166.229 8.51416 166.411 9.53969C166.603 10.5649 166.8 11.5951 167.003 12.6303C167.082 13.0966 167.335 13.3222 167.762 13.3073C167.876 13.3033 168.063 13.2864 168.323 13.2565C168.592 13.2158 168.909 13.1735 169.272 13.1295C169.635 13.0752 170.024 13.0199 170.439 12.9637C170.864 12.9071 171.284 12.856 171.7 12.8102C172.125 12.7537 172.525 12.7084 172.899 12.6745C173.283 12.6299 173.621 12.6024 173.912 12.5922C174.141 12.5842 174.325 12.6247 174.464 12.7137C174.602 12.7923 174.71 12.9031 174.788 13.0463C174.876 13.1788 174.934 13.3331 174.961 13.5093C174.998 13.6748 175.019 13.846 175.025 14.023C175.031 14.1792 175.005 14.3416 174.949 14.5104C174.902 14.6788 174.83 14.8324 174.73 14.9714C174.641 15.0996 174.525 15.2079 174.382 15.2963C174.239 15.3846 174.074 15.4321 173.887 15.4386C172.981 15.4703 172.066 15.5335 171.142 15.6283C170.227 15.7123 169.314 15.8172 168.401 15.9429C167.935 16.0217 167.709 16.2641 167.723 16.6701C167.724 16.7013 167.73 16.7428 167.743 16.7945C167.755 16.8358 167.761 16.872 167.762 16.9033C167.919 17.8046 168.063 18.649 168.195 19.4366C168.337 20.2238 168.455 20.9284 168.55 21.5505C168.655 22.1618 168.735 22.6749 168.791 23.0899C168.857 23.494 168.893 23.7638 168.898 23.8991C168.911 24.2739 168.885 24.5875 168.821 24.8399C168.757 25.1027 168.645 25.3151 168.484 25.4771C168.323 25.6494 168.103 25.7718 167.824 25.844C167.556 25.9264 167.214 25.9748 166.797 25.9893C166.402 26.0032 166.107 25.9196 165.913 25.7388C165.719 25.558 165.605 25.2753 165.571 24.8909C165.465 23.6646 165.323 22.4344 165.145 21.2003C164.966 19.9558 164.766 18.7172 164.546 17.4846C164.437 17.0402 164.195 16.8246 163.82 16.8377C163.789 16.8388 163.752 16.8452 163.711 16.8571C163.67 16.869 163.634 16.8754 163.602 16.8765C162.962 17.0448 162.358 17.2118 161.791 17.3776C161.223 17.5433 160.693 17.7182 160.199 17.9022C159.921 18.0057 159.673 18.0821 159.456 18.1314C159.239 18.1702 159.041 18.1928 158.864 18.1989C158.625 18.2073 158.444 18.1094 158.323 17.9052C158.2 17.6906 158.134 17.4219 158.122 17.0992C158.118 16.9847 158.124 16.8542 158.14 16.7077C158.155 16.5508 158.192 16.3984 158.249 16.2505C158.296 16.0925 158.374 15.9491 158.484 15.8201C158.584 15.6812 158.726 15.5668 158.91 15.4769C159.341 15.2847 159.918 15.0822 160.64 14.8693C161.362 14.6461 162.178 14.4352 163.088 14.2366C163.294 14.1773 163.453 14.0884 163.563 13.9699C163.684 13.8406 163.74 13.6562 163.732 13.4168C163.73 13.3647 163.728 13.3127 163.726 13.2606C163.724 13.1982 163.712 13.1361 163.689 13.0743C163.488 12.1224 163.297 11.2588 163.113 10.4835C162.94 9.69737 162.786 9.02524 162.652 8.46708C162.528 7.90856 162.43 7.46903 162.356 7.14849C162.282 6.82795 162.244 6.64166 162.243 6.58961ZM176.261 8.21074C175.959 8.22128 175.671 8.18964 175.398 8.11581C175.134 8.0312 174.901 7.91428 174.697 7.76503C174.504 7.60501 174.347 7.41769 174.224 7.20307C174.102 6.98845 174.037 6.75101 174.028 6.49076C174.012 6.05352 174.172 5.69357 174.506 5.41091C174.85 5.12788 175.314 4.97619 175.897 4.95583C176.168 4.94638 176.43 4.98934 176.683 5.08472C176.936 5.16968 177.159 5.29218 177.353 5.4522C177.556 5.61186 177.719 5.8042 177.842 6.02923C177.964 6.24385 178.029 6.47088 178.038 6.71031C178.053 7.15796 177.899 7.51772 177.575 7.78962C177.261 8.05073 176.823 8.19111 176.261 8.21074ZM174.288 13.0482C174.275 12.6838 174.421 12.3817 174.725 12.1417C175.04 11.891 175.457 11.7566 175.977 11.7384C176.914 11.7057 177.425 12.011 177.51 12.6542C177.568 13.1004 177.627 13.6038 177.688 14.1645C177.76 14.7249 177.828 15.3218 177.891 15.9554C177.965 16.5782 178.03 17.2274 178.085 17.903C178.149 18.5678 178.209 19.2276 178.263 19.8823C178.317 20.5267 178.365 21.1504 178.407 21.7535C178.449 22.3565 178.478 22.9079 178.496 23.4076C178.514 23.9281 178.34 24.3251 177.974 24.5984C177.619 24.8714 177.088 25.0203 176.38 25.045C176.057 25.0562 175.799 24.9871 175.606 24.8375C175.424 24.6979 175.328 24.4824 175.318 24.1909C175.268 22.7543 175.184 21.4126 175.068 20.1659C174.961 18.9084 174.85 17.7919 174.732 16.8162C174.625 15.8402 174.524 15.0307 174.428 14.3878C174.343 13.7342 174.296 13.2876 174.288 13.0482ZM179.944 6.22162C179.925 5.68029 180.067 5.28965 180.372 5.04972C180.676 4.80978 181.187 4.67728 181.906 4.65219C182.156 4.64347 182.375 4.66186 182.564 4.70737C182.753 4.75287 182.913 4.83591 183.042 4.95647C183.171 5.06662 183.275 5.22453 183.356 5.43019C183.446 5.62508 183.522 5.87777 183.585 6.18826C183.753 7.11005 183.922 8.07869 184.093 9.09418C184.274 10.0989 184.445 11.104 184.605 12.1094C184.775 13.1041 184.934 14.0783 185.082 15.032C185.23 15.9754 185.36 16.8568 185.472 17.6763C185.594 18.485 185.687 19.2062 185.751 19.8398C185.824 20.4626 185.868 20.9561 185.88 21.3205C185.894 21.6953 185.868 22.0141 185.804 22.2769C185.751 22.5393 185.644 22.7515 185.483 22.9135C185.332 23.0751 185.128 23.1969 184.87 23.2788C184.622 23.35 184.311 23.3922 183.936 23.4052C183.572 23.418 183.277 23.3345 183.052 23.1547C182.837 22.9746 182.723 22.6919 182.71 22.3068C182.696 21.9112 182.646 21.3865 182.561 20.7329C182.475 20.0688 182.366 19.3326 182.234 18.5242C182.101 17.7158 181.951 16.8559 181.784 15.9446C181.627 15.0328 181.46 14.1318 181.283 13.2416C181.117 12.3511 180.951 11.497 180.787 10.6793C180.633 9.85081 180.493 9.12088 180.367 8.48949C180.24 7.84768 180.139 7.32487 180.062 6.92105C179.985 6.50682 179.945 6.27367 179.944 6.22162ZM187.002 5.97514C186.983 5.43381 187.126 5.04317 187.43 4.80324C187.734 4.56331 188.246 4.4308 188.964 4.40571C189.214 4.39699 189.433 4.41538 189.622 4.46089C189.812 4.5064 189.971 4.58943 190.1 4.70999C190.229 4.82014 190.334 4.97805 190.414 5.18371C190.504 5.3786 190.581 5.63129 190.644 5.94178C190.811 6.86357 190.981 7.83221 191.151 8.8477C191.332 9.85241 191.503 10.8575 191.663 11.8629C191.834 12.8576 191.993 13.8318 192.141 14.7855C192.288 15.7289 192.418 16.6103 192.53 17.4298C192.652 18.2386 192.745 18.9597 192.809 19.5933C192.883 20.2161 192.926 20.7097 192.939 21.074C192.952 21.4488 192.926 21.7676 192.863 22.0304C192.809 22.2928 192.702 22.505 192.541 22.667C192.39 22.8286 192.186 22.9504 191.928 23.0324C191.681 23.1035 191.369 23.1457 190.995 23.1588C190.63 23.1715 190.335 23.088 190.11 22.9082C189.896 22.7281 189.781 22.4455 189.768 22.0603C189.754 21.6647 189.705 21.1401 189.619 20.4864C189.534 19.8223 189.424 19.0861 189.292 18.2777C189.159 17.4693 189.01 16.6095 188.842 15.6981C188.685 14.7863 188.518 13.8854 188.341 12.9952C188.175 12.1046 188.009 11.2505 187.845 10.4328C187.691 9.60433 187.551 8.8744 187.425 8.24301C187.298 7.6012 187.197 7.07839 187.12 6.67457C187.043 6.26034 187.004 6.0272 187.002 5.97514ZM204.182 19.3368C204.151 19.3379 204.099 19.345 204.026 19.3579C203.964 19.3705 203.892 19.3835 203.809 19.3968C203.736 19.4097 203.664 19.4227 203.591 19.4356C203.519 19.4486 203.461 19.4558 203.42 19.4573C203.128 19.4674 202.869 19.3566 202.642 19.1248C202.415 18.8826 202.294 18.5585 202.28 18.1525C202.27 17.8818 202.35 17.6185 202.518 17.3624C202.686 17.1064 202.955 16.8886 203.324 16.7089C203.437 16.6529 203.523 16.5925 203.583 16.5279C203.654 16.4525 203.687 16.3523 203.682 16.2274C203.671 15.8942 203.648 15.5407 203.614 15.1666C203.59 14.7818 203.554 14.3349 203.505 13.8259C203.491 13.7221 203.451 13.6245 203.385 13.533C203.33 13.4411 203.264 13.3392 203.187 13.2272C203.12 13.1045 203.058 12.9711 203.001 12.8272C202.944 12.6833 202.911 12.502 202.904 12.2834C202.897 12.0856 202.915 11.8609 202.958 11.6092C203.012 11.3468 203.123 11.1032 203.292 10.8784C203.472 10.6428 203.72 10.4465 204.038 10.2895C204.365 10.1217 204.795 10.0285 205.326 10.01C205.544 10.0024 205.727 10.0168 205.874 10.0534C206.022 10.0899 206.148 10.1376 206.255 10.1964C206.371 10.2445 206.471 10.2879 206.556 10.3266C206.651 10.365 206.746 10.3825 206.839 10.3793C207.006 10.3734 207.338 10.3306 207.836 10.2507C208.333 10.1707 208.929 10.0614 209.622 9.92249C210.326 9.78325 211.097 9.62604 211.935 9.45085C212.784 9.2753 213.642 9.08897 214.511 8.89187C215.379 8.68435 216.227 8.47757 217.053 8.27151C217.88 8.06545 218.629 7.86732 219.3 7.67713C219.506 7.61781 219.687 7.58542 219.843 7.57997C220.062 7.57233 220.236 7.61838 220.364 7.71813C220.503 7.80709 220.606 7.92336 220.673 8.06692C220.741 8.21048 220.783 8.37578 220.8 8.5628C220.827 8.73905 220.843 8.90525 220.849 9.0614C220.858 9.33207 220.774 9.5904 220.595 9.83638C220.426 10.0716 220.135 10.2641 219.724 10.414C218.703 10.7519 217.672 11.0537 216.628 11.3195C215.595 11.5744 214.551 11.8141 213.495 12.0386C212.44 12.2527 211.378 12.4513 210.311 12.6345C209.244 12.8177 208.182 13.0007 207.125 13.1835C206.98 13.2094 206.873 13.2705 206.803 13.3667C206.733 13.4525 206.701 13.5683 206.706 13.7141L206.728 14.3543C206.734 14.5313 206.746 14.7133 206.763 14.9003C206.78 15.0873 206.807 15.2584 206.843 15.4134C206.89 15.5681 206.947 15.6964 207.013 15.7984C207.079 15.8899 207.164 15.9338 207.268 15.9302C207.518 15.9215 207.901 15.856 208.418 15.7337C208.945 15.611 209.534 15.4654 210.185 15.2967C210.846 15.1173 211.532 14.9266 212.244 14.7245C212.967 14.5117 213.648 14.3211 214.288 14.1528C214.928 13.9742 215.491 13.8242 215.977 13.703C216.462 13.5818 216.804 13.5178 217.002 13.5109C217.293 13.5007 217.516 13.6024 217.669 13.8159C217.833 14.0187 217.946 14.2805 218.009 14.6014C218.011 14.6534 218.018 14.7001 218.03 14.7414C218.042 14.7827 218.048 14.8293 218.05 14.8814C218.061 15.1833 217.977 15.4676 217.799 15.7344C217.63 15.9904 217.314 16.1891 216.85 16.3304C216.727 16.3764 216.479 16.4528 216.108 16.5596C215.736 16.6559 215.297 16.7755 214.791 16.9182C214.285 17.0505 213.738 17.1947 213.149 17.3508C212.56 17.5069 211.982 17.6625 211.414 17.8179C210.846 17.9628 210.314 18.1064 209.819 18.2488C209.334 18.3804 208.936 18.4881 208.626 18.5719C208.348 18.6546 208.178 18.7178 208.117 18.7616C208.067 18.8051 208.042 18.8581 208.045 18.9205C208.073 19.1488 208.195 19.3582 208.41 19.5488C208.636 19.7389 208.913 19.9117 209.242 20.0669C209.58 20.2219 209.955 20.3599 210.366 20.4811C210.787 20.6019 211.218 20.7015 211.659 20.7799C212.109 20.8476 212.549 20.9 212.977 20.9371C213.406 20.9742 213.802 20.9865 214.167 20.9737C214.323 20.9683 214.547 20.9605 214.838 20.9503C215.13 20.9401 215.447 20.9238 215.79 20.9014C216.144 20.8682 216.502 20.8297 216.865 20.7857C217.239 20.7414 217.57 20.6881 217.86 20.6259C218.16 20.5529 218.402 20.4715 218.586 20.3816C218.781 20.281 218.876 20.1683 218.872 20.0434C218.868 19.9288 218.822 19.8106 218.734 19.6886C218.657 19.5662 218.616 19.4321 218.611 19.2864C218.603 19.0782 218.654 18.8732 218.761 18.6714C218.868 18.4592 219.008 18.2719 219.179 18.1096C219.361 17.9365 219.565 17.7991 219.79 17.6974C220.026 17.5849 220.264 17.5245 220.503 17.5161C220.805 17.5056 221.083 17.5584 221.337 17.6746C221.591 17.7804 221.81 17.9291 221.994 18.1207C222.188 18.3016 222.336 18.5153 222.438 18.7618C222.551 19.0081 222.612 19.2613 222.621 19.5215C222.645 20.2086 222.411 20.8109 221.918 21.3284C221.436 21.8456 220.795 22.2797 219.994 22.6308C219.193 22.9922 218.286 23.2689 217.271 23.4607C216.257 23.6629 215.234 23.7819 214.204 23.8179C212.996 23.8601 211.89 23.8154 210.884 23.6837C209.88 23.5624 208.975 23.3386 208.172 23.0123C207.368 22.686 206.67 22.2518 206.078 21.7096C205.486 21.157 204.993 20.4811 204.6 19.6818C204.467 19.4467 204.327 19.3318 204.182 19.3368ZM232.369 8.53405C232.941 8.51405 233.496 8.58327 234.033 8.74171C234.57 8.90014 235.047 9.12842 235.464 9.42656C235.881 9.72469 236.217 10.0882 236.472 10.5171C236.737 10.9456 236.879 11.4253 236.897 11.9562C236.905 12.1748 236.86 12.3901 236.763 12.6019C236.677 12.803 236.553 12.9845 236.392 13.1465C236.23 13.298 236.042 13.4245 235.826 13.5258C235.621 13.6163 235.404 13.6656 235.175 13.6736C235.154 13.6743 235.133 13.6803 235.113 13.6914C235.103 13.6918 235.087 13.6923 235.066 13.6931C235.046 13.7042 235.025 13.7101 235.004 13.7108L235.11 14.9579C235.204 16.4451 235.45 17.5257 235.849 18.1997C236.258 18.8734 236.77 19.1995 237.384 19.178C237.603 19.1704 237.794 19.1428 237.96 19.0954C238.135 19.0475 238.295 18.9951 238.439 18.9379C238.593 18.87 238.737 18.8129 238.87 18.7665C239.004 18.7201 239.139 18.6946 239.274 18.6899C239.514 18.6815 239.726 18.7783 239.91 18.9804C240.104 19.182 240.207 19.4286 240.217 19.7201C240.227 20.0116 240.123 20.3071 239.904 20.6065C239.696 20.9057 239.413 21.1813 239.057 21.4335C238.701 21.6752 238.296 21.877 237.843 22.0387C237.39 22.2005 236.93 22.2895 236.461 22.3059C235.649 22.3342 234.925 22.026 234.287 21.3812C233.649 20.726 233.177 19.7522 232.872 18.46C232.802 18.254 232.715 18.1528 232.611 18.1565C232.486 18.1608 232.379 18.2271 232.29 18.3553C231.304 19.6926 230.24 20.7095 229.097 21.4061C227.954 22.0922 226.815 22.4551 225.68 22.4947C225.149 22.5133 224.668 22.4519 224.235 22.3107C223.803 22.1694 223.431 21.9635 223.119 21.693C222.818 21.4117 222.576 21.0709 222.396 20.6707C222.225 20.2598 222.131 19.7993 222.113 19.2891C222.088 18.5708 222.218 17.8106 222.502 17.0085C222.797 16.2061 223.202 15.4102 223.717 14.621C224.231 13.8317 224.83 13.076 225.514 12.3537C226.207 11.6312 226.936 10.9908 227.698 10.4326C228.47 9.87404 229.257 9.42443 230.058 9.08376C230.86 8.74309 231.63 8.55986 232.369 8.53405ZM232.042 13.955C232.217 13.5945 232.38 13.3335 232.531 13.1718C232.681 12.9998 232.901 12.8827 233.191 12.8205C233.419 12.7812 233.531 12.7044 233.527 12.5899C233.524 12.5066 233.489 12.4192 233.424 12.3277C233.216 12.0639 233 11.8369 232.775 11.6468C232.549 11.4462 232.254 11.3523 231.889 11.365C231.494 11.3788 231.055 11.5088 230.574 11.7549C230.093 12.001 229.604 12.3256 229.107 12.7286C228.62 13.1208 228.141 13.5701 227.669 14.0765C227.207 14.572 226.797 15.0814 226.44 15.6046C226.083 16.1278 225.799 16.6433 225.587 17.151C225.376 17.6587 225.277 18.1103 225.291 18.5059C225.303 18.8598 225.406 19.1324 225.601 19.3237C225.805 19.5146 226.074 19.6042 226.407 19.5926C227.261 19.5628 228.177 19.0774 229.155 18.1364C230.133 17.1955 231.096 15.8017 232.042 13.955ZM244.224 8.21385C244.922 8.1895 245.643 8.2581 246.389 8.41968C247.134 8.57084 247.819 8.78145 248.443 9.05149C249.068 9.31112 249.584 9.611 249.991 9.95114C250.399 10.2913 250.609 10.6279 250.621 10.961C250.627 11.1276 250.56 11.3175 250.422 11.5308C250.283 11.7337 250.113 11.9325 249.911 12.1271C249.709 12.3114 249.485 12.4703 249.24 12.604C249.004 12.7269 248.793 12.7916 248.606 12.7981C248.356 12.8068 248.071 12.7125 247.751 12.5152C247.442 12.3176 247.096 12.1004 246.712 11.8636C246.339 11.6161 245.93 11.3958 245.486 11.2029C245.041 11.01 244.564 10.9224 244.054 10.9402C243.72 10.9518 243.448 11.0448 243.235 11.219C243.032 11.3824 242.936 11.6098 242.946 11.9013C242.955 12.1616 243.089 12.4227 243.348 12.6846C243.607 12.9362 243.945 13.1954 244.361 13.4623C244.787 13.7288 245.266 14.0092 245.797 14.3033C246.328 14.5974 246.871 14.912 247.425 15.2471C247.989 15.5817 248.538 15.9482 249.073 16.3464C249.609 16.7447 250.088 17.1814 250.511 17.6565C250.944 18.1312 251.296 18.6557 251.566 19.23C251.836 19.7938 251.983 20.4141 252.006 21.0907C252.027 21.6737 251.941 22.2083 251.75 22.6944C251.558 23.1806 251.276 23.6021 250.903 23.9591C250.53 24.3161 250.081 24.5976 249.556 24.8035C249.032 25.0094 248.452 25.1235 247.817 25.1456C247.016 25.1736 246.272 25.0745 245.587 24.8483C244.902 24.6325 244.307 24.3197 243.803 23.91C243.299 23.5003 242.896 23.0036 242.594 22.42C242.303 21.8361 242.145 21.1902 242.12 20.4823C242.088 19.5662 242.226 18.8943 242.534 18.4666C242.853 18.0385 243.366 17.8122 244.074 17.7874C244.511 17.7722 244.863 17.8433 245.129 18.0007C245.395 18.1582 245.532 18.3567 245.54 18.5961C245.545 18.721 245.529 18.8519 245.492 18.9887C245.454 19.1151 245.412 19.252 245.365 19.3996C245.328 19.5364 245.292 19.6836 245.256 19.8412C245.23 19.9984 245.22 20.1551 245.225 20.3113C245.235 20.582 245.306 20.84 245.44 21.0855C245.573 21.331 245.748 21.5438 245.962 21.7239C246.188 21.9141 246.443 22.0615 246.728 22.1662C247.013 22.2709 247.312 22.3178 247.624 22.3069C248.457 22.2778 248.862 21.9197 248.838 21.2327C248.819 20.6913 248.587 20.1887 248.144 19.7247C247.7 19.2503 247.147 18.7954 246.486 18.3598C245.824 17.9139 245.11 17.4698 244.344 17.0275C243.589 16.5849 242.879 16.1198 242.216 15.6322C241.553 15.1446 240.998 14.622 240.551 14.0644C240.104 13.4963 239.869 12.8739 239.845 12.1972C239.825 11.6351 239.922 11.1158 240.134 10.6393C240.358 10.1625 240.666 9.75042 241.061 9.40311C241.455 9.04539 241.919 8.76339 242.454 8.5571C242.999 8.35044 243.589 8.23603 244.224 8.21385ZM259.11 21.6869C258.485 21.7087 257.855 21.5796 257.22 21.2995C256.585 21.009 255.971 20.6083 255.38 20.0974C254.789 19.5864 254.236 18.9804 253.722 18.2791C253.207 17.5675 252.753 16.8016 252.36 15.9815C251.966 15.151 251.649 14.2813 251.409 13.3725C251.168 12.4637 251.032 11.5512 251 10.6351C250.976 9.92719 251.104 9.4172 251.385 9.10512C251.665 8.78263 252.133 8.60994 252.789 8.58704C253.612 8.55832 254.082 8.88066 254.199 9.55406C254.436 10.9841 254.742 12.2711 255.115 13.415C255.489 14.559 255.914 15.5291 256.39 16.3255C256.876 17.1215 257.403 17.7285 257.97 18.1464C258.547 18.564 259.148 18.7619 259.773 18.7401C260.221 18.7245 260.638 18.6005 261.026 18.368C261.414 18.1252 261.746 17.7957 262.024 17.3795C262.122 17.2197 262.185 17.0664 262.211 16.9196C262.247 16.7724 262.273 16.6047 262.287 16.4166C262.313 15.6756 262.345 14.9501 262.383 14.24C262.431 13.5192 262.473 12.7985 262.511 12.078C262.521 11.765 262.553 11.5085 262.609 11.3085C262.665 11.1085 262.753 10.9491 262.874 10.8302C262.995 10.7113 263.153 10.6276 263.35 10.5791C263.556 10.5302 263.816 10.5003 264.128 10.4893C264.482 10.477 264.786 10.5185 265.039 10.6139C265.293 10.6988 265.501 10.8531 265.665 11.0767C265.829 11.2899 265.949 11.5775 266.024 11.9397C266.109 12.2911 266.161 12.7323 266.179 13.2632C266.195 13.7213 266.173 14.1233 266.112 14.4694C266.061 14.8047 265.994 15.125 265.911 15.4301C265.838 15.7245 265.765 16.0189 265.692 16.3133C265.629 16.597 265.593 16.9109 265.584 17.2552C265.562 18.121 265.541 18.8722 265.522 19.5087C265.502 20.1348 265.484 20.6722 265.469 21.1209C265.464 21.5693 265.456 21.9552 265.447 22.2786C265.448 22.6017 265.447 22.8884 265.445 23.1386C265.444 23.3992 265.448 23.644 265.455 23.8731C265.463 24.1021 265.472 24.3519 265.482 24.6226C265.499 25.1119 265.538 25.6421 265.6 26.2132C265.662 26.7947 265.723 27.3502 265.783 27.8797C265.854 28.4088 265.917 28.8756 265.973 29.2802C266.028 29.6847 266.059 29.9651 266.065 30.1212C266.071 30.319 266.016 30.5086 265.897 30.6899C265.778 30.8713 265.617 31.0332 265.413 31.1758C265.21 31.3185 264.969 31.4311 264.69 31.5138C264.412 31.6069 264.117 31.6589 263.805 31.6698C263.534 31.6792 263.312 31.5932 263.139 31.4116C262.977 31.2401 262.88 31.0037 262.849 30.7026C262.803 30.3081 262.761 29.8249 262.72 29.2531C262.679 28.6916 262.637 28.0886 262.594 27.4438C262.551 26.8095 262.513 26.1594 262.479 25.4935C262.456 24.8377 262.429 24.2237 262.399 23.6515C262.369 23.0897 262.347 22.5954 262.332 22.1685C262.317 21.7417 262.306 21.4346 262.299 21.2472C262.293 21.0598 262.268 20.9304 262.223 20.859C262.179 20.7772 262.099 20.7383 261.985 20.7423C261.922 20.7445 261.84 20.7682 261.737 20.8135C261.634 20.8483 261.516 20.9098 261.384 20.9978C261.027 21.2291 260.663 21.3982 260.292 21.505C259.92 21.6117 259.526 21.6724 259.11 21.6869ZM276.981 16.7946C276.95 16.7957 276.898 16.8027 276.826 16.8157C276.763 16.8283 276.691 16.8412 276.608 16.8546C276.535 16.8675 276.463 16.8805 276.39 16.8934C276.318 16.9064 276.261 16.9136 276.219 16.915C275.928 16.9252 275.669 16.8144 275.442 16.5826C275.214 16.3404 275.093 16.0163 275.079 15.6103C275.07 15.3396 275.149 15.0763 275.317 14.8202C275.486 14.5642 275.754 14.3464 276.123 14.1667C276.236 14.1107 276.322 14.0503 276.383 13.9857C276.453 13.9103 276.486 13.8101 276.482 13.6852C276.47 13.352 276.447 12.9984 276.413 12.6244C276.389 12.2396 276.353 11.7927 276.304 11.2837C276.29 11.1799 276.25 11.0823 276.184 10.9908C276.129 10.8989 276.063 10.797 275.986 10.685C275.919 10.5623 275.857 10.4289 275.8 10.285C275.743 10.1411 275.711 9.95981 275.703 9.74119C275.696 9.54339 275.714 9.31866 275.758 9.067C275.811 8.80456 275.922 8.56094 276.092 8.33614C276.271 8.10057 276.52 7.90428 276.837 7.74727C277.165 7.57948 277.594 7.48631 278.125 7.46777C278.344 7.46014 278.527 7.4746 278.674 7.51115C278.821 7.5477 278.948 7.59539 279.054 7.65422C279.17 7.70227 279.271 7.74566 279.356 7.7844C279.451 7.82277 279.545 7.84031 279.639 7.83704C279.805 7.83123 280.137 7.78836 280.635 7.70845C281.132 7.62854 281.728 7.51915 282.421 7.38028C283.125 7.24104 283.896 7.08383 284.735 6.90864C285.583 6.73309 286.442 6.54676 287.31 6.34965C288.179 6.14214 289.026 5.93536 289.853 5.7293C290.679 5.52324 291.428 5.32511 292.099 5.13492C292.305 5.0756 292.487 5.04321 292.643 5.03776C292.861 5.03012 293.035 5.07617 293.164 5.17592C293.302 5.26488 293.405 5.38115 293.473 5.52471C293.54 5.66827 293.583 5.83357 293.6 6.02059C293.627 6.19684 293.643 6.36304 293.648 6.51919C293.658 6.78986 293.573 7.04819 293.394 7.29417C293.225 7.52937 292.935 7.72192 292.523 7.87179C291.503 8.20968 290.471 8.5115 289.428 8.77724C288.394 9.03221 287.35 9.27193 286.295 9.4964C285.239 9.71045 284.177 9.90908 283.11 10.0923C282.043 10.2755 280.981 10.4585 279.924 10.6413C279.779 10.6672 279.672 10.7283 279.602 10.8245C279.533 10.9103 279.5 11.0261 279.505 11.1719L279.528 11.8121C279.534 11.9891 279.545 12.1711 279.562 12.3581C279.579 12.5451 279.606 12.7162 279.643 12.8712C279.69 13.0259 279.746 13.1542 279.812 13.2562C279.878 13.3477 279.963 13.3916 280.067 13.388C280.317 13.3793 280.7 13.3137 281.217 13.1915C281.745 13.0688 282.334 12.9232 282.984 12.7545C283.645 12.5751 284.332 12.3844 285.044 12.1823C285.766 11.9695 286.447 11.7789 287.088 11.6106C287.728 11.4319 288.29 11.282 288.776 11.1608C289.262 11.0396 289.603 10.9756 289.801 10.9687C290.093 10.9585 290.315 11.0602 290.469 11.2737C290.632 11.4764 290.745 11.7383 290.809 12.0592C290.81 12.1112 290.817 12.1579 290.829 12.1992C290.841 12.2404 290.848 12.2871 290.85 12.3392C290.86 12.6411 290.776 12.9254 290.598 13.1922C290.43 13.4482 290.114 13.6469 289.65 13.7882C289.526 13.8342 289.279 13.9106 288.907 14.0174C288.535 14.1137 288.096 14.2333 287.591 14.376C287.085 14.5083 286.537 14.6525 285.949 14.8086C285.36 14.9646 284.782 15.1203 284.214 15.2757C283.646 15.4206 283.114 15.5642 282.618 15.7066C282.133 15.8382 281.736 15.9459 281.426 16.0297C281.147 16.1124 280.978 16.1756 280.917 16.2194C280.866 16.2629 280.842 16.3159 280.844 16.3783C280.873 16.6066 280.995 16.816 281.21 17.0066C281.435 17.1967 281.712 17.3694 282.041 17.5247C282.38 17.6797 282.755 17.8177 283.165 17.9389C283.587 18.0597 284.017 18.1593 284.458 18.2377C284.908 18.3053 285.348 18.3577 285.777 18.3949C286.205 18.432 286.602 18.4443 286.966 18.4315C287.122 18.4261 287.346 18.4183 287.638 18.4081C287.929 18.3979 288.246 18.3816 288.59 18.3592C288.943 18.326 289.301 18.2875 289.664 18.2435C290.038 18.1992 290.37 18.1459 290.659 18.0837C290.959 18.0107 291.201 17.9293 291.386 17.8394C291.58 17.7388 291.675 17.6261 291.671 17.5011C291.667 17.3866 291.621 17.2684 291.534 17.1463C291.456 17.024 291.415 16.8899 291.41 16.7442C291.403 16.536 291.453 16.331 291.561 16.1292C291.668 15.917 291.807 15.7297 291.979 15.5673C292.16 15.3942 292.364 15.2568 292.59 15.1552C292.825 15.0427 293.063 14.9823 293.303 14.9739C293.604 14.9634 293.882 15.0162 294.137 15.1324C294.391 15.2382 294.609 15.3869 294.793 15.5785C294.987 15.7593 295.135 15.9731 295.238 16.2196C295.351 16.4658 295.412 16.7191 295.421 16.9793C295.445 17.6664 295.21 18.2687 294.718 18.7862C294.235 19.3034 293.594 19.7375 292.793 20.0886C291.993 20.45 291.085 20.7267 290.071 20.9185C289.056 21.1206 288.034 21.2397 287.003 21.2757C285.795 21.3179 284.689 21.2731 283.684 21.1415C282.679 21.0202 281.775 20.7964 280.971 20.4701C280.168 20.1438 279.47 19.7096 278.878 19.1674C278.285 18.6148 277.792 17.9389 277.4 17.1396C277.266 16.9045 277.127 16.7895 276.981 16.7946Z" fill="white" fill-opacity="0.7"/>
<path d="M202.974 28.713C219.658 30.3699 237.015 31.0034 253.616 29.169M271.5 27.5C275.327 27.1958 298.154 25.572 301.928 25.3192" stroke="#7100FC" stroke-width="3" stroke-linecap="round"/>
</svg>
