<svg width="304" height="42" viewBox="0 0 304 42" fill="none" xmlns="http://www.w3.org/2000/svg">
<path d="M4.71294 24.6605C4.18852 23.9701 3.69159 23.3203 3.22213 22.7114C2.76272 22.0916 2.357 21.5169 2.00497 20.9872C1.65257 20.447 1.37468 19.9512 1.1713 19.4997C0.957507 19.0486 0.844068 18.6356 0.830981 18.2608C0.824437 18.0735 0.900631 17.8675 1.05956 17.6431C1.20772 17.4086 1.38783 17.1939 1.59991 16.9989C1.81162 16.7934 2.0298 16.6243 2.25447 16.4913C2.48918 16.3476 2.68461 16.2731 2.84077 16.2676C3.21554 16.2545 3.54644 16.4775 3.83347 16.9365C3.95561 17.1511 4.13865 17.4678 4.38259 17.8867C4.63656 18.2947 4.92916 18.764 5.26037 19.2944C5.59122 19.8144 5.95476 20.375 6.35098 20.9761C6.75725 21.5665 7.16872 22.1566 7.5854 22.7466C8.01248 23.3362 8.43364 23.9052 8.84886 24.4535C9.27413 24.9911 9.6764 25.4669 10.0557 25.881C10.4453 26.2948 10.8009 26.6263 11.1223 26.8757C11.4537 27.1143 11.734 27.2295 11.963 27.2216C12.2649 27.211 12.5335 26.9932 12.7688 26.568C13.0041 26.1429 13.214 25.5884 13.3986 24.9044C13.5936 24.2201 13.7595 23.4482 13.8962 22.5888C14.0326 21.7189 14.1478 20.8393 14.2419 19.9501C14.3463 19.0605 14.431 18.2028 14.496 17.3772C14.5606 16.5411 14.6132 15.8096 14.6539 15.1828C14.6735 14.8486 14.7584 14.5955 14.9088 14.4234C15.0587 14.241 15.2586 14.1454 15.5085 14.1367C15.7271 14.1291 15.9682 14.1676 16.2317 14.2522C16.4952 14.3368 16.7444 14.4584 16.9793 14.6169C17.2138 14.7651 17.4077 14.9459 17.5611 15.1595C17.7245 15.3622 17.8106 15.5885 17.8193 15.8384C17.8327 16.2235 17.8121 16.6777 17.7574 17.2007C17.7131 17.7234 17.6491 18.2781 17.5654 18.8647C17.4917 19.4405 17.4029 20.0325 17.2991 20.6407C17.1949 21.2384 17.0896 21.805 16.9832 22.3402C16.913 22.7179 16.8148 23.1904 16.6887 23.7576C16.5727 24.3141 16.4214 24.9083 16.235 25.5402C16.0483 26.1617 15.8253 26.7896 15.566 27.4241C15.3064 28.0481 15.0031 28.6163 14.6562 29.1287C14.3089 29.6307 13.9115 30.0407 13.464 30.3586C13.0273 30.6865 12.5278 30.8603 11.9657 30.8799C11.5597 30.8941 11.134 30.7943 10.6888 30.5806C10.2439 30.3772 9.79653 30.101 9.34658 29.7519C8.89662 29.4028 8.45023 29.0067 8.00741 28.5635C7.56423 28.11 7.14169 27.6505 6.73978 27.1851C6.33788 26.7196 5.96254 26.2689 5.61378 25.8329C5.26465 25.3865 4.96437 24.9957 4.71294 24.6605ZM30.3044 16.0903C30.877 16.0703 31.4318 16.1395 31.9689 16.2979C32.5061 16.4564 32.9831 16.6847 33.4 16.9828C33.8169 17.2809 34.1527 17.6444 34.4074 18.0733C34.6725 18.5018 34.8143 18.9815 34.8329 19.5125C34.8405 19.7311 34.7959 19.9463 34.6991 20.1581C34.6123 20.3592 34.4883 20.5407 34.3272 20.7027C34.1658 20.8543 33.9773 20.9807 33.762 21.082C33.5567 21.1726 33.3395 21.2219 33.1105 21.2299C33.0897 21.2306 33.0691 21.2365 33.0486 21.2477C33.0382 21.248 33.0226 21.2486 33.0017 21.2493C32.9813 21.2604 32.9607 21.2664 32.9398 21.2671L33.0459 22.5141C33.1395 24.0014 33.3857 25.082 33.7845 25.756C34.1937 26.4296 34.7054 26.7557 35.3196 26.7342C35.5382 26.7266 35.7301 26.6991 35.8952 26.6516C36.0707 26.6038 36.2304 26.5513 36.3743 26.4942C36.5283 26.4262 36.6722 26.3691 36.8061 26.3227C36.94 26.2764 37.0746 26.2508 37.2099 26.2461C37.4494 26.2377 37.6612 26.3346 37.8455 26.5366C38.0401 26.7383 38.1425 26.9848 38.1527 27.2763C38.1629 27.5678 38.0586 27.8633 37.8397 28.1628C37.6313 28.4619 37.3491 28.7376 36.9931 28.9897C36.6367 29.2315 36.232 29.4332 35.7791 29.595C35.3261 29.7567 34.8654 29.8457 34.3969 29.8621C33.5849 29.8905 32.8602 29.5822 32.2227 28.9374C31.5849 28.2822 31.1131 27.3085 30.8074 26.0163C30.7377 25.8103 30.6508 25.7091 30.5466 25.7127C30.4217 25.7171 30.3146 25.7833 30.2253 25.9115C29.2401 27.2488 28.176 28.2657 27.0329 28.9623C25.8895 29.6485 24.7504 30.0114 23.6157 30.051C23.0848 30.0695 22.6032 30.0082 22.1709 29.8669C21.7386 29.7257 21.3666 29.5198 21.0549 29.2492C20.7532 28.9679 20.512 28.6272 20.3313 28.227C20.1606 27.816 20.0663 27.3555 20.0485 26.8454C20.0234 26.1271 20.1532 25.3669 20.4379 24.5648C20.733 23.7623 21.1378 22.9665 21.6522 22.1772C22.1667 21.3879 22.7656 20.6322 23.4492 19.91C24.1431 19.1874 24.8712 18.547 25.6335 17.9888C26.4061 17.4303 27.193 16.9807 27.9941 16.64C28.7952 16.2993 29.5653 16.1161 30.3044 16.0903ZM29.9778 21.5112C30.1528 21.1507 30.3157 20.8897 30.4664 20.7281C30.6167 20.5561 30.8367 20.4389 31.1264 20.3767C31.3543 20.3375 31.4663 20.2606 31.4623 20.1461C31.4594 20.0628 31.4251 19.9754 31.3593 19.8839C31.1521 19.6201 30.9357 19.3932 30.7102 19.203C30.4843 19.0025 30.1892 18.9085 29.8248 18.9213C29.4292 18.9351 28.9908 19.065 28.5095 19.3111C28.0282 19.5573 27.5392 19.8818 27.0426 20.2848C26.556 20.677 26.0766 21.1263 25.6044 21.6327C25.1422 22.1283 24.7327 22.6377 24.3757 23.1609C24.0187 23.6841 23.7345 24.1995 23.5229 24.7072C23.3113 25.2149 23.2124 25.6665 23.2263 26.0621C23.2386 26.4161 23.3419 26.6887 23.5362 26.8799C23.7409 27.0708 24.0099 27.1605 24.343 27.1488C25.1966 27.119 26.1125 26.6336 27.0907 25.6927C28.0689 24.7517 29.0313 23.3579 29.9778 21.5112ZM26.5072 13.909C26.2053 13.9195 25.9176 13.8879 25.644 13.814C25.3805 13.7294 25.1471 13.6125 24.9439 13.4633C24.7507 13.3032 24.593 13.1159 24.4708 12.9013C24.3487 12.6867 24.2831 12.4493 24.274 12.189C24.2587 11.7518 24.4181 11.3918 24.7522 11.1091C25.0967 10.8261 25.5604 10.6744 26.1434 10.6541C26.4141 10.6446 26.6762 10.6876 26.9297 10.783C27.1828 10.8679 27.4059 10.9904 27.5991 11.1504C27.8028 11.3101 27.9658 11.5024 28.0883 11.7275C28.2105 11.9421 28.2757 12.1691 28.2841 12.4086C28.2997 12.8562 28.1455 13.216 27.8215 13.4879C27.5075 13.749 27.0694 13.8893 26.5072 13.909ZM31.9414 13.7192C31.6395 13.7298 31.3518 13.6981 31.0782 13.6243C30.8147 13.5397 30.5813 13.4228 30.378 13.2735C30.1848 13.1135 30.0272 12.9262 29.905 12.7115C29.7829 12.4969 29.7173 12.2595 29.7082 11.9992C29.6929 11.562 29.8523 11.202 30.1864 10.9194C30.5309 10.6364 30.9946 10.4847 31.5776 10.4643C31.8483 10.4549 32.1104 10.4978 32.3638 10.5932C32.617 10.6782 32.8401 10.8007 33.0333 10.9607C33.2369 11.1203 33.4 11.3127 33.5225 11.5377C33.6447 11.7523 33.7099 11.9794 33.7183 12.2188C33.7339 12.6664 33.5797 13.0262 33.2557 13.2981C32.9417 13.5592 32.5036 13.6996 31.9414 13.7192ZM37.2806 11.7035C37.2617 11.1622 37.4044 10.7716 37.7087 10.5316C38.013 10.2917 38.5243 10.1592 39.2426 10.1341C39.4925 10.1254 39.712 10.1438 39.9012 10.1893C40.0904 10.2348 40.2497 10.3178 40.3789 10.4384C40.5079 10.5485 40.6124 10.7064 40.6925 10.9121C40.7827 11.107 40.8593 11.3597 40.9223 11.6702C41.09 12.592 41.2593 13.5606 41.4302 14.5761C41.6112 15.5808 41.7818 16.5859 41.942 17.5913C42.1123 18.586 42.2714 19.5602 42.4193 20.5139C42.5669 21.4573 42.6967 22.3387 42.8087 23.1582C42.9308 23.9669 43.0237 24.6881 43.0875 25.3217C43.1614 25.9445 43.2047 26.438 43.2174 26.8024C43.2305 27.1772 43.2051 27.496 43.1414 27.7588C43.088 28.0212 42.9807 28.2334 42.8196 28.3954C42.6689 28.557 42.4647 28.6788 42.207 28.7607C41.9593 28.8319 41.6481 28.8741 41.2733 28.8871C40.909 28.8999 40.6142 28.8164 40.3891 28.6366C40.1743 28.4565 40.0602 28.1738 40.0468 27.7887C40.0329 27.3931 39.9834 26.8684 39.898 26.2148C39.8123 25.5507 39.7032 24.8145 39.5707 24.0061C39.4383 23.1977 39.2884 22.3379 39.121 21.4265C38.9641 20.5147 38.7972 19.6138 38.6201 18.7236C38.4536 17.833 38.2882 16.9789 38.1242 16.1612C37.9702 15.3327 37.83 14.6028 37.7037 13.9714C37.5771 13.3296 37.4755 12.8068 37.3988 12.403C37.3218 11.9887 37.2824 11.7556 37.2806 11.7035ZM46.7291 28.8686C46.6975 27.9629 46.6371 26.98 46.548 25.92C46.4589 24.86 46.3538 23.7901 46.2327 22.7103C46.1216 21.6198 46.0011 20.5556 45.871 19.5179C45.7514 18.4797 45.6349 17.5301 45.5214 16.669C45.4184 15.8074 45.3299 15.0653 45.256 14.4425C45.1822 13.8197 45.1409 13.3834 45.1322 13.1335C45.1176 12.7171 45.2627 12.3941 45.5674 12.1646C45.872 11.9351 46.3211 11.81 46.9144 11.7892C47.1747 11.7801 47.3942 11.7985 47.573 11.8444C47.7622 11.8899 47.9163 11.9731 48.0351 12.0941C48.154 12.215 48.2483 12.3785 48.3181 12.5845C48.3978 12.7797 48.4586 13.0278 48.5004 13.3286C48.5566 13.7435 48.6086 14.1899 48.6566 14.6677C48.7042 15.1351 48.7541 15.6701 48.8065 16.2728C48.8692 16.8752 48.9346 17.5556 49.0028 18.3141C49.071 19.0726 49.1536 19.9452 49.2506 20.932C49.2557 21.0778 49.2853 21.181 49.3396 21.2416C49.3938 21.3023 49.4521 21.3315 49.5146 21.3293C49.6291 21.3253 49.7299 21.228 49.8171 21.0373C50.6391 19.2054 51.5176 17.7989 52.4527 16.8178C53.3874 15.8262 54.3128 15.3144 55.2289 15.2824C55.7703 15.2635 56.2027 15.41 56.5263 15.7218C56.8499 16.0336 57.0211 16.4602 57.04 17.0015C57.0604 17.5845 56.9492 18.1304 56.7063 18.6392C56.4736 19.1372 56.1722 19.6115 55.8023 20.0622C55.4428 20.5125 55.046 20.9381 54.6118 21.3389C54.188 21.7394 53.7899 22.1285 53.4174 22.5063C53.0554 22.8838 52.7504 23.254 52.5025 23.617C52.2647 23.9693 52.1519 24.3224 52.1643 24.6764C52.1755 24.9991 52.3746 25.3257 52.7613 25.6561C53.1581 25.9758 53.7215 26.2897 54.4515 26.5977C55.1811 26.8954 56.0718 27.1822 57.1238 27.4581C58.1753 27.7237 59.3671 27.9739 60.699 28.2088C60.909 28.2536 61.0577 28.3318 61.145 28.4434C61.2427 28.5546 61.2948 28.7039 61.3013 28.8913C61.3093 29.1203 61.2654 29.3564 61.1697 29.5995C61.0743 29.8529 60.952 30.0813 60.8028 30.2846C60.6539 30.4982 60.4827 30.671 60.2893 30.8028C60.1066 30.9447 59.9268 31.0187 59.7498 31.0249C59.3959 31.0372 58.9726 31.0051 58.4801 30.9285C57.9875 30.8519 57.452 30.7403 56.8737 30.5937C56.306 30.4572 55.7165 30.2902 55.1051 30.0927C54.494 29.9055 53.8978 29.6971 53.3166 29.4672C52.746 29.2474 52.2012 29.0163 51.682 28.7738C51.1728 28.5206 50.7315 28.2702 50.3581 28.0227C50.2414 27.9642 50.1459 27.9155 50.0716 27.8764C50.0076 27.8369 49.9497 27.8181 49.8976 27.8199C49.8351 27.8221 49.7996 27.8494 49.791 27.9018C49.7821 27.9438 49.7801 28.0377 49.7852 28.1834C49.7979 28.5478 49.7771 28.8456 49.7226 29.0768C49.6786 29.3076 49.591 29.4879 49.4601 29.6175C49.3295 29.7576 49.1453 29.8578 48.9077 29.9182C48.6701 29.9786 48.3743 30.015 48.0204 30.0274C47.5519 30.0437 47.2209 29.9667 47.0273 29.7963C46.8442 29.6255 46.7448 29.3163 46.7291 28.8686ZM60.0976 23.5238C60.0915 23.3468 60.1054 23.1483 60.1394 22.9282C60.1734 22.7082 60.1858 22.468 60.1768 22.2077C60.1706 22.0308 60.0878 21.8982 59.9283 21.8099C59.7793 21.7213 59.6091 21.623 59.4177 21.5151C59.2264 21.4071 59.0495 21.2673 58.8872 21.0958C58.7352 20.9239 58.6535 20.6714 58.6418 20.3383C58.6335 20.0989 58.6876 19.8572 58.8041 19.6134C58.9311 19.3693 59.1161 19.1439 59.359 18.9374C59.9572 18.4579 60.5779 18.0245 61.221 17.6373C61.8745 17.2496 62.5249 16.9194 63.172 16.6467C63.8295 16.3736 64.4787 16.1581 65.1194 16.0002C65.7601 15.8423 66.3771 15.753 66.9705 15.7323C67.9699 15.6974 68.9134 15.8521 69.8009 16.1963C70.6985 16.5298 71.4813 17.008 72.1493 17.6309C72.8273 18.243 73.3688 18.9745 73.7738 19.8255C74.1888 20.6657 74.4133 21.5751 74.4475 22.5537C74.481 23.5114 74.3098 24.4294 73.9339 25.3076C73.5682 26.1751 73.0582 26.9434 72.4041 27.6124C71.7499 28.2815 70.9714 28.8194 70.0683 29.2262C69.1761 29.643 68.2251 29.869 67.2153 29.9043C66.2263 29.9388 65.3044 29.8042 64.4495 29.5006C63.5946 29.1969 62.8499 28.7643 62.2153 28.2027C61.5804 27.6308 61.0772 26.95 60.7056 26.1604C60.3338 25.3604 60.1311 24.4815 60.0976 23.5238ZM67.4607 27.0815C67.8979 27.0662 68.3476 26.9619 68.8099 26.7686C69.2722 26.5753 69.6901 26.3053 70.0637 25.9587C70.4473 25.6014 70.7555 25.1737 70.9882 24.6757C71.2314 24.1773 71.3423 23.621 71.3208 23.0068C71.299 22.3822 71.1641 21.8032 70.9162 21.2699C70.6683 20.7365 70.3344 20.2791 69.9146 19.8977C69.5048 19.5055 69.02 19.2046 68.4603 18.9948C67.911 18.7847 67.3188 18.6907 66.6837 18.7129C65.5282 18.7532 64.6539 19.086 64.0607 19.7113C63.4673 20.3261 63.1921 21.253 63.2354 22.4918C63.259 23.1685 63.3799 23.7948 63.5981 24.3709C63.8263 24.9362 64.13 25.4259 64.5093 25.84C64.8882 26.2437 65.3265 26.5567 65.8241 26.7791C66.3322 27.001 66.8777 27.1019 67.4607 27.0815ZM78.1038 28.758C77.9826 27.3759 77.8183 26.1048 77.611 24.9447C77.4138 23.7738 77.2114 22.7542 77.0039 21.8859C76.8068 21.0173 76.6311 20.3146 76.4769 19.778C76.3331 19.241 76.2588 18.9049 76.2541 18.7696C76.2471 18.5718 76.3133 18.3766 76.4525 18.1841C76.6021 17.9913 76.7891 17.8232 77.0134 17.6799C77.2373 17.5261 77.4779 17.4031 77.7353 17.3107C78.0031 17.218 78.2462 17.1678 78.4649 17.1602C78.6418 17.154 78.7939 17.1799 78.921 17.238C79.0585 17.2958 79.1558 17.3966 79.213 17.5405C79.2712 17.7157 79.3246 17.9014 79.3731 18.0978C79.4317 18.2834 79.4918 18.5106 79.5533 18.7794C79.6292 19.1624 79.7192 19.3521 79.8233 19.3485C79.9378 19.3445 80.062 19.1682 80.1957 18.8195C80.3872 18.3334 80.5972 17.93 80.8257 17.6093C81.0543 17.2886 81.3008 17.0351 81.5653 16.8486C81.8398 16.6514 82.1215 16.5113 82.4105 16.4283C82.7098 16.3449 83.0209 16.2975 83.3436 16.2862C84.3222 16.2521 85.1632 16.6084 85.8668 17.3551C86.5808 18.1015 87.1558 19.1966 87.5919 20.6406C87.6498 20.8054 87.7004 20.9131 87.7439 20.9636C87.787 21.0038 87.8345 21.023 87.8866 21.0212C87.9387 21.0194 87.99 20.9967 88.0406 20.9533C88.1012 20.8991 88.155 20.7982 88.202 20.6506C88.4282 19.9652 88.6997 19.3825 89.0165 18.9024C89.3329 18.4118 89.663 18.0147 90.0067 17.7108C90.3606 17.3962 90.7225 17.1647 91.0925 17.0163C91.4626 16.8678 91.8194 16.7876 92.1629 16.7756C92.7979 16.7534 93.3787 16.9677 93.9052 17.4183C94.4417 17.8582 94.9246 18.5553 95.354 19.5097C95.7935 20.4532 96.1847 21.6591 96.5279 23.1272C96.881 24.5845 97.1918 26.3195 97.4601 28.3322C97.4797 28.8943 97.3216 29.2907 96.9857 29.5213C96.6501 29.7624 96.1857 29.8932 95.5923 29.9139C95.2071 29.9274 94.9023 29.8547 94.6778 29.6957C94.4534 29.5368 94.3209 29.3225 94.2802 29.053C94.0943 27.6107 93.8985 26.3303 93.6926 25.2118C93.4969 24.0825 93.2918 23.1359 93.0775 22.3721C92.8629 21.5979 92.634 21.0118 92.3907 20.6138C92.158 20.2154 91.9062 20.0209 91.6356 20.0304C91.5002 20.0351 91.3319 20.14 91.1306 20.3451C90.9397 20.5498 90.739 20.9216 90.5285 21.4605C90.3177 21.989 90.1033 22.7157 89.8855 23.6405C89.6673 24.555 89.4684 25.7241 89.2888 27.1479C89.2401 27.5456 89.0581 27.8543 88.7426 28.0737C88.4376 28.2929 88.056 28.4104 87.598 28.4264C87.0671 28.445 86.6946 28.3746 86.4806 28.2153C86.2769 28.0556 86.1578 27.7784 86.1232 27.3835C86.0576 26.6979 85.9609 26.0185 85.8331 25.3455C85.7155 24.6617 85.573 24.0152 85.4058 23.4061C85.2383 22.7866 85.0569 22.2196 84.8618 21.7053C84.6662 21.1806 84.4629 20.7291 84.2516 20.3508C84.04 19.9621 83.8263 19.6621 83.6104 19.4507C83.3946 19.2394 83.1878 19.1372 82.99 19.1441C82.7297 19.1532 82.481 19.3442 82.2439 19.7173C82.0172 20.0901 81.8166 20.613 81.642 21.2862C81.4779 21.959 81.355 22.7658 81.2732 23.7068C81.1914 24.6477 81.1707 25.6959 81.211 26.8515C81.2179 27.0493 81.23 27.2469 81.2473 27.4443C81.2643 27.6313 81.2764 27.829 81.2837 28.0372C81.2946 28.3495 81.2514 28.6063 81.1542 28.8078C81.0675 29.0088 80.9324 29.1699 80.749 29.291C80.576 29.4117 80.3705 29.497 80.1325 29.547C79.8946 29.597 79.635 29.6269 79.354 29.6367C79.0937 29.6458 78.8848 29.6323 78.7272 29.5961C78.5699 29.5703 78.4484 29.5224 78.3625 29.4525C78.2767 29.3825 78.216 29.2856 78.1804 29.1618C78.1452 29.0484 78.1196 28.9137 78.1038 28.758ZM100.809 27.9651C100.687 26.5831 100.523 25.312 100.316 24.1518C100.119 22.9809 99.9163 21.9613 99.7088 21.093C99.5117 20.2244 99.336 19.5218 99.1818 18.9851C99.038 18.4482 98.9637 18.112 98.959 17.9767C98.9521 17.7789 99.0182 17.5837 99.1574 17.3913C99.307 17.1984 99.494 17.0303 99.7183 16.887C99.9422 16.7333 100.183 16.6102 100.44 16.5178C100.708 16.4251 100.951 16.3749 101.17 16.3673C101.347 16.3611 101.499 16.3871 101.626 16.4452C101.763 16.5029 101.861 16.6037 101.918 16.7477C101.976 16.9228 102.029 17.1086 102.078 17.3049C102.137 17.4905 102.197 17.7177 102.258 17.9865C102.334 18.3695 102.424 18.5592 102.528 18.5556C102.643 18.5516 102.767 18.3753 102.901 18.0266C103.092 17.5405 103.302 17.1371 103.531 16.8164C103.759 16.4958 104.006 16.2422 104.27 16.0558C104.545 15.8586 104.826 15.7184 105.115 15.6354C105.415 15.552 105.726 15.5046 106.048 15.4934C107.027 15.4592 107.868 15.8155 108.572 16.5622C109.286 17.3086 109.861 18.4038 110.297 19.8478C110.355 20.0125 110.405 20.1202 110.449 20.1708C110.492 20.211 110.539 20.2301 110.592 20.2283C110.644 20.2265 110.695 20.2039 110.745 20.1604C110.806 20.1062 110.86 20.0053 110.907 19.8577C111.133 19.1723 111.405 18.5896 111.721 18.1095C112.038 17.619 112.368 17.2218 112.712 16.9179C113.065 16.6033 113.427 16.3718 113.797 16.2234C114.167 16.075 114.524 15.9947 114.868 15.9828C115.503 15.9606 116.084 16.1748 116.61 16.6255C117.147 17.0653 117.63 17.7625 118.059 18.7168C118.498 19.6604 118.89 20.8662 119.233 22.3343C119.586 23.7916 119.897 25.5266 120.165 27.5393C120.185 28.1015 120.026 28.4978 119.691 28.7285C119.355 28.9695 118.891 29.1004 118.297 29.1211C117.912 29.1345 117.607 29.0618 117.383 28.9029C117.158 28.7439 117.026 28.5297 116.985 28.2601C116.799 26.8178 116.603 25.5374 116.398 24.4189C116.202 23.2896 115.997 22.3431 115.782 21.5792C115.568 20.805 115.339 20.2189 115.096 19.8209C114.863 19.4225 114.611 19.2281 114.34 19.2375C114.205 19.2422 114.037 19.3471 113.836 19.5522C113.645 19.7569 113.444 20.1287 113.233 20.6676C113.023 21.1962 112.808 21.9228 112.59 22.8477C112.372 23.7621 112.173 24.9312 111.994 26.355C111.945 26.7528 111.763 27.0614 111.448 27.2809C111.142 27.5 110.761 27.6175 110.303 27.6335C109.772 27.6521 109.399 27.5817 109.185 27.4224C108.982 27.2627 108.863 26.9855 108.828 26.5906C108.762 25.905 108.666 25.2257 108.538 24.5526C108.42 23.8688 108.278 23.2224 108.111 22.6132C107.943 21.9937 107.762 21.4268 107.567 20.9124C107.371 20.3877 107.168 19.9362 106.957 19.5579C106.745 19.1692 106.531 18.8692 106.315 18.6579C106.1 18.4465 105.893 18.3443 105.695 18.3512C105.435 18.3603 105.186 18.5514 104.949 18.9245C104.722 19.2972 104.521 19.8201 104.347 20.4933C104.183 21.1661 104.06 21.973 103.978 22.9139C103.896 23.8548 103.876 24.9031 103.916 26.0586C103.923 26.2564 103.935 26.454 103.952 26.6514C103.969 26.8385 103.981 27.0361 103.989 27.2443C103.999 27.5566 103.956 27.8135 103.859 28.0149C103.772 28.216 103.637 28.377 103.454 28.4981C103.281 28.6188 103.075 28.7041 102.837 28.7541C102.599 28.8041 102.34 28.834 102.059 28.8439C101.799 28.853 101.59 28.8394 101.432 28.8032C101.275 28.7774 101.153 28.7296 101.067 28.6596C100.982 28.5896 100.921 28.4927 100.885 28.3689C100.85 28.2555 100.825 28.1209 100.809 27.9651ZM135.27 22.6654C135.563 22.3946 135.855 22.2541 136.146 22.244C136.313 22.2381 136.465 22.2745 136.603 22.3531C136.742 22.4316 136.897 22.5565 137.07 22.7276C137.234 22.9616 137.351 23.1556 137.419 23.3096C137.496 23.4528 137.538 23.5973 137.543 23.743C137.554 24.0553 137.408 24.3575 137.106 24.6494C136.621 25.0833 136.092 25.477 135.521 25.8305C134.949 26.1735 134.35 26.4707 133.723 26.7219C133.096 26.9731 132.446 27.1678 131.773 27.3059C131.101 27.4545 130.432 27.5404 129.765 27.5636C128.922 27.5931 128.127 27.5114 127.38 27.3186C126.634 27.1362 125.962 26.8574 125.366 26.4822C124.779 26.1066 124.279 25.6498 123.864 25.1119C123.449 24.5635 123.145 23.9435 122.955 23.2518C122.851 22.9636 122.756 22.7793 122.669 22.6989C122.593 22.6078 122.467 22.5653 122.29 22.5715C121.905 22.5849 121.605 22.5016 121.39 22.3215C121.175 22.1414 121.062 21.8743 121.049 21.5204C121.044 21.3747 121.051 21.2806 121.071 21.2382L121.091 20.9248C121.13 20.5482 121.219 20.2741 121.359 20.1025C121.51 19.9304 121.746 19.8388 122.069 19.8275L122.303 19.8194C122.74 19.8041 123.04 19.5904 123.203 19.1782C123.501 18.4486 123.889 17.7784 124.368 17.1675C124.847 16.5567 125.392 16.0322 126.002 15.594C126.611 15.1453 127.266 14.7941 127.966 14.5404C128.676 14.2759 129.401 14.1307 130.14 14.1049C130.91 14.078 131.632 14.1674 132.307 14.3732C132.991 14.5682 133.59 14.8547 134.103 15.2329C134.617 15.611 135.023 16.0606 135.323 16.5817C135.633 17.1025 135.799 17.67 135.82 18.2842C135.835 18.711 135.766 19.1043 135.611 19.4641C135.457 19.8238 135.229 20.1445 134.926 20.4261C134.623 20.6972 134.25 20.9239 133.808 21.1061C133.377 21.2879 132.881 21.4147 132.321 21.4864L126.921 22.2222C126.713 22.2294 126.543 22.2875 126.411 22.3963C126.29 22.5048 126.232 22.6475 126.239 22.8245C126.248 23.0951 126.356 23.3519 126.562 23.5949C126.779 23.8375 127.058 24.0518 127.398 24.238C127.748 24.4134 128.144 24.5507 128.585 24.6499C129.037 24.7488 129.497 24.7901 129.965 24.7737C130.413 24.7581 130.869 24.7005 131.335 24.6008C131.81 24.4904 132.274 24.3439 132.727 24.1613C133.189 23.9784 133.635 23.7648 134.064 23.5205C134.493 23.2658 134.895 22.9808 135.27 22.6654ZM131.647 18.7582C131.802 18.7216 131.935 18.644 132.045 18.5254C132.155 18.3965 132.207 18.2436 132.201 18.0666C132.196 17.9104 132.133 17.7667 132.014 17.6354C131.895 17.504 131.734 17.3898 131.533 17.2926C131.331 17.185 131.099 17.1045 130.837 17.0511C130.574 16.9977 130.297 16.9761 130.006 16.9863C129.579 17.0012 129.144 17.0789 128.701 17.2195C128.257 17.3601 127.857 17.5408 127.5 17.7617C127.143 17.9722 126.854 18.2064 126.633 18.4643C126.413 18.7117 126.307 18.9551 126.315 19.1946C126.323 19.434 126.473 19.5486 126.765 19.5385C126.942 19.5323 127.227 19.5015 127.621 19.446C128.016 19.3906 128.451 19.3284 128.928 19.2597C129.405 19.1805 129.887 19.0959 130.373 19.006C130.86 18.916 131.285 18.8334 131.647 18.7582ZM138.447 13.3614C138.441 13.2052 138.504 13.0519 138.634 12.9014C138.764 12.7406 138.936 12.599 139.151 12.4769C139.365 12.3443 139.606 12.2369 139.874 12.1546C140.153 12.0615 140.432 12.01 140.713 12.0002C140.869 11.9948 141.001 12.0319 141.108 12.1115C141.225 12.1908 141.33 12.3487 141.422 12.5852C141.513 12.8113 141.597 13.1367 141.675 13.5614C141.762 13.9752 141.849 14.5194 141.935 15.1939C141.984 15.4006 142.026 15.5607 142.061 15.6742C142.106 15.7768 142.16 15.827 142.223 15.8249C142.316 15.8216 142.404 15.657 142.487 15.331C143.17 13.1078 144.23 11.9712 145.667 11.921C146.333 11.8978 146.944 12.0849 147.5 12.4824C148.066 12.8795 148.6 13.5436 149.102 14.4746C149.613 15.3948 150.109 16.6178 150.59 18.1436C151.07 19.659 151.563 21.5336 152.068 23.7673C152.093 23.8811 152.112 23.9847 152.126 24.078C152.14 24.1713 152.148 24.2596 152.151 24.3429C152.159 24.5824 152.109 24.7926 152.001 24.9735C151.903 25.1437 151.767 25.2892 151.594 25.4099C151.421 25.5202 151.226 25.6052 151.009 25.6648C150.793 25.7349 150.575 25.7738 150.356 25.7814C149.919 25.7967 149.6 25.7609 149.399 25.6742C149.208 25.587 149.082 25.4142 149.021 25.1558C148.664 23.584 148.318 22.1889 147.984 20.9707C147.66 19.7521 147.343 18.7313 147.033 17.9083C146.733 17.0745 146.44 16.4437 146.154 16.0159C145.868 15.5881 145.589 15.379 145.319 15.3884C145.048 15.3979 144.799 15.5785 144.572 15.9304C144.354 16.2716 144.149 16.8051 143.955 17.5311C143.762 18.257 143.58 19.1754 143.41 20.2861C143.251 21.3965 143.105 22.7202 142.971 24.257C142.933 24.6753 142.737 25.0157 142.381 25.2782C142.025 25.5408 141.566 25.6819 141.004 25.7015C140.629 25.7146 140.34 25.6465 140.137 25.4973C139.934 25.348 139.817 25.1384 139.787 24.8685C139.618 22.7064 139.451 20.9299 139.288 19.5389C139.135 18.1372 138.997 17.0163 138.874 16.1763C138.75 15.326 138.65 14.6937 138.573 14.2794C138.496 13.8652 138.454 13.5592 138.447 13.3614ZM162.243 7.08961C162.223 6.53786 162.366 6.14722 162.671 5.9177C162.975 5.67777 163.486 5.54526 164.205 5.52017C164.465 5.51109 164.684 5.52948 164.863 5.57535C165.052 5.61045 165.211 5.68828 165.34 5.80884C165.48 5.92904 165.59 6.09197 165.67 6.29763C165.76 6.49251 165.837 6.7452 165.9 7.0557C166.059 8.01949 166.229 9.01416 166.411 10.0397C166.603 11.0649 166.8 12.0951 167.003 13.1303C167.082 13.5966 167.335 13.8222 167.762 13.8073C167.876 13.8033 168.063 13.7864 168.323 13.7565C168.592 13.7158 168.909 13.6735 169.272 13.6295C169.635 13.5752 170.024 13.5199 170.439 13.4637C170.864 13.4071 171.284 13.356 171.7 13.3102C172.125 13.2537 172.525 13.2084 172.899 13.1745C173.283 13.1299 173.621 13.1024 173.912 13.0922C174.141 13.0842 174.325 13.1247 174.464 13.2137C174.602 13.2923 174.71 13.4031 174.788 13.5463C174.876 13.6788 174.934 13.8331 174.961 14.0093C174.998 14.1748 175.019 14.346 175.025 14.523C175.031 14.6792 175.005 14.8416 174.949 15.0104C174.902 15.1788 174.83 15.3324 174.73 15.4714C174.641 15.5996 174.525 15.7079 174.382 15.7963C174.239 15.8846 174.074 15.9321 173.887 15.9386C172.981 15.9703 172.066 16.0335 171.142 16.1283C170.227 16.2123 169.314 16.3172 168.401 16.4429C167.935 16.5217 167.709 16.7641 167.723 17.1701C167.724 17.2013 167.73 17.2428 167.743 17.2945C167.755 17.3358 167.761 17.372 167.762 17.4033C167.919 18.3046 168.063 19.149 168.195 19.9366C168.337 20.7238 168.455 21.4284 168.55 22.0505C168.655 22.6618 168.735 23.1749 168.791 23.5899C168.857 23.994 168.893 24.2638 168.898 24.3991C168.911 24.7739 168.885 25.0875 168.821 25.3399C168.757 25.6027 168.645 25.8151 168.484 25.9771C168.323 26.1494 168.103 26.2718 167.824 26.344C167.556 26.4264 167.214 26.4748 166.797 26.4893C166.402 26.5032 166.107 26.4196 165.913 26.2388C165.719 26.058 165.605 25.7753 165.571 25.3909C165.465 24.1646 165.323 22.9344 165.145 21.7003C164.966 20.4558 164.766 19.2172 164.546 17.9846C164.437 17.5402 164.195 17.3246 163.82 17.3377C163.789 17.3388 163.752 17.3452 163.711 17.3571C163.67 17.369 163.634 17.3754 163.602 17.3765C162.962 17.5448 162.358 17.7118 161.791 17.8776C161.223 18.0433 160.693 18.2182 160.199 18.4022C159.921 18.5057 159.673 18.5821 159.456 18.6314C159.239 18.6702 159.041 18.6928 158.864 18.6989C158.625 18.7073 158.444 18.6094 158.323 18.4052C158.2 18.1906 158.134 17.9219 158.122 17.5992C158.118 17.4847 158.124 17.3542 158.14 17.2077C158.155 17.0508 158.192 16.8984 158.249 16.7505C158.296 16.5925 158.374 16.4491 158.484 16.3201C158.584 16.1812 158.726 16.0668 158.91 15.9769C159.341 15.7847 159.918 15.5822 160.64 15.3693C161.362 15.1461 162.178 14.9352 163.088 14.7366C163.294 14.6773 163.453 14.5884 163.563 14.4699C163.684 14.3406 163.74 14.1562 163.732 13.9168C163.73 13.8647 163.728 13.8127 163.726 13.7606C163.724 13.6982 163.712 13.6361 163.689 13.5743C163.488 12.6224 163.297 11.7588 163.113 10.9835C162.94 10.1974 162.786 9.52524 162.652 8.96708C162.528 8.40856 162.43 7.96903 162.356 7.64849C162.282 7.32795 162.244 7.14166 162.243 7.08961ZM176.261 8.71074C175.959 8.72128 175.671 8.68964 175.398 8.61581C175.134 8.5312 174.901 8.41428 174.697 8.26503C174.504 8.10501 174.347 7.91769 174.224 7.70307C174.102 7.48845 174.037 7.25101 174.028 6.99076C174.012 6.55352 174.172 6.19357 174.506 5.91091C174.85 5.62788 175.314 5.47619 175.897 5.45583C176.168 5.44638 176.43 5.48934 176.683 5.58472C176.936 5.66968 177.159 5.79218 177.353 5.9522C177.556 6.11186 177.719 6.3042 177.842 6.52923C177.964 6.74385 178.029 6.97088 178.038 7.21031C178.053 7.65796 177.899 8.01772 177.575 8.28962C177.261 8.55073 176.823 8.69111 176.261 8.71074ZM174.288 13.5482C174.275 13.1838 174.421 12.8817 174.725 12.6417C175.04 12.391 175.457 12.2566 175.977 12.2384C176.914 12.2057 177.425 12.511 177.51 13.1542C177.568 13.6004 177.627 14.1038 177.688 14.6645C177.76 15.2249 177.828 15.8218 177.891 16.4554C177.965 17.0782 178.03 17.7274 178.085 18.403C178.149 19.0678 178.209 19.7276 178.263 20.3823C178.317 21.0267 178.365 21.6504 178.407 22.2535C178.449 22.8565 178.478 23.4079 178.496 23.9076C178.514 24.4281 178.34 24.8251 177.974 25.0984C177.619 25.3714 177.088 25.5203 176.38 25.545C176.057 25.5562 175.799 25.4871 175.606 25.3375C175.424 25.1979 175.328 24.9824 175.318 24.6909C175.268 23.2543 175.184 21.9126 175.068 20.6659C174.961 19.4084 174.85 18.2919 174.732 17.3162C174.625 16.3402 174.524 15.5307 174.428 14.8878C174.343 14.2342 174.296 13.7876 174.288 13.5482ZM179.944 6.72162C179.925 6.18029 180.067 5.78965 180.372 5.54972C180.676 5.30978 181.187 5.17728 181.906 5.15219C182.156 5.14347 182.375 5.16186 182.564 5.20737C182.753 5.25287 182.913 5.33591 183.042 5.45647C183.171 5.56662 183.275 5.72453 183.356 5.93019C183.446 6.12508 183.522 6.37777 183.585 6.68826C183.753 7.61005 183.922 8.57869 184.093 9.59418C184.274 10.5989 184.445 11.604 184.605 12.6094C184.775 13.6041 184.934 14.5783 185.082 15.532C185.23 16.4754 185.36 17.3568 185.472 18.1763C185.594 18.985 185.687 19.7062 185.751 20.3398C185.824 20.9626 185.868 21.4561 185.88 21.8205C185.894 22.1953 185.868 22.5141 185.804 22.7769C185.751 23.0393 185.644 23.2515 185.483 23.4135C185.332 23.5751 185.128 23.6969 184.87 23.7788C184.622 23.85 184.311 23.8922 183.936 23.9052C183.572 23.918 183.277 23.8345 183.052 23.6547C182.837 23.4746 182.723 23.1919 182.71 22.8068C182.696 22.4112 182.646 21.8865 182.561 21.2329C182.475 20.5688 182.366 19.8326 182.234 19.0242C182.101 18.2158 181.951 17.3559 181.784 16.4446C181.627 15.5328 181.46 14.6318 181.283 13.7416C181.117 12.8511 180.951 11.997 180.787 11.1793C180.633 10.3508 180.493 9.62088 180.367 8.98949C180.24 8.34768 180.139 7.82487 180.062 7.42105C179.985 7.00682 179.945 6.77367 179.944 6.72162ZM187.002 6.47514C186.983 5.93381 187.126 5.54317 187.43 5.30324C187.734 5.06331 188.246 4.9308 188.964 4.90571C189.214 4.89699 189.433 4.91538 189.622 4.96089C189.812 5.0064 189.971 5.08943 190.1 5.20999C190.229 5.32014 190.334 5.47805 190.414 5.68371C190.504 5.8786 190.581 6.13129 190.644 6.44178C190.811 7.36357 190.981 8.33221 191.151 9.3477C191.332 10.3524 191.503 11.3575 191.663 12.3629C191.834 13.3576 191.993 14.3318 192.141 15.2855C192.288 16.2289 192.418 17.1103 192.53 17.9298C192.652 18.7386 192.745 19.4597 192.809 20.0933C192.883 20.7161 192.926 21.2097 192.939 21.574C192.952 21.9488 192.926 22.2676 192.863 22.5304C192.809 22.7928 192.702 23.005 192.541 23.167C192.39 23.3286 192.186 23.4504 191.928 23.5324C191.681 23.6035 191.369 23.6457 190.995 23.6588C190.63 23.6715 190.335 23.588 190.11 23.4082C189.896 23.2281 189.781 22.9455 189.768 22.5603C189.754 22.1647 189.705 21.6401 189.619 20.9864C189.534 20.3223 189.424 19.5861 189.292 18.7777C189.159 17.9693 189.01 17.1095 188.842 16.1981C188.685 15.2863 188.518 14.3854 188.341 13.4952C188.175 12.6046 188.009 11.7505 187.845 10.9328C187.691 10.1043 187.551 9.3744 187.425 8.74301C187.298 8.1012 187.197 7.57839 187.12 7.17457C187.043 6.76034 187.004 6.5272 187.002 6.47514ZM204.182 19.8368C204.151 19.8379 204.099 19.845 204.026 19.8579C203.964 19.8705 203.892 19.8835 203.809 19.8968C203.736 19.9097 203.664 19.9227 203.591 19.9356C203.519 19.9486 203.461 19.9558 203.42 19.9573C203.128 19.9674 202.869 19.8566 202.642 19.6248C202.415 19.3826 202.294 19.0585 202.28 18.6525C202.27 18.3818 202.35 18.1185 202.518 17.8624C202.686 17.6064 202.955 17.3886 203.324 17.2089C203.437 17.1529 203.523 17.0925 203.583 17.0279C203.654 16.9525 203.687 16.8523 203.682 16.7274C203.671 16.3942 203.648 16.0407 203.614 15.6666C203.59 15.2818 203.554 14.8349 203.505 14.3259C203.491 14.2221 203.451 14.1245 203.385 14.033C203.33 13.9411 203.264 13.8392 203.187 13.7272C203.12 13.6045 203.058 13.4711 203.001 13.3272C202.944 13.1833 202.911 13.002 202.904 12.7834C202.897 12.5856 202.915 12.3609 202.958 12.1092C203.012 11.8468 203.123 11.6032 203.292 11.3784C203.472 11.1428 203.72 10.9465 204.038 10.7895C204.365 10.6217 204.795 10.5285 205.326 10.51C205.544 10.5024 205.727 10.5168 205.874 10.5534C206.022 10.5899 206.148 10.6376 206.255 10.6964C206.371 10.7445 206.471 10.7879 206.556 10.8266C206.651 10.865 206.746 10.8825 206.839 10.8793C207.006 10.8734 207.338 10.8306 207.836 10.7507C208.333 10.6707 208.929 10.5614 209.622 10.4225C210.326 10.2833 211.097 10.126 211.935 9.95085C212.784 9.7753 213.642 9.58897 214.511 9.39187C215.379 9.18435 216.227 8.97757 217.053 8.77151C217.88 8.56545 218.629 8.36732 219.3 8.17713C219.506 8.11781 219.687 8.08542 219.843 8.07997C220.062 8.07233 220.236 8.11838 220.364 8.21813C220.503 8.30709 220.606 8.42336 220.673 8.56692C220.741 8.71048 220.783 8.87578 220.8 9.0628C220.827 9.23905 220.843 9.40525 220.849 9.5614C220.858 9.83207 220.774 10.0904 220.595 10.3364C220.426 10.5716 220.135 10.7641 219.724 10.914C218.703 11.2519 217.672 11.5537 216.628 11.8195C215.595 12.0744 214.551 12.3141 213.495 12.5386C212.44 12.7527 211.378 12.9513 210.311 13.1345C209.244 13.3177 208.182 13.5007 207.125 13.6835C206.98 13.7094 206.873 13.7705 206.803 13.8667C206.733 13.9525 206.701 14.0683 206.706 14.2141L206.728 14.8543C206.734 15.0313 206.746 15.2133 206.763 15.4003C206.78 15.5873 206.807 15.7584 206.843 15.9134C206.89 16.0681 206.947 16.1964 207.013 16.2984C207.079 16.3899 207.164 16.4338 207.268 16.4302C207.518 16.4215 207.901 16.356 208.418 16.2337C208.945 16.111 209.534 15.9654 210.185 15.7967C210.846 15.6173 211.532 15.4266 212.244 15.2245C212.967 15.0117 213.648 14.8211 214.288 14.6528C214.928 14.4742 215.491 14.3242 215.977 14.203C216.462 14.0818 216.804 14.0178 217.002 14.0109C217.293 14.0007 217.516 14.1024 217.669 14.3159C217.833 14.5187 217.946 14.7805 218.009 15.1014C218.011 15.1534 218.018 15.2001 218.03 15.2414C218.042 15.2827 218.048 15.3293 218.05 15.3814C218.061 15.6833 217.977 15.9676 217.799 16.2344C217.63 16.4904 217.314 16.6891 216.85 16.8304C216.727 16.8764 216.479 16.9528 216.108 17.0596C215.736 17.1559 215.297 17.2755 214.791 17.4182C214.285 17.5505 213.738 17.6947 213.149 17.8508C212.56 18.0069 211.982 18.1625 211.414 18.3179C210.846 18.4628 210.314 18.6064 209.819 18.7488C209.334 18.8804 208.936 18.9881 208.626 19.0719C208.348 19.1546 208.178 19.2178 208.117 19.2616C208.067 19.3051 208.042 19.3581 208.045 19.4205C208.073 19.6488 208.195 19.8582 208.41 20.0488C208.636 20.2389 208.913 20.4117 209.242 20.5669C209.58 20.7219 209.955 20.8599 210.366 20.9811C210.787 21.1019 211.218 21.2015 211.659 21.2799C212.109 21.3476 212.549 21.4 212.977 21.4371C213.406 21.4742 213.802 21.4865 214.167 21.4737C214.323 21.4683 214.547 21.4605 214.838 21.4503C215.13 21.4401 215.447 21.4238 215.79 21.4014C216.144 21.3682 216.502 21.3297 216.865 21.2857C217.239 21.2414 217.57 21.1881 217.86 21.1259C218.16 21.0529 218.402 20.9715 218.586 20.8816C218.781 20.781 218.876 20.6683 218.872 20.5434C218.868 20.4288 218.822 20.3106 218.734 20.1886C218.657 20.0662 218.616 19.9321 218.611 19.7864C218.603 19.5782 218.654 19.3732 218.761 19.1714C218.868 18.9592 219.008 18.7719 219.179 18.6096C219.361 18.4365 219.565 18.2991 219.79 18.1974C220.026 18.0849 220.264 18.0245 220.503 18.0161C220.805 18.0056 221.083 18.0584 221.337 18.1746C221.591 18.2804 221.81 18.4291 221.994 18.6207C222.188 18.8016 222.336 19.0153 222.438 19.2618C222.551 19.5081 222.612 19.7613 222.621 20.0215C222.645 20.7086 222.411 21.3109 221.918 21.8284C221.436 22.3456 220.795 22.7797 219.994 23.1308C219.193 23.4922 218.286 23.7689 217.271 23.9607C216.257 24.1629 215.234 24.2819 214.204 24.3179C212.996 24.3601 211.89 24.3154 210.884 24.1837C209.88 24.0624 208.975 23.8386 208.172 23.5123C207.368 23.186 206.67 22.7518 206.078 22.2096C205.486 21.657 204.993 20.9811 204.6 20.1818C204.467 19.9467 204.327 19.8318 204.182 19.8368ZM232.369 9.03405C232.941 9.01405 233.496 9.08327 234.033 9.24171C234.57 9.40014 235.047 9.62842 235.464 9.92656C235.881 10.2247 236.217 10.5882 236.472 11.0171C236.737 11.4456 236.879 11.9253 236.897 12.4562C236.905 12.6748 236.86 12.8901 236.763 13.1019C236.677 13.303 236.553 13.4845 236.392 13.6465C236.23 13.798 236.042 13.9245 235.826 14.0258C235.621 14.1163 235.404 14.1656 235.175 14.1736C235.154 14.1743 235.133 14.1803 235.113 14.1914C235.103 14.1918 235.087 14.1923 235.066 14.1931C235.046 14.2042 235.025 14.2101 235.004 14.2108L235.11 15.4579C235.204 16.9451 235.45 18.0257 235.849 18.6997C236.258 19.3734 236.77 19.6995 237.384 19.678C237.603 19.6704 237.794 19.6428 237.96 19.5954C238.135 19.5475 238.295 19.4951 238.439 19.4379C238.593 19.37 238.737 19.3129 238.87 19.2665C239.004 19.2201 239.139 19.1946 239.274 19.1899C239.514 19.1815 239.726 19.2783 239.91 19.4804C240.104 19.682 240.207 19.9286 240.217 20.2201C240.227 20.5116 240.123 20.8071 239.904 21.1065C239.696 21.4057 239.413 21.6813 239.057 21.9335C238.701 22.1752 238.296 22.377 237.843 22.5387C237.39 22.7005 236.93 22.7895 236.461 22.8059C235.649 22.8342 234.925 22.526 234.287 21.8812C233.649 21.226 233.177 20.2522 232.872 18.96C232.802 18.754 232.715 18.6528 232.611 18.6565C232.486 18.6608 232.379 18.7271 232.29 18.8553C231.304 20.1926 230.24 21.2095 229.097 21.9061C227.954 22.5922 226.815 22.9551 225.68 22.9947C225.149 23.0133 224.668 22.9519 224.235 22.8107C223.803 22.6694 223.431 22.4635 223.119 22.193C222.818 21.9117 222.576 21.5709 222.396 21.1707C222.225 20.7598 222.131 20.2993 222.113 19.7891C222.088 19.0708 222.218 18.3106 222.502 17.5085C222.797 16.7061 223.202 15.9102 223.717 15.121C224.231 14.3317 224.83 13.576 225.514 12.8537C226.207 12.1312 226.936 11.4908 227.698 10.9326C228.47 10.374 229.257 9.92443 230.058 9.58376C230.86 9.24309 231.63 9.05986 232.369 9.03405ZM232.042 14.455C232.217 14.0945 232.38 13.8335 232.531 13.6718C232.681 13.4998 232.901 13.3827 233.191 13.3205C233.419 13.2812 233.531 13.2044 233.527 13.0899C233.524 13.0066 233.489 12.9192 233.424 12.8277C233.216 12.5639 233 12.3369 232.775 12.1468C232.549 11.9462 232.254 11.8523 231.889 11.865C231.494 11.8788 231.055 12.0088 230.574 12.2549C230.093 12.501 229.604 12.8256 229.107 13.2286C228.62 13.6208 228.141 14.0701 227.669 14.5765C227.207 15.072 226.797 15.5814 226.44 16.1046C226.083 16.6278 225.799 17.1433 225.587 17.651C225.376 18.1587 225.277 18.6103 225.291 19.0059C225.303 19.3598 225.406 19.6324 225.601 19.8237C225.805 20.0146 226.074 20.1042 226.407 20.0926C227.261 20.0628 228.177 19.5774 229.155 18.6364C230.133 17.6955 231.096 16.3017 232.042 14.455ZM244.224 8.71385C244.922 8.6895 245.643 8.7581 246.389 8.91968C247.134 9.07084 247.819 9.28145 248.443 9.55149C249.068 9.81112 249.584 10.111 249.991 10.4511C250.399 10.7913 250.609 11.1279 250.621 11.461C250.627 11.6276 250.56 11.8175 250.422 12.0308C250.283 12.2337 250.113 12.4325 249.911 12.6271C249.709 12.8114 249.485 12.9703 249.24 13.104C249.004 13.2269 248.793 13.2916 248.606 13.2981C248.356 13.3068 248.071 13.2125 247.751 13.0152C247.442 12.8176 247.096 12.6004 246.712 12.3636C246.339 12.1161 245.93 11.8958 245.486 11.7029C245.041 11.51 244.564 11.4224 244.054 11.4402C243.72 11.4518 243.448 11.5448 243.235 11.719C243.032 11.8824 242.936 12.1098 242.946 12.4013C242.955 12.6616 243.089 12.9227 243.348 13.1846C243.607 13.4362 243.945 13.6954 244.361 13.9623C244.787 14.2288 245.266 14.5092 245.797 14.8033C246.328 15.0974 246.871 15.412 247.425 15.7471C247.989 16.0817 248.538 16.4482 249.073 16.8464C249.609 17.2447 250.088 17.6814 250.511 18.1565C250.944 18.6312 251.296 19.1557 251.566 19.73C251.836 20.2938 251.983 20.9141 252.006 21.5907C252.027 22.1737 251.941 22.7083 251.75 23.1944C251.558 23.6806 251.276 24.1021 250.903 24.4591C250.53 24.8161 250.081 25.0976 249.556 25.3035C249.032 25.5094 248.452 25.6235 247.817 25.6456C247.016 25.6736 246.272 25.5745 245.587 25.3483C244.902 25.1325 244.307 24.8197 243.803 24.41C243.299 24.0003 242.896 23.5036 242.594 22.92C242.303 22.3361 242.145 21.6902 242.12 20.9823C242.088 20.0662 242.226 19.3943 242.534 18.9666C242.853 18.5385 243.366 18.3122 244.074 18.2874C244.511 18.2722 244.863 18.3433 245.129 18.5007C245.395 18.6582 245.532 18.8567 245.54 19.0961C245.545 19.221 245.529 19.3519 245.492 19.4887C245.454 19.6151 245.412 19.752 245.365 19.8996C245.328 20.0364 245.292 20.1836 245.256 20.3412C245.23 20.4984 245.22 20.6551 245.225 20.8113C245.235 21.082 245.306 21.34 245.44 21.5855C245.573 21.831 245.748 22.0438 245.962 22.2239C246.188 22.4141 246.443 22.5615 246.728 22.6662C247.013 22.7709 247.312 22.8178 247.624 22.8069C248.457 22.7778 248.862 22.4197 248.838 21.7327C248.819 21.1913 248.587 20.6887 248.144 20.2247C247.7 19.7503 247.147 19.2954 246.486 18.8598C245.824 18.4139 245.11 17.9698 244.344 17.5275C243.589 17.0849 242.879 16.6198 242.216 16.1322C241.553 15.6446 240.998 15.122 240.551 14.5644C240.104 13.9963 239.869 13.3739 239.845 12.6972C239.825 12.1351 239.922 11.6158 240.134 11.1393C240.358 10.6625 240.666 10.2504 241.061 9.90311C241.455 9.54539 241.919 9.26339 242.454 9.0571C242.999 8.85044 243.589 8.73603 244.224 8.71385ZM259.11 22.1869C258.485 22.2087 257.855 22.0796 257.22 21.7995C256.585 21.509 255.971 21.1083 255.38 20.5974C254.789 20.0864 254.236 19.4804 253.722 18.7791C253.207 18.0675 252.753 17.3016 252.36 16.4815C251.966 15.651 251.649 14.7813 251.409 13.8725C251.168 12.9637 251.032 12.0512 251 11.1351C250.976 10.4272 251.104 9.9172 251.385 9.60512C251.665 9.28263 252.133 9.10994 252.789 9.08704C253.612 9.05832 254.082 9.38066 254.199 10.0541C254.436 11.4841 254.742 12.7711 255.115 13.915C255.489 15.059 255.914 16.0291 256.39 16.8255C256.876 17.6215 257.403 18.2285 257.97 18.6464C258.547 19.064 259.148 19.2619 259.773 19.2401C260.221 19.2245 260.638 19.1005 261.026 18.868C261.414 18.6252 261.746 18.2957 262.024 17.8795C262.122 17.7197 262.185 17.5664 262.211 17.4196C262.247 17.2724 262.273 17.1047 262.287 16.9166C262.313 16.1756 262.345 15.4501 262.383 14.74C262.431 14.0192 262.473 13.2985 262.511 12.578C262.521 12.265 262.553 12.0085 262.609 11.8085C262.665 11.6085 262.753 11.4491 262.874 11.3302C262.995 11.2113 263.153 11.1276 263.35 11.0791C263.556 11.0302 263.816 11.0003 264.128 10.9893C264.482 10.977 264.786 11.0185 265.039 11.1139C265.293 11.1988 265.501 11.3531 265.665 11.5767C265.829 11.7899 265.949 12.0775 266.024 12.4397C266.109 12.7911 266.161 13.2323 266.179 13.7632C266.195 14.2213 266.173 14.6233 266.112 14.9694C266.061 15.3047 265.994 15.625 265.911 15.9301C265.838 16.2245 265.765 16.5189 265.692 16.8133C265.629 17.097 265.593 17.4109 265.584 17.7552C265.562 18.621 265.541 19.3722 265.522 20.0087C265.502 20.6348 265.484 21.1722 265.469 21.6209C265.464 22.0693 265.456 22.4552 265.447 22.7786C265.448 23.1017 265.447 23.3884 265.445 23.6386C265.444 23.8992 265.448 24.144 265.455 24.3731C265.463 24.6021 265.472 24.8519 265.482 25.1226C265.499 25.6119 265.538 26.1421 265.6 26.7132C265.662 27.2947 265.723 27.8502 265.783 28.3797C265.854 28.9088 265.917 29.3756 265.973 29.7802C266.028 30.1847 266.059 30.4651 266.065 30.6212C266.071 30.819 266.016 31.0086 265.897 31.1899C265.778 31.3713 265.617 31.5332 265.413 31.6758C265.21 31.8185 264.969 31.9311 264.69 32.0138C264.412 32.1069 264.117 32.1589 263.805 32.1698C263.534 32.1792 263.312 32.0932 263.139 31.9116C262.977 31.7401 262.88 31.5037 262.849 31.2026C262.803 30.8081 262.761 30.3249 262.72 29.7531C262.679 29.1916 262.637 28.5886 262.594 27.9438C262.551 27.3095 262.513 26.6594 262.479 25.9935C262.456 25.3377 262.429 24.7237 262.399 24.1515C262.369 23.5897 262.347 23.0954 262.332 22.6685C262.317 22.2417 262.306 21.9346 262.299 21.7472C262.293 21.5598 262.268 21.4304 262.223 21.359C262.179 21.2772 262.099 21.2383 261.985 21.2423C261.922 21.2445 261.84 21.2682 261.737 21.3135C261.634 21.3483 261.516 21.4098 261.384 21.4978C261.027 21.7291 260.663 21.8982 260.292 22.005C259.92 22.1117 259.526 22.1724 259.11 22.1869ZM276.981 17.2946C276.95 17.2957 276.898 17.3027 276.826 17.3157C276.763 17.3283 276.691 17.3412 276.608 17.3546C276.535 17.3675 276.463 17.3805 276.39 17.3934C276.318 17.4064 276.261 17.4136 276.219 17.415C275.928 17.4252 275.669 17.3144 275.442 17.0826C275.214 16.8404 275.093 16.5163 275.079 16.1103C275.07 15.8396 275.149 15.5763 275.317 15.3202C275.486 15.0642 275.754 14.8464 276.123 14.6667C276.236 14.6107 276.322 14.5503 276.383 14.4857C276.453 14.4103 276.486 14.3101 276.482 14.1852C276.47 13.852 276.447 13.4984 276.413 13.1244C276.389 12.7396 276.353 12.2927 276.304 11.7837C276.29 11.6799 276.25 11.5823 276.184 11.4908C276.129 11.3989 276.063 11.297 275.986 11.185C275.919 11.0623 275.857 10.9289 275.8 10.785C275.743 10.6411 275.711 10.4598 275.703 10.2412C275.696 10.0434 275.714 9.81866 275.758 9.567C275.811 9.30456 275.922 9.06094 276.092 8.83614C276.271 8.60057 276.52 8.40428 276.837 8.24727C277.165 8.07948 277.594 7.98631 278.125 7.96777C278.344 7.96014 278.527 7.9746 278.674 8.01115C278.821 8.0477 278.948 8.09539 279.054 8.15422C279.17 8.20227 279.271 8.24566 279.356 8.2844C279.451 8.32277 279.545 8.34031 279.639 8.33704C279.805 8.33123 280.137 8.28836 280.635 8.20845C281.132 8.12854 281.728 8.01915 282.421 7.88028C283.125 7.74104 283.896 7.58383 284.735 7.40864C285.583 7.23309 286.442 7.04676 287.31 6.84965C288.179 6.64214 289.026 6.43536 289.853 6.2293C290.679 6.02324 291.428 5.82511 292.099 5.63492C292.305 5.5756 292.487 5.54321 292.643 5.53776C292.861 5.53012 293.035 5.57617 293.164 5.67592C293.302 5.76488 293.405 5.88115 293.473 6.02471C293.54 6.16827 293.583 6.33357 293.6 6.52059C293.627 6.69684 293.643 6.86304 293.648 7.01919C293.658 7.28986 293.573 7.54819 293.394 7.79417C293.225 8.02937 292.935 8.22192 292.523 8.37179C291.503 8.70968 290.471 9.0115 289.428 9.27724C288.394 9.53221 287.35 9.77193 286.295 9.9964C285.239 10.2105 284.177 10.4091 283.11 10.5923C282.043 10.7755 280.981 10.9585 279.924 11.1413C279.779 11.1672 279.672 11.2283 279.602 11.3245C279.533 11.4103 279.5 11.5261 279.505 11.6719L279.528 12.3121C279.534 12.4891 279.545 12.6711 279.562 12.8581C279.579 13.0451 279.606 13.2162 279.643 13.3712C279.69 13.5259 279.746 13.6542 279.812 13.7562C279.878 13.8477 279.963 13.8916 280.067 13.888C280.317 13.8793 280.7 13.8137 281.217 13.6915C281.745 13.5688 282.334 13.4232 282.984 13.2545C283.645 13.0751 284.332 12.8844 285.044 12.6823C285.766 12.4695 286.447 12.2789 287.088 12.1106C287.728 11.9319 288.29 11.782 288.776 11.6608C289.262 11.5396 289.603 11.4756 289.801 11.4687C290.093 11.4585 290.315 11.5602 290.469 11.7737C290.632 11.9764 290.745 12.2383 290.809 12.5592C290.81 12.6112 290.817 12.6579 290.829 12.6992C290.841 12.7404 290.848 12.7871 290.85 12.8392C290.86 13.1411 290.776 13.4254 290.598 13.6922C290.43 13.9482 290.114 14.1469 289.65 14.2882C289.526 14.3342 289.279 14.4106 288.907 14.5174C288.535 14.6137 288.096 14.7333 287.591 14.876C287.085 15.0083 286.537 15.1525 285.949 15.3086C285.36 15.4646 284.782 15.6203 284.214 15.7757C283.646 15.9206 283.114 16.0642 282.618 16.2066C282.133 16.3382 281.736 16.4459 281.426 16.5297C281.147 16.6124 280.978 16.6756 280.917 16.7194C280.866 16.7629 280.842 16.8159 280.844 16.8783C280.873 17.1066 280.995 17.316 281.21 17.5066C281.435 17.6967 281.712 17.8694 282.041 18.0247C282.38 18.1797 282.755 18.3177 283.165 18.4389C283.587 18.5597 284.017 18.6593 284.458 18.7377C284.908 18.8053 285.348 18.8577 285.777 18.8949C286.205 18.932 286.602 18.9443 286.966 18.9315C287.122 18.9261 287.346 18.9183 287.638 18.9081C287.929 18.8979 288.246 18.8816 288.59 18.8592C288.943 18.826 289.301 18.7875 289.664 18.7435C290.038 18.6992 290.37 18.6459 290.659 18.5837C290.959 18.5107 291.201 18.4293 291.386 18.3394C291.58 18.2388 291.675 18.1261 291.671 18.0011C291.667 17.8866 291.621 17.7684 291.534 17.6463C291.456 17.524 291.415 17.3899 291.41 17.2442C291.403 17.036 291.453 16.831 291.561 16.6292C291.668 16.417 291.807 16.2297 291.979 16.0673C292.16 15.8942 292.364 15.7568 292.59 15.6552C292.825 15.5427 293.063 15.4823 293.303 15.4739C293.604 15.4634 293.882 15.5162 294.137 15.6324C294.391 15.7382 294.609 15.8869 294.793 16.0785C294.987 16.2593 295.135 16.4731 295.238 16.7196C295.351 16.9658 295.412 17.2191 295.421 17.4793C295.445 18.1664 295.21 18.7687 294.718 19.2862C294.235 19.8034 293.594 20.2375 292.793 20.5886C291.993 20.95 291.085 21.2267 290.071 21.4185C289.056 21.6206 288.034 21.7397 287.003 21.7757C285.795 21.8179 284.689 21.7731 283.684 21.6415C282.679 21.5202 281.775 21.2964 280.971 20.9701C280.168 20.6438 279.47 20.2096 278.878 19.6674C278.285 19.1148 277.792 18.4389 277.4 17.6396C277.266 17.4045 277.127 17.2895 276.981 17.2946Z" fill="black" fill-opacity="0.7"/>
<path d="M202.974 29.213C219.658 30.8699 237.015 31.5034 253.616 29.669M271.5 28C275.327 27.6958 298.154 26.072 301.928 25.8192" stroke="#7100FC" stroke-width="3" stroke-linecap="round"/>
</svg>
