<svg width="211" height="40" viewBox="0 0 211 40" fill="none" xmlns="http://www.w3.org/2000/svg">
<path d="M14.0754 15.6645C14.0878 16.0198 13.981 16.3564 13.7549 16.6744C13.538 16.992 13.257 17.3028 12.912 17.6067C12.576 17.9103 12.2078 18.2059 11.8075 18.4934C11.4071 18.781 11.0342 19.0722 10.6888 19.367C10.3525 19.6615 10.0711 19.9586 9.84442 20.2583C9.62688 20.5578 9.52383 20.8715 9.53528 21.1994C9.54482 21.4727 9.74534 21.7301 10.1368 21.9718C10.5283 22.2135 11.0883 22.4493 11.8168 22.6793C12.5454 22.9092 13.4245 23.143 14.4542 23.3806C15.4837 23.6091 16.6413 23.8514 17.927 24.1075C18.5707 24.2583 18.9008 24.5705 18.9174 25.0442C18.9237 25.2264 18.8844 25.4056 18.7993 25.5819C18.7234 25.7578 18.6149 25.9166 18.474 26.0584C18.3327 26.191 18.1678 26.3016 17.9794 26.3903C17.8001 26.4786 17.6148 26.5261 17.4235 26.5328C16.968 26.5487 16.4464 26.4985 15.8587 26.3822C15.28 26.2657 14.6775 26.118 14.0511 25.9392C13.4247 25.7604 12.7976 25.5634 12.17 25.3482C11.542 25.1239 10.9512 24.9211 10.3976 24.7398C9.85322 24.5582 9.36911 24.4064 8.94532 24.2844C8.53064 24.162 8.21855 24.1045 8.00904 24.1118C7.84508 24.1176 7.68838 24.2006 7.53893 24.3608C7.39827 24.5117 7.2688 24.7214 7.15049 24.99C7.0413 25.2583 6.95208 25.5761 6.88282 25.9433C6.81324 26.3014 6.76771 26.6952 6.74623 27.1245C6.71754 27.6089 6.55703 27.9748 6.26471 28.2221C5.98117 28.46 5.57979 28.588 5.06058 28.6062C4.52315 28.6249 4.20469 28.3852 4.10522 27.8871C3.94186 27.1267 3.74615 26.3538 3.51807 25.5683C3.29911 24.7825 3.05737 23.9975 2.79286 23.2133C2.53746 22.4287 2.25961 21.6541 1.9593 20.8894C1.6681 20.1243 1.36435 19.3916 1.04805 18.6913C0.96977 18.539 0.910185 18.3997 0.869296 18.2735C0.837197 18.1378 0.818762 18.0016 0.813991 17.865C0.809856 17.7466 0.842475 17.636 0.911848 17.5333C0.980903 17.4214 1.07776 17.3223 1.20243 17.2358C1.32709 17.1494 1.47061 17.0805 1.63298 17.0293C1.80446 16.9777 1.98129 16.9487 2.16347 16.9423C2.53694 16.9293 2.83569 16.9964 3.05971 17.1436C3.28374 17.2908 3.51502 17.5153 3.75356 17.8171C3.86796 17.959 3.97955 18.1512 4.08834 18.3936C4.19681 18.627 4.30136 18.8787 4.402 19.1488C4.50263 19.4189 4.60342 19.6935 4.70437 19.9727C4.805 20.2428 4.90029 20.4903 4.99022 20.7151C5.08895 20.9306 5.18184 21.1097 5.26892 21.2526C5.36478 21.3861 5.4537 21.4514 5.53568 21.4485C5.60855 21.446 5.66665 21.412 5.70997 21.3466C5.76239 21.281 5.82282 21.1831 5.89124 21.053C6.33055 20.0527 6.81843 19.1373 7.35488 18.3069C7.89101 17.4674 8.4451 16.7503 9.01715 16.1558C9.58888 15.5521 10.1652 15.0806 10.7462 14.7411C11.3362 14.4013 11.9045 14.2218 12.4511 14.2027C12.6697 14.1951 12.8761 14.2289 13.0702 14.3042C13.2641 14.3704 13.4317 14.4695 13.5731 14.6013C13.7236 14.7329 13.8432 14.8929 13.9319 15.0813C14.0202 15.2606 14.068 15.455 14.0754 15.6645ZM17.6612 23.9389C17.6558 23.7841 17.668 23.6104 17.6978 23.4178C17.7275 23.2253 17.7384 23.0151 17.7305 22.7874C17.7251 22.6325 17.6526 22.5165 17.5131 22.4393C17.3827 22.3618 17.2338 22.2758 17.0663 22.1813C16.8989 22.0868 16.7441 21.9645 16.6021 21.8145C16.4691 21.6641 16.3976 21.4431 16.3874 21.1516C16.3801 20.9421 16.4274 20.7307 16.5294 20.5174C16.6405 20.3037 16.8024 20.1066 17.0149 19.9259C17.5384 19.5063 18.0814 19.1271 18.6442 18.7882C19.216 18.449 19.7851 18.1601 20.3513 17.9215C20.9266 17.6825 21.4946 17.4939 22.0553 17.3558C22.6159 17.2177 23.1558 17.1395 23.675 17.1214C24.5495 17.0909 25.375 17.2262 26.1516 17.5274C26.937 17.8192 27.622 18.2376 28.2065 18.7826C28.7997 19.3182 29.2735 19.9583 29.6279 20.7029C29.991 21.4381 30.1875 22.2338 30.2174 23.0901C30.2466 23.9281 30.0969 24.7313 29.768 25.4998C29.4479 26.2588 29.0017 26.9311 28.4294 27.5165C27.857 28.1019 27.1757 28.5726 26.3856 28.9285C25.6049 29.2932 24.7727 29.491 23.8892 29.5219C23.0238 29.5521 22.2171 29.4343 21.4691 29.1686C20.7211 28.9029 20.0695 28.5244 19.5142 28.033C18.9587 27.5326 18.5183 26.9369 18.1932 26.246C17.8678 25.546 17.6905 24.777 17.6612 23.9389ZM24.1039 27.0519C24.4865 27.0386 24.88 26.9473 25.2845 26.7781C25.689 26.609 26.0547 26.3728 26.3815 26.0695C26.7172 25.7568 26.9868 25.3826 27.1905 24.9468C27.4033 24.5108 27.5003 24.024 27.4815 23.4866C27.4624 22.94 27.3444 22.4334 27.1275 21.9668C26.9105 21.5001 26.6184 21.0999 26.251 20.7661C25.8925 20.423 25.4683 20.1596 24.9786 19.9761C24.4979 19.7922 23.9797 19.71 23.4241 19.7294C22.413 19.7647 21.6479 20.0559 21.129 20.603C20.6097 21.141 20.3689 21.952 20.4068 23.0359C20.4275 23.628 20.5332 24.1761 20.7241 24.6802C20.9238 25.1748 21.1896 25.6033 21.5214 25.9656C21.853 26.3188 22.2365 26.5927 22.6719 26.7873C23.1164 26.9815 23.5938 27.0697 24.1039 27.0519ZM33.4166 28.5188C33.3105 27.3096 33.1668 26.1974 32.9854 25.1822C32.8129 24.1577 32.6358 23.2655 32.4542 22.5058C32.2817 21.7457 32.128 21.1309 31.9931 20.6614C31.8672 20.1915 31.8022 19.8974 31.7981 19.779C31.7921 19.6059 31.8499 19.4352 31.9717 19.2667C32.1026 19.098 32.2662 18.9509 32.4625 18.8255C32.6584 18.691 32.869 18.5833 33.0942 18.5025C33.3285 18.4214 33.5413 18.3774 33.7326 18.3708C33.8874 18.3654 34.0204 18.3881 34.1317 18.4389C34.252 18.4894 34.3371 18.5777 34.3871 18.7036C34.4381 18.8569 34.4848 19.0194 34.5273 19.1912C34.5786 19.3536 34.6311 19.5524 34.6849 19.7876C34.7513 20.1227 34.8301 20.2887 34.9212 20.2855C35.0214 20.282 35.13 20.1278 35.247 19.8227C35.4146 19.3973 35.5983 19.0443 35.7983 18.7638C35.9983 18.4832 36.214 18.2613 36.4454 18.0982C36.6856 17.9256 36.9321 17.803 37.185 17.7304C37.4469 17.6574 37.7191 17.6159 38.0014 17.6061C38.8577 17.5762 39.5936 17.8879 40.2092 18.5413C40.834 19.1944 41.3371 20.1527 41.7187 21.4162C41.7693 21.5603 41.8137 21.6545 41.8517 21.6988C41.8894 21.734 41.931 21.7508 41.9766 21.7492C42.0221 21.7476 42.067 21.7278 42.1113 21.6897C42.1644 21.6423 42.2114 21.554 42.2525 21.4249C42.4505 20.8252 42.688 20.3153 42.9652 19.8952C43.2421 19.466 43.5309 19.1185 43.8317 18.8526C44.1413 18.5773 44.458 18.3747 44.7818 18.2448C45.1056 18.115 45.4178 18.0448 45.7183 18.0343C46.274 18.0149 46.7822 18.2023 47.2428 18.5967C47.7123 18.9816 48.1348 19.5915 48.5106 20.4266C48.8951 21.2522 49.2375 22.3073 49.5377 23.5919C49.8467 24.867 50.1186 26.3852 50.3534 28.1463C50.3705 28.6382 50.2322 28.985 49.9383 29.1868C49.6447 29.3977 49.2383 29.5122 48.719 29.5303C48.382 29.5421 48.1153 29.4784 47.9189 29.3394C47.7225 29.2003 47.6066 29.0128 47.571 28.777C47.4083 27.5149 47.237 26.3946 47.0569 25.4159C46.8855 24.4278 46.7061 23.5996 46.5186 22.9312C46.3308 22.2538 46.1305 21.7409 45.9177 21.3927C45.714 21.0441 45.4937 20.8739 45.2569 20.8822C45.1385 20.8863 44.9912 20.9781 44.8151 21.1576C44.6481 21.3367 44.4725 21.662 44.2883 22.1336C44.1038 22.596 43.9162 23.2319 43.7256 24.0411C43.5347 24.8412 43.3606 25.8642 43.2035 27.11C43.1609 27.4581 43.0016 27.7281 42.7256 27.9202C42.4587 28.1119 42.1248 28.2147 41.724 28.2287C41.2595 28.245 40.9336 28.1834 40.7463 28.044C40.5681 27.9043 40.4639 27.6617 40.4336 27.3162C40.3762 26.7163 40.2916 26.1218 40.1798 25.5329C40.0768 24.9346 39.9522 24.3689 39.8059 23.836C39.6593 23.2939 39.5006 22.7978 39.3298 22.3478C39.1588 21.8886 38.9808 21.4935 38.796 21.1626C38.6108 20.8225 38.4238 20.5599 38.2349 20.375C38.0461 20.1901 37.8651 20.1006 37.692 20.1067C37.4643 20.1146 37.2467 20.2818 37.0392 20.6083C36.8408 20.9344 36.6653 21.392 36.5126 21.981C36.369 22.5697 36.2614 23.2757 36.1898 24.099C36.1183 24.9224 36.1001 25.8396 36.1354 26.8507C36.1415 27.0237 36.1521 27.1967 36.1672 27.3694C36.1821 27.533 36.1927 27.706 36.199 27.8881C36.2086 28.1614 36.1708 28.3862 36.0858 28.5624C36.0098 28.7384 35.8916 28.8793 35.7312 28.9852C35.5798 29.0908 35.4 29.1655 35.1918 29.2093C34.9835 29.253 34.7565 29.2792 34.5105 29.2878C34.2828 29.2957 34.1 29.2839 33.9621 29.2522C33.8245 29.2296 33.7181 29.1878 33.643 29.1265C33.5679 29.0653 33.5148 28.9805 33.4837 28.8722C33.4528 28.7729 33.4305 28.6552 33.4166 28.5188ZM60.2502 13.0397C59.986 13.0489 59.7342 13.0213 59.4948 12.9567C59.2643 12.8826 59.06 12.7803 58.8822 12.6497C58.7131 12.5097 58.5752 12.3458 58.4683 12.158C58.3614 11.9702 58.304 11.7625 58.2961 11.5347C58.2827 11.1522 58.4222 10.8372 58.7145 10.5899C59.0159 10.3422 59.4217 10.2095 59.9318 10.1917C60.1687 10.1834 60.398 10.221 60.6198 10.3045C60.8412 10.3788 61.0365 10.486 61.2056 10.626C61.3837 10.7657 61.5264 10.934 61.6336 11.1309C61.7405 11.3187 61.7976 11.5173 61.8049 11.7269C61.8186 12.1185 61.6836 12.4333 61.4001 12.6712C61.1254 12.8997 60.742 13.0225 60.2502 13.0397ZM58.5238 17.2725C58.5126 16.9537 58.6402 16.6893 58.9065 16.4793C59.1816 16.26 59.5468 16.1423 60.0023 16.1264C60.8221 16.0978 61.2692 16.3649 61.3435 16.9278C61.3937 17.3182 61.4455 17.7587 61.4991 18.2493C61.5619 18.7396 61.6211 19.2619 61.677 19.8163C61.7416 20.3613 61.7979 20.9293 61.8459 21.5204C61.9027 22.1022 61.9548 22.6795 62.0022 23.2524C62.0492 23.8162 62.0911 24.3619 62.1277 24.8896C62.1644 25.4173 62.1904 25.8998 62.2057 26.337C62.2216 26.7925 62.0695 27.1398 61.7496 27.3789C61.4387 27.6178 60.9735 27.748 60.3541 27.7697C60.0718 27.7795 59.8462 27.719 59.6775 27.5881C59.5182 27.466 59.434 27.2774 59.4251 27.0223C59.3812 25.7653 59.3083 24.5913 59.2064 23.5005C59.1133 22.4002 59.0153 21.4232 58.9125 20.5695C58.8189 19.7155 58.7303 19.0072 58.6468 18.4447C58.5721 17.8727 58.5311 17.482 58.5238 17.2725ZM71.6098 15.9263C72.047 15.911 72.4627 15.933 72.857 15.9922C73.2509 16.0423 73.6087 16.1027 73.9304 16.1736C74.2517 16.2353 74.5275 16.2986 74.7578 16.3636C74.9878 16.4194 75.1528 16.4455 75.253 16.442C75.335 16.4392 75.411 16.3955 75.481 16.3109C75.5507 16.2173 75.6385 16.1185 75.7443 16.0145C75.8501 15.9105 75.9926 15.8143 76.172 15.7259C76.351 15.6285 76.5908 15.5745 76.8914 15.564C77.2375 15.5519 77.514 15.6335 77.7207 15.8087C77.9272 15.9747 78.035 16.1898 78.0442 16.454C78.1606 19.7879 78.1457 22.6248 77.9994 24.9647C77.8528 27.2954 77.5499 29.1984 77.0907 30.6737C76.6315 32.1489 76.008 33.2286 75.2202 33.9128C74.4324 34.597 73.46 34.9592 72.3032 34.9996C71.7749 35.0181 71.2196 34.9189 70.6375 34.7021C70.0645 34.485 69.5346 34.198 69.0479 33.8411C68.5615 33.4932 68.1556 33.1016 67.8303 32.666C67.5142 32.2302 67.3489 31.8073 67.3346 31.3974C67.3298 31.2608 67.3971 31.0988 67.5365 30.9116C67.6759 30.7243 67.8473 30.5405 68.0508 30.3601C68.2543 30.1797 68.4678 30.0263 68.6914 29.8999C68.915 29.7736 69.1087 29.7075 69.2727 29.7018C69.4458 29.6957 69.5939 29.759 69.7171 29.8915C69.8406 30.0331 69.9561 30.2069 70.0636 30.4129C70.1802 30.6186 70.2975 30.8425 70.4154 31.0846C70.5336 31.3359 70.6784 31.5634 70.8496 31.7672C71.0209 31.9709 71.2274 32.137 71.469 32.2654C71.7109 32.4028 72.0095 32.4654 72.3647 32.453C74.3505 32.3836 75.4105 29.3096 75.5448 23.2309C75.5353 22.9576 75.4531 22.8237 75.2982 22.8291C75.1707 22.8336 75.0727 22.9008 75.0043 23.0309C74.1885 24.2176 73.2169 25.1225 72.0895 25.7456C70.9709 26.3592 69.7147 26.6904 68.3211 26.7391C67.6743 26.7616 67.0743 26.6868 66.5211 26.5146C65.9676 26.3333 65.4844 26.0766 65.0715 25.7444C64.6674 25.4029 64.3476 24.9945 64.1121 24.5194C63.8763 24.0351 63.7483 23.5015 63.7279 22.9185C63.7079 22.3446 63.7883 21.7764 63.9693 21.2137C64.1591 20.6417 64.4276 20.1033 64.7748 19.5987C65.1308 19.0847 65.5565 18.6092 66.052 18.1724C66.5474 17.7356 67.0905 17.3564 67.6812 17.0348C68.2716 16.7041 68.8964 16.4451 69.5556 16.2579C70.2237 16.0613 70.9084 15.9508 71.6098 15.9263ZM68.6568 24.2102C69.9048 24.1666 71.0343 23.735 72.0454 22.9153C73.0561 22.0866 73.9042 20.9078 74.5895 19.3791C74.6058 19.3238 74.6181 19.2823 74.6262 19.2547C74.634 19.2179 74.6373 19.1813 74.6361 19.1449C74.6329 19.0538 74.5339 18.9615 74.3391 18.868C74.1443 18.7745 73.8908 18.6967 73.5785 18.6346C73.2663 18.5726 72.909 18.5258 72.5066 18.4942C72.113 18.4532 71.7158 18.4397 71.315 18.4537C70.6682 18.4763 70.0481 18.6074 69.4545 18.847C68.861 19.0866 68.3383 19.3967 67.8864 19.7773C67.4346 20.1579 67.0756 20.5854 66.8094 21.0598C66.5433 21.5343 66.419 22.022 66.4364 22.523C66.4552 23.0604 66.666 23.4817 67.0688 23.7868C67.4808 24.0916 68.0101 24.2328 68.6568 24.2102ZM88.8493 14.0383C89.3503 14.0208 89.8358 14.0814 90.3058 14.22C90.7757 14.3587 91.1931 14.5584 91.5579 14.8193C91.9227 15.0801 92.2165 15.3982 92.4394 15.7735C92.6714 16.1484 92.7955 16.5682 92.8117 17.0327C92.8184 17.224 92.7793 17.4123 92.6946 17.5977C92.6187 17.7736 92.5102 17.9325 92.3693 18.0742C92.228 18.2068 92.0631 18.3174 91.8747 18.4061C91.695 18.4853 91.505 18.5285 91.3046 18.5355C91.2864 18.5361 91.2683 18.5413 91.2504 18.551C91.2413 18.5513 91.2277 18.5518 91.2095 18.5525C91.1916 18.5622 91.1735 18.5674 91.1553 18.568L91.2481 19.6592C91.33 20.9605 91.5455 21.9061 91.8944 22.4958C92.2524 23.0852 92.7001 23.3706 93.2376 23.3518C93.4289 23.3451 93.5967 23.321 93.7412 23.2795C93.8948 23.2376 94.0345 23.1917 94.1605 23.1417C94.2952 23.0823 94.4211 23.0323 94.5383 22.9917C94.6554 22.9512 94.7732 22.9288 94.8916 22.9247C95.1011 22.9174 95.2865 23.0021 95.4477 23.1789C95.618 23.3553 95.7077 23.5711 95.7166 23.8261C95.7255 24.0812 95.6342 24.3397 95.4427 24.6018C95.2603 24.8635 95.0134 25.1047 94.7019 25.3253C94.39 25.5369 94.036 25.7134 93.6396 25.8549C93.2433 25.9964 92.8401 26.0744 92.4302 26.0887C91.7197 26.1135 91.0856 25.8438 90.5278 25.2796C89.9697 24.7062 89.5569 23.8543 89.2894 22.7236C89.2284 22.5433 89.1523 22.4548 89.0612 22.4579C88.9519 22.4618 88.8582 22.5197 88.78 22.6319C87.918 23.802 86.9869 24.6918 85.9867 25.3013C84.9862 25.9017 83.9896 26.2193 82.9967 26.2539C82.5321 26.2702 82.1107 26.2165 81.7325 26.0929C81.3542 25.9693 81.0287 25.7891 80.756 25.5524C80.492 25.3063 80.281 25.0081 80.1228 24.6579C79.9735 24.2984 79.891 23.8954 79.8754 23.449C79.8534 22.8205 79.967 22.1553 80.2161 21.4535C80.4743 20.7514 80.8285 20.055 81.2786 19.3644C81.7287 18.6738 82.2529 18.0125 82.851 17.3806C83.4582 16.7483 84.0953 16.188 84.7622 15.6996C85.4383 15.2108 86.1268 14.8174 86.8278 14.5193C87.5287 14.2212 88.2026 14.0609 88.8493 14.0383ZM88.5635 18.7817C88.7166 18.4662 88.8592 18.2378 88.991 18.0964C89.1226 17.9459 89.3151 17.8434 89.5685 17.789C89.768 17.7546 89.8659 17.6874 89.8624 17.5872C89.8599 17.5143 89.8299 17.4378 89.7724 17.3577C89.591 17.127 89.4017 16.9284 89.2043 16.762C89.0067 16.5865 88.7485 16.5043 88.4296 16.5154C88.0835 16.5275 87.6999 16.6412 87.2787 16.8566C86.8576 17.0719 86.4298 17.3559 85.9952 17.7085C85.5694 18.0517 85.1499 18.4449 84.7368 18.8879C84.3324 19.3216 83.974 19.7673 83.6617 20.2251C83.3493 20.6829 83.1006 21.1339 82.9155 21.5781C82.7303 22.0224 82.6438 22.4176 82.6559 22.7637C82.6667 23.0734 82.7571 23.3119 82.9271 23.4793C83.1063 23.6463 83.3416 23.7247 83.633 23.7146C84.38 23.6885 85.1814 23.2638 86.0373 22.4404C86.8932 21.6171 87.7353 20.3975 88.5635 18.7817ZM83.9425 9.46265C83.8787 9.46487 83.8052 9.4492 83.722 9.41563C83.6475 9.37263 83.5726 9.31596 83.4971 9.24564C83.4305 9.16588 83.3727 9.0767 83.3236 8.97809C83.2743 8.87037 83.2474 8.75275 83.2429 8.62522C83.2356 8.41572 83.3107 8.21701 83.4683 8.0291C83.6256 7.83209 83.8291 7.6517 84.0787 7.48794C84.3372 7.31475 84.6237 7.16338 84.9384 7.03383C85.2619 6.89485 85.5814 6.77425 85.8971 6.67203C86.2127 6.56981 86.5064 6.49115 86.778 6.43606C87.0588 6.38066 87.2858 6.34993 87.4588 6.34389C87.978 6.32576 88.4684 6.39527 88.9299 6.55244C89.3914 6.70961 89.7914 6.93277 90.1298 7.22191C90.4773 7.51074 90.7539 7.85677 90.9595 8.25999C91.1648 8.65411 91.2755 9.08345 91.2917 9.54801C91.3076 10.0035 91.218 10.4398 91.0228 10.857C90.8364 11.2648 90.5755 11.6296 90.2402 11.9514C89.9049 12.2732 89.5081 12.5333 89.0499 12.7317C88.5914 12.921 88.098 13.0249 87.5697 13.0433C87.0596 13.0611 86.5876 12.9955 86.1537 12.8465C85.7199 12.6975 85.3386 12.4874 85.0099 12.2161C84.6904 11.9446 84.4328 11.6207 84.2373 11.2445C84.0508 10.8679 83.95 10.461 83.9347 10.0238L83.9425 9.46265ZM87.6857 11.2745C87.877 11.2678 88.0763 11.229 88.2836 11.1579C88.4997 11.0774 88.6922 10.9749 88.8611 10.8504C89.0297 10.7169 89.1657 10.5616 89.2689 10.3847C89.381 10.1984 89.4332 9.99596 89.4256 9.77734C89.4173 9.54051 89.355 9.3238 89.2387 9.12722C89.1312 8.92121 88.9838 8.74851 88.7965 8.60913C88.618 8.46032 88.3998 8.34938 88.1419 8.2763C87.8928 8.1938 87.627 8.15748 87.3447 8.16734C86.8437 8.18484 86.4604 8.30767 86.1947 8.53583C85.9379 8.75456 85.8174 9.09165 85.8333 9.5471C85.8419 9.79304 85.8956 10.0237 85.9943 10.2392C86.093 10.4546 86.2227 10.6416 86.3832 10.8002C86.5438 10.9587 86.735 11.0797 86.9568 11.1632C87.1786 11.2466 87.4216 11.2837 87.6857 11.2745ZM96.082 14.7023C96.0772 14.5657 96.1318 14.4316 96.2458 14.2999C96.3594 14.1591 96.5101 14.0353 96.6979 13.9284C96.8854 13.8124 97.0964 13.7184 97.331 13.6464C97.5744 13.5649 97.8191 13.5199 98.065 13.5113C98.2017 13.5065 98.3168 13.539 98.4104 13.6087C98.5132 13.6781 98.6047 13.8162 98.6848 14.0232C98.7647 14.221 98.8385 14.5058 98.9062 14.8773C98.9827 15.2394 99.0586 15.7156 99.1339 16.3058C99.1767 16.4867 99.2135 16.6268 99.2444 16.726C99.284 16.8158 99.3311 16.8598 99.3858 16.8579C99.4677 16.855 99.5448 16.711 99.6169 16.4257C100.215 14.4805 101.142 13.4859 102.399 13.442C102.982 13.4217 103.517 13.5854 104.003 13.9332C104.499 14.2807 104.966 14.8618 105.405 15.6764C105.852 16.4816 106.287 17.5517 106.707 18.8868C107.127 20.2128 107.559 21.853 108.001 23.8075C108.022 23.9071 108.039 23.9977 108.051 24.0794C108.063 24.161 108.071 24.2383 108.073 24.3112C108.08 24.5207 108.037 24.7046 107.942 24.863C107.856 25.0119 107.737 25.1392 107.586 25.2448C107.434 25.3413 107.263 25.4156 107.074 25.4679C106.884 25.5292 106.694 25.5632 106.503 25.5699C106.12 25.5832 105.841 25.552 105.665 25.476C105.498 25.3998 105.388 25.2486 105.334 25.0224C105.022 23.6471 104.719 22.4264 104.427 21.3605C104.143 20.2942 103.866 19.401 103.595 18.6809C103.332 17.9513 103.076 17.3994 102.825 17.025C102.575 16.6507 102.332 16.4677 102.095 16.476C101.858 16.4843 101.64 16.6424 101.441 16.9503C101.251 17.2488 101.071 17.7156 100.902 18.3508C100.732 18.986 100.573 19.7896 100.425 20.7615C100.286 21.7331 100.157 22.8913 100.04 24.236C100.007 24.602 99.8353 24.8998 99.5241 25.1296C99.213 25.3593 98.8114 25.4828 98.3195 25.5C97.9916 25.5114 97.7387 25.4518 97.5609 25.3213C97.383 25.1907 97.2809 25.0073 97.2544 24.7711C97.1062 22.8793 96.9608 21.3248 96.8179 20.1077C96.6839 18.8811 96.563 17.9004 96.4553 17.1654C96.3472 16.4213 96.2595 15.8681 96.1921 15.5056C96.1247 15.1432 96.088 14.8754 96.082 14.7023ZM116.399 14.3622C116.836 14.3469 117.252 14.3689 117.646 14.4281C118.04 14.4782 118.398 14.5387 118.719 14.6095C119.041 14.6712 119.317 14.7346 119.547 14.7995C119.777 14.8553 119.942 14.8815 120.042 14.878C120.124 14.8751 120.2 14.8314 120.27 14.7469C120.34 14.6532 120.428 14.5544 120.533 14.4504C120.639 14.3464 120.782 14.2502 120.961 14.1619C121.14 14.0644 121.38 14.0104 121.68 13.9999C122.027 13.9879 122.303 14.0694 122.51 14.2446C122.716 14.4107 122.824 14.6258 122.833 14.8899C122.95 18.2238 122.935 21.0607 122.789 23.4006C122.642 25.7313 122.339 27.6343 121.88 29.1096C121.421 30.5849 120.797 31.6646 120.009 32.3487C119.221 33.0329 118.249 33.3952 117.092 33.4356C116.564 33.454 116.009 33.3549 115.427 33.1381C114.854 32.9209 114.324 32.6339 113.837 32.277C113.351 31.9292 112.945 31.5375 112.619 31.102C112.303 30.6661 112.138 30.2433 112.124 29.8333C112.119 29.6967 112.186 29.5348 112.326 29.3475C112.465 29.1602 112.636 28.9764 112.84 28.796C113.043 28.6156 113.257 28.4622 113.48 28.3359C113.704 28.2095 113.898 28.1434 114.062 28.1377C114.235 28.1317 114.383 28.1949 114.506 28.3274C114.63 28.469 114.745 28.6428 114.853 28.8488C114.969 29.0545 115.087 29.2784 115.205 29.5206C115.323 29.7718 115.467 29.9993 115.639 30.2031C115.81 30.4069 116.016 30.5729 116.258 30.7013C116.5 30.8388 116.799 30.9013 117.154 30.8889C119.14 30.8196 120.2 27.7455 120.334 21.6668C120.324 21.3936 120.242 21.2596 120.087 21.265C119.96 21.2695 119.862 21.3368 119.793 21.4668C118.978 22.6536 118.006 23.5585 116.879 24.1815C115.76 24.7952 114.504 25.1263 113.11 25.175C112.463 25.1976 111.863 25.1228 111.31 24.9506C110.757 24.7692 110.273 24.5125 109.861 24.1804C109.456 23.8388 109.137 23.4304 108.901 22.9553C108.665 22.471 108.537 21.9374 108.517 21.3544C108.497 20.7806 108.577 20.2123 108.758 19.6497C108.948 19.0776 109.217 18.5392 109.564 18.0346C109.92 17.5206 110.346 17.0452 110.841 16.6083C111.337 16.1715 111.88 15.7923 112.47 15.4707C113.061 15.14 113.686 14.8811 114.345 14.6939C115.013 14.4973 115.697 14.3867 116.399 14.3622ZM113.446 22.6461C114.694 22.6025 115.823 22.1709 116.834 21.3513C117.845 20.5225 118.693 19.3438 119.379 17.815C119.395 17.7597 119.407 17.7183 119.415 17.6906C119.423 17.6539 119.426 17.6173 119.425 17.5808C119.422 17.4897 119.323 17.3974 119.128 17.3039C118.933 17.2104 118.68 17.1326 118.368 17.0705C118.055 17.0085 117.698 16.9617 117.296 16.9301C116.902 16.8892 116.505 16.8757 116.104 16.8897C115.457 16.9123 114.837 17.0434 114.244 17.283C113.65 17.5226 113.127 17.8327 112.676 18.2133C112.224 18.5938 111.865 19.0213 111.599 19.4958C111.332 19.9702 111.208 20.4579 111.226 20.9589C111.244 21.4963 111.455 21.9176 111.858 22.2227C112.27 22.5276 112.799 22.6687 113.446 22.6461ZM143.638 21.0856C143.895 20.8486 144.15 20.7257 144.405 20.7168C144.551 20.7117 144.684 20.7435 144.805 20.8123C144.926 20.881 145.062 20.9903 145.214 21.14C145.357 21.3448 145.459 21.5145 145.519 21.6492C145.587 21.7745 145.623 21.9009 145.628 22.0285C145.637 22.3017 145.51 22.5661 145.245 22.8216C144.82 23.2012 144.358 23.5457 143.858 23.855C143.358 24.1552 142.834 24.4152 142.285 24.635C141.736 24.8548 141.168 25.0251 140.579 25.146C139.991 25.276 139.405 25.3512 138.822 25.3715C138.084 25.3973 137.389 25.3258 136.735 25.1571C136.082 24.9975 135.495 24.7536 134.972 24.4252C134.459 24.0966 134.021 23.6969 133.658 23.2262C133.295 22.7464 133.03 22.2039 132.863 21.5987C132.772 21.3465 132.689 21.1852 132.613 21.1149C132.547 21.0352 132.436 20.998 132.281 21.0034C131.944 21.0152 131.681 20.9422 131.494 20.7846C131.306 20.627 131.206 20.3934 131.195 20.0837C131.191 19.9562 131.197 19.8739 131.214 19.8368L131.232 19.5626C131.266 19.233 131.344 18.9932 131.467 18.843C131.598 18.6925 131.805 18.6123 132.088 18.6024L132.293 18.5953C132.675 18.5819 132.938 18.3949 133.08 18.0342C133.341 17.3959 133.68 16.8094 134.099 16.2749C134.519 15.7405 134.995 15.2815 135.529 14.898C136.062 14.5055 136.635 14.1982 137.248 13.9762C137.869 13.7447 138.503 13.6177 139.15 13.5951C139.824 13.5716 140.456 13.6498 141.046 13.8299C141.644 14.0005 142.169 14.2512 142.618 14.5821C143.067 14.913 143.423 15.3064 143.685 15.7624C143.956 16.218 144.101 16.7146 144.12 17.252C144.133 17.6255 144.072 17.9696 143.937 18.2844C143.802 18.5992 143.602 18.8798 143.337 19.1262C143.072 19.3634 142.746 19.5618 142.36 19.7212C141.982 19.8803 141.548 19.9912 141.058 20.0539L136.333 20.6977C136.151 20.7041 136.002 20.7549 135.887 20.8501C135.781 20.945 135.731 21.0699 135.736 21.2247C135.744 21.4616 135.839 21.6863 136.02 21.8989C136.209 22.1111 136.453 22.2987 136.751 22.4616C137.057 22.615 137.403 22.7352 137.789 22.822C138.184 22.9086 138.587 22.9447 138.997 22.9303C139.389 22.9167 139.788 22.8662 140.195 22.779C140.612 22.6824 141.017 22.5543 141.413 22.3945C141.818 22.2345 142.208 22.0475 142.584 21.8338C142.959 21.6109 143.311 21.3615 143.638 21.0856ZM140.468 17.6668C140.604 17.6347 140.72 17.5668 140.817 17.4631C140.913 17.3503 140.959 17.2165 140.953 17.0616C140.949 16.925 140.894 16.7992 140.79 16.6843C140.685 16.5694 140.545 16.4694 140.369 16.3843C140.192 16.2902 139.989 16.2197 139.76 16.173C139.53 16.1263 139.288 16.1074 139.032 16.1164C138.659 16.1294 138.278 16.1974 137.89 16.3204C137.503 16.4434 137.152 16.6015 136.84 16.7948C136.527 16.9791 136.274 17.184 136.082 17.4096C135.889 17.6261 135.796 17.8391 135.803 18.0486C135.81 18.2581 135.942 18.3584 136.197 18.3495C136.351 18.3441 136.601 18.3171 136.946 18.2686C137.291 18.2201 137.672 18.1657 138.09 18.1055C138.507 18.0363 138.928 17.9623 139.354 17.8835C139.78 17.8048 140.151 17.7326 140.468 17.6668ZM146.418 12.9445C146.414 12.8079 146.468 12.6738 146.582 12.5421C146.696 12.4013 146.847 12.2775 147.034 12.1706C147.222 12.0546 147.433 11.9606 147.668 11.8886C147.911 11.8071 148.156 11.7621 148.402 11.7535C148.538 11.7487 148.653 11.7812 148.747 11.8509C148.85 11.9203 148.941 12.0584 149.021 12.2654C149.101 12.4633 149.175 12.748 149.243 13.1195C149.319 13.4817 149.395 13.9578 149.47 14.548C149.513 14.7289 149.55 14.869 149.581 14.9682C149.62 15.058 149.668 15.102 149.722 15.1001C149.804 15.0972 149.881 14.9532 149.953 14.6679C150.551 12.7227 151.479 11.7281 152.736 11.6842C153.319 11.6639 153.853 11.8276 154.34 12.1754C154.835 12.5229 155.302 13.104 155.741 13.9186C156.189 14.7238 156.623 15.7939 157.044 17.129C157.464 18.455 157.895 20.0952 158.337 22.0498C158.359 22.1493 158.376 22.2399 158.388 22.3216C158.4 22.4033 158.407 22.4805 158.41 22.5534C158.417 22.7629 158.373 22.9468 158.278 23.1052C158.192 23.2541 158.074 23.3814 157.922 23.487C157.771 23.5835 157.6 23.6578 157.41 23.7101C157.221 23.7714 157.031 23.8054 156.839 23.8121C156.457 23.8255 156.177 23.7942 156.001 23.7182C155.835 23.642 155.724 23.4908 155.671 23.2646C155.358 21.8893 155.056 20.6686 154.763 19.6027C154.48 18.5364 154.202 17.6432 153.931 16.9231C153.668 16.1935 153.412 15.6416 153.162 15.2673C152.912 14.893 152.668 14.7099 152.431 14.7182C152.194 14.7265 151.977 14.8846 151.778 15.1925C151.587 15.491 151.408 15.9578 151.238 16.593C151.069 17.2282 150.91 18.0318 150.761 19.0037C150.622 19.9753 150.494 21.1335 150.377 22.4782C150.344 22.8442 150.172 23.142 149.861 23.3718C149.549 23.6015 149.148 23.725 148.656 23.7422C148.328 23.7536 148.075 23.6941 147.897 23.5635C147.72 23.4329 147.617 23.2495 147.591 23.0133C147.443 21.1215 147.297 19.567 147.154 18.3499C147.02 17.1233 146.9 16.1426 146.792 15.4076C146.684 14.6635 146.596 14.1103 146.529 13.7478C146.461 13.3854 146.425 13.1176 146.418 12.9445ZM160.69 23.2125C160.662 22.42 160.609 21.56 160.531 20.6325C160.453 19.7049 160.361 18.7688 160.255 17.824C160.158 16.8698 160.053 15.9386 159.939 15.0306C159.834 14.1222 159.732 13.2913 159.633 12.5378C159.543 11.784 159.465 11.1346 159.401 10.5896C159.336 10.0447 159.3 9.66291 159.292 9.44429C159.28 9.07993 159.407 8.79733 159.673 8.5965C159.94 8.39567 160.333 8.28618 160.852 8.26805C161.08 8.2601 161.272 8.27619 161.428 8.31633C161.594 8.35615 161.729 8.42896 161.833 8.53477C161.937 8.64058 162.019 8.78362 162.08 8.9639C162.15 9.13474 162.203 9.35177 162.24 9.61497C162.289 9.97806 162.334 10.3686 162.376 10.7867C162.418 11.1957 162.462 11.6638 162.507 12.1912C162.562 12.7182 162.62 13.3136 162.679 13.9773C162.739 14.641 162.811 15.4045 162.896 16.268C162.901 16.3955 162.926 16.4858 162.974 16.5389C163.021 16.5919 163.072 16.6175 163.127 16.6156C163.227 16.6121 163.316 16.527 163.392 16.3601C164.111 14.7572 164.88 13.5265 165.698 12.668C166.516 11.8004 167.326 11.3526 168.127 11.3246C168.601 11.3081 168.979 11.4362 169.262 11.7091C169.545 11.9819 169.695 12.3551 169.712 12.8288C169.73 13.3389 169.632 13.8166 169.42 14.2618C169.216 14.6975 168.953 15.1126 168.629 15.5069C168.314 15.9009 167.967 16.2733 167.587 16.624C167.216 16.9744 166.868 17.3149 166.542 17.6455C166.225 17.9758 165.958 18.2997 165.742 18.6174C165.533 18.9256 165.435 19.2346 165.446 19.5443C165.455 19.8267 165.63 20.1124 165.968 20.4016C166.315 20.6813 166.808 20.9559 167.447 21.2255C168.085 21.4859 168.865 21.7369 169.785 21.9783C170.705 22.2107 171.748 22.4296 172.913 22.6352C173.097 22.6743 173.227 22.7428 173.304 22.8404C173.389 22.9378 173.435 23.0684 173.44 23.2324C173.447 23.4328 173.409 23.6393 173.325 23.852C173.242 24.0738 173.135 24.2736 173.004 24.4515C172.874 24.6384 172.724 24.7896 172.555 24.9049C172.395 25.0291 172.238 25.0938 172.083 25.0992C171.773 25.1101 171.403 25.0819 170.972 25.0149C170.541 24.9479 170.072 24.8502 169.566 24.722C169.07 24.6025 168.554 24.4564 168.019 24.2836C167.484 24.1198 166.962 23.9374 166.454 23.7363C165.955 23.5439 165.478 23.3417 165.024 23.1296C164.578 22.908 164.192 22.6889 163.865 22.4723C163.763 22.4212 163.679 22.3785 163.614 22.3443C163.558 22.3098 163.508 22.2933 163.462 22.2949C163.408 22.2968 163.376 22.3207 163.369 22.3665C163.361 22.4033 163.359 22.4854 163.364 22.613C163.375 22.9318 163.357 23.1923 163.309 23.3946C163.271 23.5966 163.194 23.7543 163.079 23.8678C162.965 23.9903 162.804 24.078 162.596 24.1309C162.388 24.1838 162.129 24.2156 161.82 24.2264C161.41 24.2407 161.12 24.1733 160.951 24.0242C160.79 23.8748 160.703 23.6042 160.69 23.2125ZM183.891 19.6799C184.147 19.443 184.403 19.3201 184.658 19.3111C184.804 19.3061 184.937 19.3379 185.058 19.4066C185.179 19.4754 185.315 19.5846 185.466 19.7344C185.61 19.9391 185.712 20.1088 185.771 20.2436C185.84 20.3689 185.876 20.4953 185.88 20.6228C185.89 20.8961 185.762 21.1605 185.498 21.4159C185.073 21.7956 184.611 22.14 184.111 22.4493C183.611 22.7495 183.086 23.0095 182.538 23.2293C181.989 23.4491 181.42 23.6195 180.832 23.7403C180.244 23.8703 179.658 23.9455 179.075 23.9659C178.337 23.9916 177.641 23.9202 176.988 23.7515C176.335 23.5919 175.747 23.3479 175.225 23.0196C174.712 22.6909 174.274 22.2912 173.911 21.8206C173.548 21.3408 173.282 20.7982 173.115 20.193C173.025 19.9408 172.941 19.7796 172.866 19.7093C172.799 19.6295 172.689 19.5923 172.534 19.5977C172.197 19.6095 171.934 19.5366 171.746 19.379C171.558 19.2214 171.459 18.9877 171.448 18.678C171.444 18.5505 171.45 18.4682 171.467 18.4311L171.485 18.1569C171.519 17.8274 171.597 17.5875 171.72 17.4373C171.851 17.2868 172.058 17.2066 172.34 17.1968L172.545 17.1896C172.928 17.1762 173.191 16.9892 173.333 16.6286C173.593 15.9902 173.933 15.4038 174.352 14.8693C174.771 14.3348 175.248 13.8758 175.782 13.4924C176.315 13.0998 176.888 12.7925 177.501 12.5705C178.122 12.339 178.756 12.212 179.402 12.1894C180.077 12.1659 180.709 12.2442 181.299 12.4242C181.897 12.5948 182.421 12.8456 182.871 13.1764C183.32 13.5073 183.676 13.9007 183.938 14.3567C184.209 14.8124 184.354 15.3089 184.373 15.8463C184.386 16.2198 184.325 16.5639 184.19 16.8787C184.055 17.1935 183.855 17.4741 183.59 17.7205C183.325 17.9578 182.999 18.1561 182.612 18.3155C182.235 18.4746 181.801 18.5855 181.311 18.6483L176.586 19.2921C176.404 19.2984 176.255 19.3492 176.14 19.4444C176.034 19.5393 175.983 19.6642 175.989 19.8191C175.997 20.0559 176.092 20.2806 176.272 20.4932C176.462 20.7054 176.706 20.893 177.003 21.0559C177.31 21.2094 177.656 21.3295 178.042 21.4164C178.437 21.5029 178.84 21.539 179.25 21.5247C179.641 21.511 180.041 21.4606 180.448 21.3734C180.864 21.2768 181.27 21.1486 181.666 20.9889C182.071 20.8288 182.461 20.6419 182.837 20.4281C183.212 20.2053 183.563 19.9559 183.891 19.6799ZM180.721 16.2611C180.857 16.229 180.973 16.1611 181.07 16.0574C181.166 15.9446 181.212 15.8108 181.206 15.656C181.201 15.5193 181.147 15.3935 181.043 15.2786C180.938 15.1637 180.798 15.0637 180.622 14.9787C180.445 14.8845 180.242 14.8141 180.012 14.7674C179.783 14.7207 179.54 14.7018 179.285 14.7107C178.912 14.7237 178.531 14.7918 178.143 14.9147C177.755 15.0377 177.405 15.1959 177.093 15.3892C176.78 15.5734 176.527 15.7783 176.334 16.0039C176.141 16.2204 176.049 16.4334 176.056 16.6429C176.063 16.8524 176.194 16.9527 176.449 16.9438C176.604 16.9384 176.854 16.9115 177.199 16.8629C177.544 16.8144 177.925 16.7601 178.342 16.6999C178.76 16.6306 179.181 16.5566 179.607 16.4779C180.033 16.3992 180.404 16.3269 180.721 16.2611ZM185.543 7.03647C185.526 6.5628 185.651 6.22099 185.917 6.01105C186.184 5.80111 186.631 5.68516 187.26 5.66321C187.478 5.65558 187.67 5.67167 187.836 5.71149C188.001 5.75131 188.141 5.82397 188.254 5.92946C188.367 6.02584 188.458 6.16401 188.528 6.34396C188.607 6.51449 188.674 6.73559 188.729 7.00727C188.876 7.81384 189.024 8.6614 189.174 9.54995C189.332 10.4291 189.481 11.3085 189.622 12.1883C189.77 13.0586 189.91 13.911 190.039 14.7456C190.168 15.571 190.282 16.3422 190.38 17.0593C190.487 17.7669 190.568 18.398 190.624 18.9523C190.688 19.4973 190.726 19.9292 190.737 20.248C190.749 20.5759 190.727 20.8549 190.671 21.0848C190.624 21.3144 190.53 21.5001 190.389 21.6418C190.258 21.7832 190.079 21.8898 189.853 21.9615C189.637 22.0238 189.364 22.0607 189.036 22.0721C188.718 22.0833 188.46 22.0102 188.263 21.8529C188.075 21.6953 187.975 21.448 187.963 21.111C187.951 20.7648 187.908 20.3058 187.833 19.7338C187.758 19.1527 187.663 18.5085 187.547 17.8012C187.431 17.0939 187.3 16.3415 187.153 15.544C187.016 14.7463 186.87 13.9579 186.715 13.179C186.569 12.3997 186.424 11.6524 186.281 10.9369C186.146 10.212 186.024 9.57332 185.913 9.02085C185.802 8.45927 185.713 8.00181 185.646 7.64846C185.579 7.28601 185.544 7.08201 185.543 7.03647ZM193.72 6.53204C193.703 6.04926 193.828 5.70746 194.094 5.50662C194.36 5.29668 194.808 5.18074 195.436 5.15879C195.664 5.15084 195.856 5.16693 196.013 5.20707C196.178 5.23778 196.317 5.30588 196.43 5.41137C196.552 5.51654 196.649 5.65911 196.719 5.83906C196.798 6.00959 196.865 6.23069 196.92 6.50237C197.059 7.34569 197.208 8.21603 197.367 9.11337C197.535 10.0104 197.708 10.9118 197.885 11.8176C197.954 12.2256 198.175 12.4231 198.549 12.4101C198.649 12.4066 198.813 12.3917 199.04 12.3656C199.276 12.33 199.552 12.2929 199.87 12.2545C200.188 12.2069 200.528 12.1585 200.891 12.1094C201.263 12.0599 201.631 12.0151 201.995 11.9751C202.367 11.9256 202.717 11.886 203.044 11.8564C203.38 11.8173 203.676 11.7933 203.931 11.7843C204.131 11.7774 204.292 11.8128 204.413 11.8906C204.534 11.9594 204.629 12.0564 204.697 12.1817C204.774 12.2975 204.824 12.4326 204.848 12.5868C204.88 12.7316 204.899 12.8814 204.905 13.0363C204.909 13.1729 204.887 13.3151 204.837 13.4627C204.797 13.61 204.733 13.7445 204.646 13.8661C204.568 13.9783 204.467 14.073 204.342 14.1504C204.217 14.2277 204.072 14.2692 203.908 14.2749C203.116 14.3026 202.315 14.3579 201.506 14.4409C200.706 14.5144 199.907 14.6062 199.108 14.7162C198.7 14.7851 198.502 14.9972 198.515 15.3525C198.516 15.3798 198.521 15.4161 198.532 15.4613C198.543 15.4974 198.548 15.5292 198.549 15.5565C198.686 16.3452 198.812 17.084 198.928 17.7731C199.052 18.4619 199.156 19.0785 199.238 19.6228C199.33 20.1577 199.4 20.6067 199.45 20.9698C199.508 21.3234 199.539 21.5595 199.543 21.6779C199.554 22.0058 199.532 22.2802 199.476 22.501C199.42 22.731 199.322 22.9168 199.181 23.0586C199.04 23.2094 198.848 23.3164 198.604 23.3797C198.369 23.4517 198.069 23.4941 197.705 23.5068C197.359 23.5189 197.101 23.4458 196.931 23.2876C196.762 23.1293 196.662 22.882 196.632 22.5456C196.54 21.4727 196.415 20.3963 196.259 19.3164C196.103 18.2275 195.928 17.1437 195.735 16.0652C195.639 15.6763 195.428 15.4876 195.1 15.4991C195.072 15.5001 195.041 15.5057 195.005 15.5161C194.968 15.5265 194.937 15.5322 194.909 15.5331C194.349 15.6804 193.821 15.8265 193.324 15.9715C192.828 16.1165 192.363 16.2696 191.931 16.4306C191.688 16.5211 191.472 16.588 191.281 16.6311C191.091 16.6651 190.919 16.6848 190.764 16.6902C190.554 16.6975 190.396 16.6118 190.29 16.4332C190.183 16.2454 190.124 16.0103 190.114 15.7279C190.111 15.6277 190.116 15.5135 190.13 15.3854C190.143 15.2481 190.175 15.1147 190.225 14.9853C190.266 14.8471 190.335 14.7216 190.431 14.6088C190.518 14.4872 190.642 14.3871 190.804 14.3085C191.181 14.1403 191.685 13.963 192.317 13.7768C192.949 13.5815 193.663 13.3969 194.459 13.2232C194.64 13.1713 194.779 13.0935 194.875 12.9898C194.981 12.8767 195.03 12.7153 195.023 12.5058C195.021 12.4603 195.019 12.4147 195.018 12.3692C195.016 12.3145 195.005 12.2602 194.985 12.2062C194.81 11.3732 194.642 10.6176 194.482 9.93917C194.33 9.25133 194.195 8.66322 194.078 8.17483C193.97 7.68613 193.883 7.30154 193.819 7.02107C193.754 6.74059 193.721 6.57759 193.72 6.53204Z" fill="white" fill-opacity="0.5"/>
<path d="M133 31.1298C158.183 31.0791 184.449 30.3788 209.723 28.2597" stroke="white" stroke-opacity="0.5" stroke-width="2.5" stroke-linecap="round"/>
</svg>
