<svg width="129" height="120" viewBox="0 0 129 120" fill="none" xmlns="http://www.w3.org/2000/svg">
<path d="M26.0988 94.1797C18.4825 78.2589 11.7341 62.3262 6.46198 45.446C5.9503 43.8077 1.87236 34.6403 4.50724 33.3555C8.53215 31.393 13.0198 30.5203 17.1809 28.9006C25.48 25.6702 33.7617 22.3787 42.0259 19.0595C53.4825 14.4582 64.5965 8.92259 76.059 4.3823C79.2049 3.13623 79.7603 8.36538 80.6231 10.6856C84.0236 19.8298 86.6731 29.5246 89.1813 38.9423C90.6411 44.4231 93.6753 49.9489 94.7935 55.4679C95.0986 56.9738 84.6044 62.1247 83.1481 62.9395C73.7063 68.2219 64.0051 73.4541 55.0051 79.4389C45.8636 85.5179 36.5474 89.4427 26.4127 93.457M26.2079 92.9398C24.0776 97.8439 21.6837 102.598 19.6523 107.537C18.526 110.275 17.0737 112.794 15.3487 115.192C13.6624 117.535 18.8297 114.418 19.8079 113.991C29.8759 109.59 39.673 104.284 49.4621 99.2862C56.465 95.7107 63.9792 93.272 70.7973 89.3394C78.6581 84.8053 87.4003 81.62 95.6611 77.862C101.87 75.0375 107.864 71.7554 114.069 68.9419C116.724 67.7377 119.516 66.9089 122.054 65.4465C123.149 64.8156 126.523 64.058 124.465 62.8626C118.792 59.5676 112.095 57.0422 105.926 54.7817C103.289 53.8155 98.4392 54.1568 95.8767 55.1719" stroke="#7100FC" stroke-width="7" stroke-linecap="round"/>
</svg>
