<svg width="45" height="52" viewBox="0 0 45 52" fill="none" xmlns="http://www.w3.org/2000/svg">
<path d="M4.15454 4.16968L5.93591 1.15692C4.7825 0.474933 3.34095 0.511327 2.22342 1.25064C1.10589 1.98996 0.508539 3.30242 0.685037 4.6307L4.15454 4.16968ZM6.3497 15.6126L3.03791 16.7448H3.03791L6.3497 15.6126ZM7.92666 23.1709L4.51643 23.9586L4.51643 23.9586L7.92666 23.1709ZM11.6981 35.6331L9.06691 37.941H9.06691L11.6981 35.6331ZM20.6297 40.0771L18.7574 37.12H18.7574L20.6297 40.0771ZM24.4666 28.4345L26.9169 30.9337L26.9169 30.9337L24.4666 28.4345ZM36.6485 31.38L37.3442 34.8101L36.6485 31.38ZM38.4715 22.0329L41.0748 19.6934L40.6791 19.2532L40.1608 18.9675L38.4715 22.0329ZM21.5926 12.965L23.0408 9.77863L22.8893 9.7098L22.732 9.65564L21.5926 12.965ZM28.6502 28.5174C28.5216 26.5887 26.8538 25.1294 24.9251 25.2579C22.9964 25.3865 21.5371 27.0543 21.6657 28.983L28.6502 28.5174ZM28.9005 37.6355L25.8351 39.3246L28.9005 37.6355ZM31.417 41.854L34.35 39.9441L31.417 41.854ZM33.3935 44.8096L30.1952 46.2311L30.1952 46.2311L33.3935 44.8096ZM32.2396 49.5868C33.104 51.3157 35.2064 52.0165 36.9353 51.152C38.6642 50.2876 39.365 48.1852 38.5006 46.4563L32.2396 49.5868ZM4.15454 4.16968C0.685037 4.6307 0.685059 4.63087 0.685086 4.63106C0.6851 4.63117 0.685131 4.6314 0.685159 4.63162C0.685217 4.63205 0.685291 4.63261 0.685382 4.6333C0.685564 4.63466 0.685813 4.63652 0.686127 4.63888C0.686756 4.64359 0.687648 4.65026 0.688801 4.65885C0.691105 4.67602 0.69445 4.70086 0.698801 4.73295C0.707502 4.79713 0.720235 4.89037 0.736734 5.00942C0.769723 5.24747 0.817824 5.58912 0.878926 6.00841C1.00096 6.84583 1.17568 7.99874 1.3862 9.25785C1.78995 11.6727 2.37832 14.8156 3.03791 16.7448L9.66149 14.4803C9.21751 13.1817 8.7083 10.6032 8.29036 8.10349C8.09004 6.90536 7.92289 5.80277 7.80577 4.99901C7.74729 4.59771 7.70149 4.27234 7.67047 4.04852C7.65496 3.93664 7.64317 3.85023 7.63534 3.7925C7.63142 3.76363 7.6285 3.74195 7.62661 3.72784C7.62566 3.72078 7.62497 3.71562 7.62455 3.71241C7.62433 3.7108 7.62418 3.70968 7.6241 3.70906C7.62406 3.70874 7.62403 3.70855 7.62402 3.70849C7.62402 3.70845 7.62402 3.7085 7.62402 3.70848C7.62403 3.70855 7.62405 3.70866 4.15454 4.16968ZM3.03791 16.7448C3.34775 17.6511 3.57091 18.7301 3.79275 20.0094C3.99686 21.1865 4.21982 22.6744 4.51643 23.9586L11.3369 22.3833C11.0983 21.3505 10.9379 20.244 10.6898 18.8135C10.4595 17.4852 10.1618 15.9436 9.66149 14.4803L3.03791 16.7448ZM4.51643 23.9586C4.69933 24.7505 4.86709 25.7005 5.07258 26.8518C5.27085 27.9627 5.49795 29.2222 5.78442 30.4729C6.32313 32.8249 7.20358 35.8167 9.06691 37.941L14.3294 33.3252C13.7197 32.63 13.1291 31.1865 12.6077 28.9101C12.3641 27.8466 12.1639 26.7437 11.9637 25.6219C11.7707 24.5404 11.5687 23.3871 11.3369 22.3833L4.51643 23.9586ZM9.06691 37.941C10.0932 39.1111 11.9131 40.8952 13.9632 42.1968C14.9844 42.8452 16.2439 43.4912 17.621 43.7925C19.0355 44.102 20.8316 44.0919 22.502 43.0342L18.7574 37.12C19.1066 36.8989 19.3477 37.0047 19.1173 36.9543C18.8496 36.8957 18.3745 36.7059 17.7152 36.2873C16.4042 35.455 15.0797 34.1805 14.3294 33.3252L9.06691 37.941ZM22.502 43.0342C23.4609 42.4271 24.0397 41.5699 24.3732 40.9813C24.7352 40.3423 25.0119 39.6487 25.2295 39.0104C25.6639 37.7362 26.0039 36.2519 26.2832 34.9451C26.583 33.5421 26.8062 32.3816 27.0467 31.4034C27.164 30.9268 27.2573 30.6145 27.325 30.4312C27.4438 30.1094 27.3676 30.4918 26.9169 30.9337L22.0162 25.9354C21.2668 26.6702 20.9099 27.596 20.7585 28.006C20.556 28.5544 20.3894 29.1621 20.2493 29.7316C19.9753 30.8456 19.6942 32.2818 19.4377 33.4824C19.1606 34.7792 18.8923 35.9057 18.6039 36.7518C18.4601 37.1735 18.3469 37.4175 18.2825 37.5312C18.1895 37.6953 18.3055 37.4061 18.7574 37.12L22.502 43.0342ZM26.9169 30.9337C26.393 31.4474 25.8439 31.6234 25.5878 31.6841C25.4475 31.7174 25.3389 31.7298 25.2751 31.7349C25.2099 31.74 25.1695 31.7392 25.16 31.7389C25.1465 31.7386 25.1938 31.7394 25.3186 31.7595C25.4384 31.7788 25.5969 31.8103 25.798 31.8583C26.6507 32.0618 27.7993 32.4433 29.1473 32.9145C30.4141 33.3573 31.872 33.8851 33.0921 34.2606C33.7078 34.4501 34.3566 34.6308 34.9638 34.7495C35.4465 34.8439 36.3824 35.0052 37.3442 34.8101L35.9528 27.9498C36.4457 27.8499 36.6864 27.9538 36.3072 27.8797C36.0524 27.8298 35.6723 27.7307 35.1514 27.5704C34.0982 27.2462 32.852 26.7941 31.4572 26.3066C30.1436 25.8474 28.6732 25.3479 27.4228 25.0495C26.8099 24.9032 26.0761 24.7615 25.3524 24.7416C24.867 24.7282 23.268 24.7081 22.0162 25.9354L26.9169 30.9337ZM37.3442 34.8101C39.2728 34.419 41.0414 33.7329 42.3994 32.5608C43.8569 31.303 44.6487 29.6438 44.7416 27.8357C44.8278 26.158 44.3044 24.6031 43.651 23.329C42.9852 22.0309 42.0709 20.8018 41.0748 19.6934L35.8683 24.3724C36.5924 25.1781 37.1091 25.9126 37.4223 26.5234C37.5762 26.8233 37.6634 27.0595 37.709 27.2311C37.7545 27.4018 37.7508 27.4779 37.7508 27.4765C37.7566 27.3647 37.8468 27.2434 37.8259 27.2615C37.7056 27.3653 37.2189 27.693 35.9528 27.9498L37.3442 34.8101ZM40.1608 18.9675C33.7843 15.4537 29.029 12.5004 23.0408 9.77863L20.1443 16.1513C25.8063 18.7247 30.0336 21.3793 36.7823 25.0983L40.1608 18.9675ZM22.732 9.65564C19.9648 8.70279 15.8331 6.6328 12.2319 4.69341C10.4673 3.74306 8.88874 2.85634 7.75129 2.20711C7.18308 1.88278 6.72625 1.61847 6.4128 1.43603C6.25611 1.34482 6.13534 1.27413 6.0545 1.22669C6.01409 1.20297 5.98366 1.18507 5.96373 1.17332C5.95376 1.16745 5.94642 1.16312 5.94176 1.16037C5.93943 1.159 5.93777 1.15802 5.9368 1.15744C5.93631 1.15715 5.93599 1.15696 5.93584 1.15688C5.93577 1.15683 5.93578 1.15684 5.93575 1.15682C5.93581 1.15686 5.93591 1.15692 4.15454 4.16968C2.37317 7.18244 2.37336 7.18255 2.37359 7.18269C2.37373 7.18277 2.374 7.18293 2.37427 7.18309C2.37481 7.18341 2.37553 7.18383 2.37641 7.18435C2.37818 7.18539 2.38063 7.18684 2.38375 7.18869C2.39001 7.19238 2.39897 7.19766 2.41057 7.2045C2.43378 7.21817 2.46756 7.23805 2.51142 7.26379C2.59913 7.31526 2.72716 7.3902 2.89148 7.48584C3.22005 7.67709 3.69409 7.95134 4.28128 8.2865C5.45463 8.95623 7.08502 9.87214 8.91281 10.8565C12.4965 12.7865 17.0838 15.1141 20.4531 16.2743L22.732 9.65564ZM21.6657 28.983C21.8134 31.1983 22.6021 33.2288 23.4083 34.8921C24.1837 36.4921 25.2141 38.1976 25.8351 39.3246L31.966 35.9464C31.1221 34.4149 30.3851 33.2374 29.7074 31.8392C29.0605 30.5043 28.7104 29.4214 28.6502 28.5174L21.6657 28.983ZM25.8351 39.3246C26.6579 40.8178 27.5342 42.3052 28.484 43.7638L34.35 39.9441C33.5123 38.6576 32.724 37.322 31.966 35.9464L25.8351 39.3246ZM28.484 43.7638C28.8573 44.3372 29.3853 45.0198 29.639 45.367C29.9785 45.8315 30.1294 46.083 30.1952 46.2311L36.5919 43.3882C36.2041 42.5157 35.6729 41.7597 35.2906 41.2365C34.8225 40.5961 34.589 40.3111 34.35 39.9441L28.484 43.7638ZM30.1952 46.2311C30.6004 47.1429 31.1371 47.9152 31.4858 48.418C31.8942 49.0068 32.0952 49.298 32.2396 49.5868L38.5006 46.4563C38.084 45.6232 37.5508 44.8799 37.238 44.429C36.8657 43.892 36.6945 43.6191 36.5919 43.3882L30.1952 46.2311Z" fill="#14C832"/>
</svg>
