<svg width="38" height="42" viewBox="0 0 38 42" fill="none" xmlns="http://www.w3.org/2000/svg">
<path d="M31.2229 20.4776C34.6488 18.2146 37.2285 15.4142 35.185 11.5341C34.0122 9.30743 32.3352 8.36748 29.8781 7.86966C25.283 6.93867 21.9108 10.2664 19.8598 14.4759C18.6206 17.0191 18.8475 21.6469 18.8475 21.6469C18.8475 21.6469 21.1764 20.7615 22.7328 20.4431C25.9135 19.7924 28.3157 20.1097 31.0466 20.4505C31.1054 20.4578 31.1642 20.4669 31.2229 20.4776ZM31.2229 20.4776C27.3138 23.0598 22.3031 24.9422 21.8024 26.9304C20.8629 30.661 23.271 33.3668 26.5734 34.7553C30.0487 36.2166 35.4439 32.9239 35.892 32.2288C37.7277 29.3813 37.1373 26.3555 35.185 23.5864C34.063 21.9952 32.657 20.7393 31.2229 20.4776ZM13.7246 32.5867C13.9685 36.6806 15.1024 40.3131 19.4896 40.4926C22.0073 40.5956 23.6625 39.6181 25.3257 37.7449C28.436 34.242 27.2423 29.6606 24.6222 25.7786C23.0392 23.4332 18.9147 21.3094 18.9147 21.3094C18.9147 21.3094 18.5146 23.7652 18.0104 25.2693C16.98 28.3433 15.5008 30.2595 13.8364 32.4479C13.8006 32.4951 13.7633 32.5413 13.7246 32.5867ZM13.7246 32.5867C13.4462 27.9152 14.3265 22.6428 12.8544 21.2136C10.0921 18.5319 6.53987 19.2559 3.68111 21.4128C0.672569 23.6827 0.821766 29.9941 1.19958 30.7297C2.74728 33.7429 5.66562 34.7496 9.04415 34.4511C10.9856 34.2795 12.7789 33.6943 13.7246 32.5867ZM12.0015 11.3998C8.33105 9.55836 4.61451 8.71705 2.25973 12.4171C0.908353 14.5405 0.925838 16.4605 1.71554 18.8363C3.19238 23.2792 7.76123 24.5446 12.4391 24.227C15.2653 24.0352 19.1735 21.5366 19.1735 21.5366C19.1735 21.5366 17.2457 19.96 16.1948 18.7704C14.0472 16.3393 13.128 14.1009 12.0656 11.566C12.0428 11.5114 12.0214 11.456 12.0015 11.3998ZM12.0015 11.3998C16.1897 13.501 20.3178 16.9045 22.2944 16.3491C26.0033 15.3071 27.1564 11.8754 26.7202 8.32452C26.261 4.58761 20.7163 1.5527 19.8894 1.51037C16.5021 1.33698 14.1667 3.35348 12.7318 6.42183C11.9073 8.18508 11.5156 10.0276 12.0015 11.3998Z" stroke="black" stroke-width="1.6" stroke-linecap="round"/>
</svg>
