<svg width="117" height="224" viewBox="0 0 117 224" fill="none" xmlns="http://www.w3.org/2000/svg">
<path d="M18.4787 176.944C32.3907 164.85 46.6679 152.997 60.8523 141.204C66.5159 136.495 73.5637 130.358 80.2986 126.836L80.3074 126.832C85.1921 124.277 91.6109 120.92 96.8261 120.251M40.6631 105.777C46.4817 115.702 49.4636 127.838 57.1019 136.624C58.6244 138.376 58.8021 140.968 60.2869 142.676M51.348 127.618C49.9579 126.019 47.0923 128.851 50.4919 125.307C50.6772 125.114 50.9238 124.882 51.2078 124.627M51.2078 124.627C52.1259 123.804 53.4346 122.747 54.3214 122.014M51.2078 124.627C48.3123 127.155 48.7485 127.192 47.1663 125.223M51.2078 124.627C51.2437 124.596 51.2801 124.564 51.3171 124.532C51.9593 123.974 53.4231 123.039 54.3214 122.014M54.3214 122.014C55.1968 121.291 55.6612 120.884 54.9332 121.331C54.8724 121.368 54.8117 121.405 54.751 121.442M54.3214 122.014C54.4866 121.826 54.6326 121.634 54.751 121.442M54.751 121.442C53.3709 122.27 51.9968 122.904 50.7705 123.969C49.2597 125.283 46.7849 126.396 49.5015 124.035C52.8662 121.11 49.2618 123.703 47.1663 125.223M54.751 121.442C55.0781 120.908 55.1931 120.365 54.9135 119.849C53.71 117.63 53.228 115.457 51.5044 113.474C50.5496 112.376 50.4756 109.647 48.5645 110.092C46.5093 110.57 45.0048 112.379 43.4367 113.742M47.1663 125.223C46.3589 125.809 45.7756 126.236 45.9013 126.127C46.3162 125.766 46.6625 125.386 46.9792 124.993M47.1663 125.223C47.1069 125.149 47.0446 125.073 46.9792 124.993M46.9792 124.993C47.5512 124.283 48.0264 123.53 48.6339 122.772C49.9491 121.13 47.5799 122.528 47.769 121.909C48.7576 118.675 57.5218 114.912 50.0906 117.816C49.5025 118.046 49.021 118.335 48.5645 118.673M46.9792 124.993C46.8546 124.842 46.7188 124.68 46.5696 124.508C45.5963 123.389 44.4827 120.312 44.2552 118.796C44.0907 117.698 42.3957 111.653 45.8704 114.221C47.3344 115.303 48.8347 113.704 50.6393 113.938C50.6633 113.941 43.4882 122.499 48.6517 118.548C49.0893 118.213 48.9082 118.38 48.5645 118.673M48.5645 118.673C48.1976 118.945 47.8467 119.248 47.4696 119.575C47.148 119.855 48.0433 119.118 48.5645 118.673ZM38.6853 102.308C34.7382 93.3999 26.378 86.3109 16.5763 84.6336C13.4275 84.0947 7.33811 85.827 5.37148 83.0174C4.14601 81.2667 4.36738 77.0901 4.51775 74.9396C4.80308 70.8593 6.3915 66.762 7.16037 62.7272C9.12823 52.4006 12.1817 42.2747 15.3956 32.2793C18.1792 23.6221 21.9782 15.2998 25.2515 6.8789C26.5459 3.54878 23.0151 4.62548 21.101 4.49163M45.0671 201.562C46.9052 203.079 50.9082 204.887 53.2372 203.798C54.3286 203.288 55.6292 202.513 56.6288 202.925M62.9756 199.484L65.3397 197.429M19.4905 114.843C19.4905 114.843 8.26198 124.414 7.01101 131.456C4.7362 144.263 11.0063 158.213 15.8463 169.605C22.6191 185.546 31.2381 205.311 45.1333 216.492C49.8789 220.311 54.2279 221.392 59.6853 218.312C68.6848 213.233 76.6627 206.467 84.9346 200.341C93.352 194.106 102.856 187.386 109.364 179.105C112.807 174.723 112.886 172.405 112.317 166.853C110.319 147.353 101.301 131.034 93.6726 113.308C90.6589 106.305 85.6973 92.8875 77.4582 90.2786C66.3229 86.7526 53.1768 95.0485 43.9268 100.886L43.8384 100.942C37.787 104.76 19.4905 114.843 19.4905 114.843Z" stroke="#00D959" stroke-width="7" stroke-linecap="round"/>
</svg>
