<svg width="13" height="14" viewBox="0 0 13 14" fill="none" xmlns="http://www.w3.org/2000/svg">
<path d="M6.50005 10.575C8.47447 10.575 10.075 8.97447 10.075 7.00005C10.075 5.02563 8.47447 3.42505 6.50005 3.42505C4.52563 3.42505 2.92505 5.02563 2.92505 7.00005C2.92505 8.97447 4.52563 10.575 6.50005 10.575Z" stroke="black" stroke-width="0.825" stroke-linecap="round" stroke-linejoin="round"/>
<path d="M10.427 10.927L10.3555 10.8555M10.3555 3.1445L10.427 3.073L10.3555 3.1445ZM2.573 10.927L2.6445 10.8555L2.573 10.927ZM6.5 1.544V1.5V1.544ZM6.5 12.5V12.456V12.5ZM1.044 7H1H1.044ZM12 7H11.956H12ZM2.6445 3.1445L2.573 3.073L2.6445 3.1445Z" stroke="black" stroke-width="1.1" stroke-linecap="round" stroke-linejoin="round"/>
</svg>
