<svg width="124" height="82" viewBox="0 0 124 82" fill="none" xmlns="http://www.w3.org/2000/svg">
<path d="M33.2091 77.4947C32.7424 77.2075 33.1456 74.3829 33.1337 73.8356C33.0509 70.0277 32.6722 66.1167 32.2849 62.33C31.8189 57.7738 31.1366 35.6147 31.4361 18.4958C31.5197 13.7216 31.4362 6.27348 31.7756 6.27348C34.9528 6.27348 38.5617 5.24546 41.8288 4.9343C47.9053 4.35559 54.17 4.23643 60.2755 4.23643C61.0828 4.23643 67.7635 3.38433 67.7635 4.91544C67.7635 8.93635 66.7603 12.4831 67.1788 16.4587C67.5612 20.092 67.7635 23.5293 67.7635 27.1909C67.7635 38.7611 67.1788 50.797 67.1788 62.4621C67.7635 67.7999 69.7905 77.6273 63.9214 77.4947C55.164 77.297 39.6575 76.5401 36.7174 77.0421C36.0671 77.1531 33.7834 77.8481 33.2091 77.4947ZM33.2091 77.4947L17.4384 77.2307C14.8007 77.2307 12.1897 76.9129 9.55426 76.8912C8.5551 76.8829 7.15261 77.1561 6.15918 76.8723C5.43721 76.666 5.97056 70.5574 5.97056 70.0633C5.97056 61.3214 5.75434 52.5692 5.61219 43.8268C5.52236 38.3021 5.49659 32.7022 5.10293 27.1909C4.86607 23.8749 5.04145 20.3407 4.53708 17.0623C4.29588 15.4945 4.28839 15.0905 5.97056 14.8366C7.07019 14.6706 8.22099 14.5635 9.32792 14.4405C14.7376 13.8395 26.053 13.4712 31.4888 12.797M34.1495 24.6069C43.6796 24.6069 53.1466 25.6254 62.6682 25.6254M35.168 57.8787C40.2875 57.8787 45.3457 56.8602 50.427 56.8602C51.5842 56.8602 52.659 56.9366 53.7655 56.5961C55.4827 56.0677 57.6645 56.3213 59.4616 56.0114C60.5257 55.8279 64.2434 56.4256 64.7052 55.5022M71.2116 29.36C71.3136 30.5838 71.8589 31.6424 72.4188 32.7174C74.0773 35.9017 75.732 39.1047 77.5114 42.2236C83.7259 53.1165 90.4985 64.1294 98.0328 74.1751M99.7302 75.1936C104.602 73.2925 108.777 70.2931 113.311 67.7999C114.017 67.4116 115.921 67.7999 119.422 63.9899C120.904 62.4621 111.494 53.0732 107.803 47.618C104.497 42.7328 101.051 37.9747 98.108 32.8683C94.8736 27.2572 91.3922 21.3866 87.1683 16.4587M72.5694 25.9649C76.5805 21.9538 82.1724 19.4175 86.1497 15.4402" stroke="#7100FC" stroke-width="7" stroke-linecap="round"/>
</svg>
