<svg width="50" height="43" viewBox="0 0 50 43" fill="none" xmlns="http://www.w3.org/2000/svg">
<path d="M28.7307 15.7915C21.5135 15.7915 15.8937 19.4604 15.8937 24.1215C15.8937 28.8274 20.551 27.909 23.8384 27.909C28.1318 27.909 28.0727 23.6926 28.7307 20.7127C29.4379 17.5095 28.8138 19.1656 29.6088 20.1656C30.6276 21.4474 31.8419 22.4493 33.0375 23.5323C37.2155 27.3167 46 27.0398 46 19.9552C46 12.3965 37.8462 4.16968 30.8897 4.16968C25.1514 4.16968 15.473 4.75696 10.8418 8.48578C5.85267 12.5028 3.45551 19.2879 4.10416 24.8369C4.77315 30.56 11.1745 36.9096 15.8938 38.2666C23.4667 40.4443 30.8897 38.2666 35.2202 36.1296" stroke="#F8633A" stroke-width="7" stroke-linecap="round"/>
</svg>
