<svg width="179" height="173" viewBox="0 0 179 173" fill="none" xmlns="http://www.w3.org/2000/svg">
<path d="M49.4637 160.568C41.357 141.851 34.0298 100.922 69.5749 86.9374C114.006 69.4568 84.1841 135.6 55.1121 118.47C31.8545 104.766 78.1356 56.43 104.183 33.9753" stroke="#DF2683" stroke-width="7" stroke-linecap="round"/>
<path d="M101.89 14.042C104.347 11.7854 109.408 6.35374 110.641 6.62223C111.874 6.89072 122.708 25.6412 125.841 31.6606M101.89 14.042C99.4373 16.2949 97.901 17.8285 96.7209 20.9675M101.89 14.042C101.89 14.042 108.403 31.4597 122.294 44.8923M96.7209 20.9675L118.153 46.9394M96.7209 20.9675C95.9357 23.056 95.1322 25.0487 94.4905 27.011M118.153 46.9394C120.38 45.8385 120.334 46.5686 122.294 44.8923M118.153 46.9394C116.536 47.7384 114.496 48.2067 112.29 48.3498M122.294 44.8923C122.294 44.8923 130.209 39.8064 130.02 39.0347C129.759 37.9714 128.942 37.5916 128.395 36.7642C127.362 35.1991 126.705 33.3206 125.841 31.6606M125.841 31.6606L134.314 21.451M94.4905 27.011L112.29 48.3498M94.4905 27.011C93.9827 28.5639 93.5762 30.0978 93.3606 31.6448M112.29 48.3498C109.842 48.5085 107.19 48.267 104.685 47.6328M104.685 47.6328C100.391 46.5458 96.5289 44.3053 94.8701 40.9497C93.2368 37.6458 92.9457 34.6208 93.3606 31.6448M104.685 47.6328L93.3606 31.6448M118.266 15.2579L124.946 7.01452" stroke="#DF2683" stroke-width="7" stroke-linecap="round"/>
</svg>
