<svg width="50" height="51" viewBox="0 0 50 51" fill="none" xmlns="http://www.w3.org/2000/svg">
<path d="M18.3521 6.3114C22.2229 7.59513 25.314 10.7833 27.8935 13.7791C30.0213 16.2503 32.2913 18.4778 34.1214 21.191C36.1068 24.1345 38.2059 26.8732 39.5 30.1697C41.0304 34.0678 42.6751 38.7619 42.6751 42.9789M12.5781 20.8208C12.5781 20.8208 19.8863 26.0335 22 28.6697C23.5277 30.575 24.5103 32.254 25.1217 34.0884C25.1217 34.0884 26.9169 43.243 26.5935 44.0279M7.49307 39.4925C7.50859 39.4133 7.5266 39.3431 7.54664 39.2813M7.54664 39.2813C7.67329 38.8906 7.88076 38.8347 8.05008 38.953M7.54664 39.2813C7.56086 39.3113 7.57877 39.3438 7.60074 39.3791C7.6533 39.4636 7.89776 39.9336 8.02101 39.8505C8.04513 39.8342 8.06607 39.8145 8.08406 39.792M7.54664 39.2813C7.42797 39.0309 7.5662 38.9485 7.74292 38.7378M8.05008 38.953C8.26968 39.1065 8.42509 39.553 8.25669 39.9423M8.05008 38.953C8.00932 38.8717 7.96142 38.8043 7.91087 38.7619C7.86461 38.7231 7.80682 38.7182 7.74292 38.7378M8.05008 38.953C8.17815 39.2086 8.23574 39.6018 8.08406 39.792M8.25669 39.9423C8.21445 40.0399 8.15186 40.1339 8.0648 40.2188C7.55864 40.7123 7.03535 40.4513 7.00008 39.6414C6.99311 39.4813 7.43771 38.8313 7.74292 38.7378M8.25669 39.9423C9.02932 40.4166 8.86846 37.3746 7.75324 38.7254C7.74979 38.7296 7.74635 38.7337 7.74292 38.7378M8.25669 39.9423C8.20356 39.9097 8.14601 39.8604 8.08406 39.792M8.08406 39.792C8.03139 39.7338 7.97552 39.6617 7.91648 39.5742" stroke="#1483C8" stroke-width="9" stroke-linecap="round"/>
</svg>
