<svg width="112" height="135" viewBox="0 0 112 135" fill="none" xmlns="http://www.w3.org/2000/svg">
<path d="M21.6211 45.4128C21.5068 44.9499 20.3206 36.0733 23.5286 37.4056C25.3507 38.1622 27.645 39.9171 29.6296 40.3987C32.9953 41.2155 34.6263 39.6683 37.0889 37.3322C38.9737 35.5444 40.2689 30.9054 43.088 32.4611C47.2177 34.74 51.76 36.8017 56.0388 33.2099C58.4974 31.146 60.4657 29.3482 63.6068 28.443C65.8699 27.7909 68.5918 28.9632 70.7255 29.6394M30.3359 80.9915C31.7596 78.9807 33.9377 80.756 35.7472 80.7554C37.704 80.7547 39.5634 80.5995 41.4197 79.9628C42.4858 79.5971 42.9209 78.4477 44.0227 78.1302C46.5098 77.4135 49.9396 77.727 52.5718 77.2906C58.5096 76.3059 64.4291 75.296 70.3508 74.2123C73.1923 73.6923 75.7444 72.2372 78.5226 71.4366M74.0943 56.3139C71.9854 55.0408 70.6991 57.5396 69.0405 58.2633C67.2468 59.046 65.4807 59.648 63.5248 59.8074C62.4015 59.899 61.5431 59.0197 60.4064 59.1697C57.8404 59.5084 54.8224 61.1685 52.2355 61.822C46.3999 63.2963 40.5709 64.74 34.7104 66.117C31.8982 66.7778 28.9774 66.4656 26.111 66.844M36.8269 98.2429C40.9106 95.1062 44.1679 91.467 49.1656 92.793C52.6553 93.7189 57.2148 92.2224 60.487 91.335C63.162 90.6095 67.2732 89.991 68.9188 87.3717C69.8585 85.876 72.6927 85.3379 74.2232 85.3019C78.4815 85.2018 81.9015 84.172 86.0753 82.9693M41.4279 110.449C47.8215 108.607 52.2294 103.46 58.8315 102.307C66.5135 100.964 73.2797 98.0232 80.5933 95.9157M16.7144 74.5093C21.304 91.3697 22.5267 103.763 26.6674 118.133C27.7673 121.95 28.2387 127.158 30.3928 130.596C31.8193 132.873 36.7496 129.88 38.5091 129.068C53.0897 122.333 68.6687 117.988 83.842 112.763C88.2477 111.246 106.221 107.361 107.48 105.415C108.98 103.098 99.4369 72.0049 97.097 62.6922C96.2271 59.2303 96.1884 55.6084 95.2427 52.1814C94.2095 48.4374 92.9975 44.763 92.3034 40.9327C90.6375 31.7394 87.8231 22.2403 85.2502 13.3111C84.8766 12.0147 82.6896 3.37422 78.9982 4.00075C76.3399 4.45194 39.775 12.9641 37.4302 13.7643C32.4798 15.4537 28.1334 18.4025 23.1724 20.0638C21.6853 20.5617 4.83453 26.5725 4.24543 29.8396C3.65632 33.1068 4.6774 35.531 5.46183 38.2533C10.083 54.2904 12.8206 60.2047 16.7144 74.5093Z" stroke="#7100FC" stroke-width="7" stroke-linecap="round"/>
</svg>
