<svg width="123" height="156" viewBox="0 0 123 156" fill="none" xmlns="http://www.w3.org/2000/svg">
<path d="M71.5537 139.246C78.3724 136.682 85.0718 133.495 91.5626 130.219C94.7456 128.612 97.8345 126.423 101.17 125.169M11.2958 68.5565C11.634 69.4559 11.6887 70.344 12.0195 71.2237C12.3467 72.0938 12.8681 72.738 13.1863 73.5843C13.8433 75.3315 15.151 76.5818 15.8107 78.3362M18.2084 84.713C18.722 86.0788 19.4871 87.371 19.9747 88.6678C20.4512 89.9352 21.3507 90.8424 21.8011 92.0401M88.5253 36.6339C89.7284 39.8334 93.0994 48.3158 95.2428 50.9629M9.84903 60.8265C19.8918 86.0452 21.4469 86.3613 33.6663 110.524C39.0738 121.217 43.6792 132.382 49.0596 143.035C51.3229 147.517 52.0987 148.589 56.2017 150.693C61.67 153.497 67.9616 151.132 73.186 149.167L73.2703 149.135C86.0289 144.338 96.8696 136.523 109.683 131.705C112.074 130.806 115.007 130.282 116.653 128.17C118.147 126.255 119.413 122.026 119.476 119.424C119.617 113.524 118.988 109.099 116.785 103.239C113.595 94.7551 110.716 85.785 107.055 77.363C104.105 70.5776 99.1312 64.7501 96.3079 57.8099C92.0047 47.2318 87.0612 36.8299 83.0758 26.2308C81.9319 23.1886 78.249 11.0675 71.0156 6.79749C65.1873 3.35701 61.4649 4.03315 57.0237 5.70308L39.7714 12.1901C27.955 16.6332 14.3859 20.9107 6.46822 31.068C0.321045 38.9539 6.43705 51.7524 9.84903 60.8265ZM29.2764 28.6198C31.4008 27.821 33.5717 27.0962 35.617 26.1081C38.3883 24.7692 41.3287 23.7182 44.0365 22.2724C45.4577 21.5137 46.983 21.3878 48.4023 20.8541C49.4508 20.4599 50.263 21.6874 50.2011 22.7614C50.1113 24.3185 49.326 24.5426 48.086 25.3429C45.6156 26.9373 42.8495 27.8024 40.1156 28.8502C36.6933 30.1616 33.3579 31.6782 29.9255 32.9688L29.9127 32.9736C29.2427 33.2256 26.3629 34.3088 25.2778 32.8633C23.9082 31.0388 27.2371 29.3866 29.2764 28.6198Z" stroke="#1483C8" stroke-width="7" stroke-linecap="round"/>
</svg>
