<svg width="50" height="51" viewBox="0 0 50 51" fill="none" xmlns="http://www.w3.org/2000/svg">
<path d="M4 8.28474C9.27342 8.28474 14.5076 9.03296 19.8803 8.67478C26.7537 8.21655 33.4633 7.09562 40.1068 5.38728C41.2131 5.1028 42.2772 4.54279 43.3665 4.30073C44.8366 3.97403 44.5585 4.19772 45.0102 5.66588C45.7605 8.10426 45.993 11.3859 45.5117 13.9125C44.3686 19.914 43.5939 26.3749 40.9984 31.8545C39.9855 33.9927 39.5183 35.8922 37.9895 37.7608C36.1757 39.9777 33.285 41.5101 31.5816 43.6393C29.2894 46.5046 22.8902 45.3871 20.2704 43.8901C16.2338 41.5835 12.9653 38.9879 11.0208 34.6126C9.20117 30.5185 7.77954 26.4951 6.98104 22.1034C6.5554 19.7624 6.49196 17.3673 5.97808 15.0548C5.50808 12.9398 4 11.7309 4 9.28771M25.5276 17.1275C25.5276 19.5783 26.4113 22.1975 26.0093 24.6098C25.8648 25.4768 25.7203 26.482 25.7203 27.3394M25.5276 35.45H25.9129" stroke="#E29521" stroke-width="7" stroke-linecap="round"/>
</svg>
