<svg width="47" height="49" viewBox="0 0 47 49" fill="none" xmlns="http://www.w3.org/2000/svg">
<path d="M32.4489 10.3719C31.0444 11.0811 30.251 11.2997 30.251 11.2997C30.251 11.2997 29.3111 11.8329 28.8584 11.9345C28.795 11.9487 28 12.1878 28 12.2092C28 12.3744 28.5279 12.3673 28.6407 12.374C29.3774 12.4178 30.1341 12.9234 30.9257 12.9234C31.6517 12.9234 32.759 13.0494 33.4282 13.3872C33.9656 13.6586 34.5055 14.547 34.7339 15.0658C34.9569 15.5725 35.2304 16.0625 35.4713 16.549C35.582 16.7727 35.6678 16.9852 35.7977 17.2083C35.8858 17.3595 36.2076 17.4454 36.2511 17.5989C36.4777 18.3998 37.1276 16.5695 37.1276 16.2744C37.1276 15.8438 37.3452 15.4453 37.3452 15.0109C37.3452 14.7244 37.2865 13.7618 37.5084 13.5826C37.8 13.347 38.1399 12.3683 38.3003 12.0444C38.462 11.7177 38.9477 11.4286 39.2795 11.2997C40.2038 10.9407 41.3584 10.8358 42.3502 10.8358C42.9957 10.8358 43.3655 10.6431 42.459 10.5123C42.0624 10.4551 41.6823 10.2865 41.2622 10.2865C40.8405 10.2865 40.4437 10.0667 40.0109 10.0667C39.6144 10.0667 38.8037 9.78005 38.4332 9.60285C37.9539 9.37356 37.3462 9.06669 36.9704 8.68727C36.6965 8.4107 36.5993 7.88206 36.3115 7.64961C35.8035 7.23923 35.4211 6.02078 35.2839 5.39728C35.2277 5.14179 35.144 3.80605 35.0361 4.02391C34.8048 4.49097 34.7554 5.20701 34.6371 5.71469C34.371 6.85689 33.944 8.01474 33.3133 9.02298C33.0931 9.37513 32.8474 10.1707 32.4489 10.3719Z" stroke="#FFC800" stroke-width="7" stroke-linecap="round"/>
<path d="M19.3 13.3C19.0883 18.3799 20.405 25.8313 26.5505 27.3512C28.2156 27.763 31.5715 27.937 31.5715 27.937C31.5715 27.937 28.7001 28.932 27.2573 29.6478C25.2182 30.6595 22.6996 30.9699 21.4 32.8C19.6596 35.2508 18.9005 38.7451 18.703 41.7579C18.6342 42.8063 18.3496 44.7147 18.3496 44.7147C18.3496 44.7147 15.7711 35.8874 12.0083 31.8236C9.98427 29.6377 7.00784 27.5627 4 27.1C6.23645 27.1 11.2101 26.7634 13.9 24.7C16.1657 22.962 19.3905 16.154 19.3 13.3Z" stroke="#FFC800" stroke-width="7" stroke-linecap="round" stroke-linejoin="round"/>
</svg>
